<?xml version="1.0" standalone="no"?>
<!DOCTYPE svg PUBLIC "-//W3C//DTD SVG 1.1//EN" "http://www.w3.org/Graphics/SVG/1.1/DTD/svg11.dtd" >
<svg>
<metadata>
Created by FontForge 20090914 at Sun Jun  9 16:07:11 2013
 By www-data
(C)2002 House Industries/Brand Design Co. Inc.
</metadata>
<defs>
<font id="NeutraText-Light" horiz-adv-x="180" >
  <font-face 
    font-family="Neutra Text Light"
    font-weight="300"
    font-stretch="normal"
    units-per-em="1000"
    panose-1="2 0 0 0 0 0 0 0 0 0"
    ascent="800"
    descent="-200"
    x-height="408"
    cap-height="680"
    bbox="-50 -228 1027 950"
    underline-thickness="20"
    underline-position="-123"
    unicode-range="U+000D-U+FB02"
  />
<missing-glyph horiz-adv-x="500" 
 />
    <glyph glyph-name="fi" unicode="fi" horiz-adv-x="465" 
d="M361 551c-8.66699 0 -16.334 3.16699 -23.001 9.5s-10 14.166 -10 23.499s3.33301 17.166 10 23.499s14.334 9.5 23.001 9.5s16.334 -3.16699 23.001 -9.5s10 -14.166 10 -23.499s-3.33301 -17.166 -10 -23.499s-14.334 -9.5 -23.001 -9.5zM101 0l-0.000976562 375.001
h-65v33h65v210c0 39.333 9 68.666 27 87.999s41 29 69 29c38.667 0 69 -16 91 -48l-29 -22c-8.66699 12.667 -17.167 21.667 -25.5 27s-20.166 8 -35.499 8c-38.667 0 -58 -27.667 -58 -83v-209h241v-408h-39v375h-202v-375h-39z" />
    <glyph glyph-name="fl" unicode="fl" horiz-adv-x="471" 
d="M101 0v374h-65v34h65v179c0 47.333 13.833 83.833 41.5 109.5s61.167 38.5 100.5 38.5c38.667 0 71.334 -12.333 98.001 -37s40 -61.667 40 -111v-587h-39v584c0 38 -8.83301 66.833 -26.5 86.5s-41.834 29.5 -72.501 29.5c-32 0 -57.167 -9.66699 -75.5 -29
s-27.5 -48.333 -27.5 -87v-176h109v-34h-109v-374h-39z" />
    <glyph glyph-name="ff" unicode="ff" horiz-adv-x="526" 
d="M101 0l-0.00195312 375.002h-65v33h65v190c0 39.333 9 68.666 27 87.999s41 29 69 29c38.667 0 69 -16 91 -48l-29 -22c-8.66699 12.667 -17.167 21.667 -25.5 27s-20.166 8 -35.499 8c-38.667 0 -58 -27.667 -58 -83v-189h202v210c0 39.333 9 68.666 27 87.999
s41 29 69 29c38.667 0 69 -16 91 -48l-29 -22c-8.66699 12.667 -17.167 21.667 -25.5 27s-20.166 8 -35.499 8c-38.667 0 -58 -27.667 -58 -83v-209h109v-33h-109v-375h-39v375h-202v-375h-39z" />
    <glyph glyph-name="ffi" unicode="ffi" horiz-adv-x="706" 
d="M602 551c-8.66699 0 -16.334 3.16699 -23.001 9.5s-10 14.166 -10 23.499s3.33301 17.166 10 23.499s14.334 9.5 23.001 9.5s16.334 -3.16699 23.001 -9.5s10 -14.166 10 -23.499s-3.33301 -17.166 -10 -23.499s-14.334 -9.5 -23.001 -9.5zM101 0l-0.00195312 375.002
h-65v33h65v190c0 39.333 9 68.666 27 87.999s41 29 69 29c38.667 0 69 -16 91 -48l-29 -22c-8.66699 12.667 -17.167 21.667 -25.5 27s-20.166 8 -35.499 8c-38.667 0 -58 -27.667 -58 -83v-189h202v210c0 39.333 9 68.666 27 87.999s41 29 69 29c38.667 0 69 -16 91 -48
l-29 -22c-8.66699 12.667 -17.167 21.667 -25.5 27s-20.166 8 -35.499 8c-38.667 0 -58 -27.667 -58 -83v-209h241v-408h-39v375h-202v-375h-39v375h-202v-375h-39z" />
    <glyph glyph-name="ffl" unicode="ffl" horiz-adv-x="712" 
d="M101 0l-0.000976562 375.001h-65v33h65v190c0 39.333 9 68.666 27 87.999s41 29 69 29c38.667 0 69 -16 91 -48l-29 -22c-8.66699 12.667 -17.167 21.667 -25.5 27s-20.166 8 -35.499 8c-38.667 0 -58 -27.667 -58 -83v-189h202v179c0 47.333 13.833 83.833 41.5 109.5
s61.167 38.5 100.5 38.5c38.667 0 71.334 -12.333 98.001 -37s40 -61.667 40 -111v-587h-39v584c0 38 -8.83301 66.833 -26.5 86.5s-41.834 29.5 -72.501 29.5c-32 0 -57.167 -9.66699 -75.5 -29s-27.5 -48.333 -27.5 -87v-176h109v-33h-109v-375h-39v375h-202v-375h-39z
" />
    <glyph glyph-name=".notdef" horiz-adv-x="500" 
 />
    <glyph glyph-name=".notdef" horiz-adv-x="500" 
 />
    <glyph glyph-name="CR" unicode="&#xd;" horiz-adv-x="244" 
 />
    <glyph glyph-name="space" unicode=" " horiz-adv-x="244" 
 />
    <glyph glyph-name="exclam" unicode="!" horiz-adv-x="224" 
d="M97 170l-7 510h44l-7 -510h-30zM112 -7c-10 0 -18.833 3.83301 -26.5 11.5s-11.5 16.5 -11.5 26.5c0 10.667 3.83301 19.834 11.5 27.501s16.5 11.5 26.5 11.5s18.833 -3.83301 26.5 -11.5s11.5 -16.834 11.5 -27.501s-3.83301 -19.667 -11.5 -27s-16.5 -11 -26.5 -11z
" />
    <glyph glyph-name="quotedbl" unicode="&#x22;" horiz-adv-x="225" 
d="M147 487l-5 193h41l-5 -193h-31zM47 487l-5 193h41l-5 -193h-31z" />
    <glyph glyph-name="numbersign" unicode="#" horiz-adv-x="431" 
d="M72 192l28 111h-72v34h80l31 124h-80v34h88l29 115h36l-29 -115h111l29 115h36l-29 -115h73v-34h-81l-31 -124h80v-34h-89l-27 -111h-37l28 111h-111l-27 -111h-36zM144 337h111l31 124h-111z" />
    <glyph glyph-name="dollar" unicode="$" horiz-adv-x="404" 
d="M183 -7c-38 4 -71.501 15.999 -100.501 35.999s-49.833 43.333 -62.5 70l33 16c26.667 -52 70 -81.333 130 -88v219l-12 4c-42 14 -73.333 31 -94 51s-31 47.333 -31 82c0 34 13 61.833 39 83.5s58.667 33.834 98 36.501v107h34v-108
c30.667 -3.33301 57.5 -13.166 80.5 -29.499s39.833 -35.5 50.5 -57.5l-31 -17c-23.333 41.333 -56.666 64.666 -99.999 69.999v-195l19 -6c48 -16.667 82.667 -35.667 104 -57s32 -50 32 -86c0 -38 -14 -69 -42 -93s-65.667 -37 -113 -39v-112h-34v113zM182.999 468.999
c-30 -2 -53.833 -10.333 -71.5 -25s-26.5 -35 -26.5 -61c0 -25.333 7.33301 -44.833 22 -58.5s39 -26.5 73 -38.5l3 -1v184zM216.999 25.999c36 2 64.333 11.666 85 28.999s31 40.333 31 69s-7.83301 50.334 -23.5 65.001s-43.167 28.667 -82.5 42l-10 3v-208z" />
    <glyph glyph-name="percent" unicode="%" horiz-adv-x="723" 
d="M173 219c-38.667 0 -72.167 13.5 -100.5 40.5s-42.5 60.833 -42.5 101.5c0 40 14.167 73.667 42.5 101s61.833 41 100.5 41c38 0 71.167 -13.667 99.5 -41s42.5 -61 42.5 -101c0 -40.667 -14.167 -74.5 -42.5 -101.5s-61.5 -40.5 -99.5 -40.5zM188 0l308 495h40
l-308 -495h-40zM551 -8c-38.667 0 -72 13.5 -100 40.5s-42 60.833 -42 101.5c0 40 14.167 73.667 42.5 101s61.5 41 99.5 41s71.167 -13.667 99.5 -41s42.5 -61 42.5 -101c0 -40.667 -14 -74.5 -42 -101.5s-61.333 -40.5 -100 -40.5zM173 252
c29.333 0 54.166 10.167 74.499 30.5s30.5 46.5 30.5 78.5s-10.167 58 -30.5 78s-45.166 30 -74.499 30c-30 0 -55.167 -10 -75.5 -30s-30.5 -46 -30.5 -78s10.333 -58.167 31 -78.5s45.667 -30.5 75 -30.5zM551 25c29.333 0 54.166 10.167 74.499 30.5s30.5 46.5 30.5 78.5
c0 31.333 -10.167 57.166 -30.5 77.499s-45.166 30.5 -74.499 30.5s-54.166 -10.167 -74.499 -30.5s-30.5 -46.166 -30.5 -77.499c0 -32 10.167 -58.167 30.5 -78.5s45.166 -30.5 74.499 -30.5z" />
    <glyph glyph-name="ampersand" unicode="&#x26;" horiz-adv-x="635" 
d="M287 393l172 -207c22 53.333 33 115 33 185h38c0 -82.667 -14.667 -155 -44 -217l128 -154h-51l-98 118c-54 -84 -129.333 -126 -226 -126c-58 0 -104.667 16.167 -140 48.5s-53 75.833 -53 130.5c0 28.667 4.66699 54.5 14 77.5s24.5 44.167 45.5 63.5
s39.333 34.333 55 45s38.834 25 69.501 43l-22 27c-36 44 -54 87.667 -54 131c0 37.333 12 68.333 36 93s55.333 37 94 37c37.333 0 68.166 -12.5 92.499 -37.5s36.5 -55.833 36.5 -92.5c0 -57.333 -42 -112.333 -126 -165zM264 421
c34.667 20.667 61.499 41.834 80.499 63.501s28.5 46.167 28.5 73.5c0 28 -8.33301 50.5 -25 67.5s-38 25.5 -64 25.5c-27.333 0 -49.166 -8.33301 -65.499 -25s-24.5 -39.334 -24.5 -68.001c0 -35.333 14.333 -70 43 -104zM439.999 148l-187 225
c-27.333 -16 -48.5 -29 -63.5 -39s-31.667 -23.333 -50 -40s-31.5 -35 -39.5 -55s-12 -42.667 -12 -68c0 -44 13.667 -78.667 41 -104s64 -38 110 -38c87.333 0 154.333 39.667 201 119z" />
    <glyph glyph-name="quotesingle" unicode="'" horiz-adv-x="125" 
d="M47 487l-5 193h41l-5 -193h-31z" />
    <glyph glyph-name="parenleft" unicode="(" horiz-adv-x="261" 
d="M206 -136c-110 116.667 -165 259 -165 427s55 310.333 165 427l26 -23c-100 -114 -150 -248.667 -150 -404s50 -290 150 -404z" />
    <glyph glyph-name="parenright" unicode=")" horiz-adv-x="261" 
d="M55 -136l-26 23c99.333 113.333 149 248 149 404s-49.667 290.667 -149 404l26 23c110 -118 165 -260.333 165 -427s-55 -309 -165 -427z" />
    <glyph glyph-name="asterisk" unicode="*" horiz-adv-x="379" 
d="M171 382l8 131l-106 -68l-18 32l119 55l-119 55l18 32l106 -68l-8 129h37l-8 -129l106 68l18 -32l-119 -55l118 -55l-17 -32l-106 68l8 -131h-37z" />
    <glyph glyph-name="plus" unicode="+" horiz-adv-x="355" 
d="M158 95v132h-119v36h119v132h38v-132h120v-36h-120v-132h-38z" />
    <glyph glyph-name="comma" unicode="," 
d="M40 -111l39 106.999c-19.333 4.66699 -29 17 -29 37c0 10.667 4.16699 20 12.5 28s17.5 12 27.5 12c10.667 0 20 -4 28 -12s12 -17.333 12 -28c0 -7.33301 -1.33301 -13.666 -4 -18.999l-61 -125h-25z" />
    <glyph glyph-name="hyphen" unicode="-" horiz-adv-x="278" 
d="M51 208v36h175v-36h-175z" />
    <glyph glyph-name="hyphen" unicode="&#xad;" horiz-adv-x="278" 
d="M51 208v36h175v-36h-175z" />
    <glyph glyph-name="period" unicode="." 
d="M90 -7c-10 0 -19.167 4 -27.5 12s-12.5 17.333 -12.5 28c0 11.333 4 20.833 12 28.5s17.333 11.5 28 11.5s20 -3.83301 28 -11.5s12 -17.167 12 -28.5c0 -10.667 -4 -20 -12 -28s-17.333 -12 -28 -12z" />
    <glyph glyph-name="slash" unicode="/" horiz-adv-x="440" 
d="M29 -128l311 850h41l-311 -850h-41z" />
    <glyph glyph-name="zero" unicode="0" horiz-adv-x="605" 
d="M302 -8c-70.667 0 -131.332 24.667 -181.999 74s-76 110 -76 182c0 72.667 25.167 133.334 75.5 182.001s111.166 73 182.499 73s132.333 -24.333 183 -73s76 -109.334 76 -182.001c0 -72 -25.333 -132.667 -76 -182s-111.667 -74 -183 -74zM302.002 28
c61.333 0 113 21.165 155 63.498s63 94.5 63 156.5c0 62.667 -21 114.834 -63 156.501s-93.667 62.5 -155 62.5s-112.833 -20.667 -154.5 -62s-62.5 -93.666 -62.5 -156.999c0 -62.667 20.833 -115 62.5 -157s93.167 -63 154.5 -63z" />
    <glyph glyph-name="one" unicode="1" horiz-adv-x="262" 
d="M140 0v460h-117v35h157v-495h-40z" />
    <glyph glyph-name="two" unicode="2" horiz-adv-x="466" 
d="M33 0l0.000976562 7.00195l205 174c39.333 33.333 68.666 63.666 87.999 90.999s29 55.666 29 84.999c0 36 -10.5 63.333 -31.5 82s-48.833 28 -83.5 28c-70 0 -117.333 -37.667 -142 -113l-35 10c11.333 43.333 32.833 77.333 64.5 102s69.167 37 112.5 37
c46 0 83.333 -12.833 112 -38.5s43 -61.5 43 -107.5c0 -34 -11 -66.667 -33 -98s-54.333 -65 -97 -101l-112 -94l-45 -31c20 2 36.333 3 49 3h254v-36h-378z" />
    <glyph glyph-name="three" unicode="3" horiz-adv-x="479" 
d="M232 -103c-46.667 0 -88.501 11 -125.501 33s-64.167 52.667 -81.5 92l34 17c35.333 -70.667 93 -106 173 -106c46 0 84.667 14.5 116 43.5s47 69.167 47 120.5c0 50 -14.333 88.5 -43 115.5s-69 40.5 -121 40.5c-26 0 -52.333 -5.66699 -79 -17l-6 8l174 190l28 29
c-15.333 -2 -29.333 -3 -42 -3h-231v35h342v-4l-163 -179c-3.33301 -4 -7.66602 -8.16699 -12.999 -12.5s-9.66602 -7.5 -12.999 -9.5l-6 -4c63.333 4 114.833 -11.5 154.5 -46.5s59.5 -82.5 59.5 -142.5c0 -61.333 -19.833 -110 -59.5 -146s-87.834 -54 -144.501 -54z" />
    <glyph glyph-name="four" unicode="4" horiz-adv-x="506" 
d="M396 68h77v-37h-77v-125h-40v125h-337v7l369 469h8v-439zM356 68l0.000976562 301l3 48c-10.667 -16.667 -20.334 -30.667 -29.001 -42l-215 -273l-34 -37c18 2 33.333 3 46 3h229z" />
    <glyph glyph-name="five" unicode="5" horiz-adv-x="475" 
d="M227 -103c-43.333 0 -81.3311 8.83301 -113.998 26.5s-57.667 41.5 -75 71.5l31 20c34 -54.667 86.667 -82 158 -82c49.333 0 89.166 15.167 119.499 45.5s45.5 70.5 45.5 120.5c0 50.667 -14 90.5 -42 119.5s-68.333 43.5 -121 43.5c-53.333 0 -101 -18.333 -143 -55
l-7 2v286h322v-35h-286v-194c34 21.333 73 32 117 32c59.333 0 107.666 -18.5 144.999 -55.5s56 -84.833 56 -143.5c0 -59.333 -19.667 -107.833 -59 -145.5s-88.333 -56.5 -147 -56.5z" />
    <glyph glyph-name="six" unicode="6" horiz-adv-x="497" 
d="M249 -8c-58.667 0 -107.332 18.5 -145.999 55.5s-58 84.5 -58 142.5c0 39.333 19 88.333 57 147l181 273h44l-144 -218l-40 -49c33.333 30.667 70.333 46 111 46c57.333 0 104.666 -18.833 141.999 -56.5s56 -85.167 56 -142.5c0 -56 -19.167 -103 -57.5 -141
s-86.833 -57 -145.5 -57zM248.002 28c47.333 0 86.5 15.168 117.5 45.501s46.5 69.166 46.5 116.499c0 50 -14.5 89.667 -43.5 119s-68.833 44 -119.5 44c-48.667 0 -88.167 -15.833 -118.5 -47.5s-45.5 -70.167 -45.5 -115.5c0 -48 14.833 -87 44.5 -117
s69.167 -45 118.5 -45z" />
    <glyph glyph-name="seven" unicode="7" horiz-adv-x="434" 
d="M84 -94l267 554h-316v35h370v-7l-280 -582h-41z" />
    <glyph glyph-name="eight" unicode="8" horiz-adv-x="511" 
d="M255 -8c-63.333 0 -114.667 17.001 -154 51.001s-59 78 -59 132c0 41.333 13 76.833 39 106.5s60.667 49.834 104 60.501c-28.667 10 -51.5 26.167 -68.5 48.5s-25.5 49.166 -25.5 80.499c0 42.667 15.833 77.834 47.5 105.501s70.5 41.5 116.5 41.5
c46.667 0 86 -13.833 118 -41.5s48 -62.834 48 -105.501c0 -31.333 -8.66699 -58 -26 -80s-40.333 -38.333 -69 -49c43.333 -10.667 78 -30.834 104 -60.501s39 -65.167 39 -106.5c0 -54 -19.5 -98 -58.5 -132s-90.833 -51 -155.5 -51zM254.999 359.001
c38 0 68.501 10.333 91.501 31s34.5 47.667 34.5 81c0 32.667 -11.833 59.5 -35.5 80.5s-53.834 31.5 -90.501 31.5c-37.333 0 -67.5 -10.5 -90.5 -31.5s-34.5 -47.833 -34.5 -80.5c0 -34 11.333 -61.167 34 -81.5s53 -30.5 91 -30.5zM255 29.001
c52 0 93.833 13.333 125.5 40s47.5 62 47.5 106c0 44.667 -16 80.5 -48 107.5s-73.667 40.5 -125 40.5s-92.833 -13.5 -124.5 -40.5s-47.5 -62.833 -47.5 -107.5s15.667 -80.167 47 -106.5s73 -39.5 125 -39.5z" />
    <glyph glyph-name="nine" unicode="9" horiz-adv-x="505" 
d="M198 -94l130.002 198c4 6 9 12.667 15 20l15 18l7 6c-14 -14 -31.833 -25.333 -53.5 -34s-42.834 -13 -63.501 -13c-58.667 0 -107.167 19 -145.5 57s-57.5 86 -57.5 144c0 56 19.833 103.5 59.5 142.5s89.167 58.5 148.5 58.5s108.666 -19 147.999 -57s59 -86 59 -144
c0 -39.333 -19.333 -89.333 -58 -150l-160 -246h-44zM252.002 136c49.333 0 89.666 16.001 120.999 48.001s47 71.333 47 118c0 48 -15.5 87.5 -46.5 118.5s-71.167 46.5 -120.5 46.5s-89.666 -15.333 -120.999 -46s-47 -70.334 -47 -119.001
c0 -50.667 15.167 -91 45.5 -121s70.833 -45 121.5 -45z" />
    <glyph glyph-name="colon" unicode=":" horiz-adv-x="190" 
d="M95 214c-10 0 -19.167 4 -27.5 12s-12.5 17.333 -12.5 28c0 11.333 4.16699 21 12.5 29s17.5 12 27.5 12c10.667 0 20 -4 28 -12s12 -17.667 12 -29c0 -10.667 -4 -20 -12 -28s-17.333 -12 -28 -12zM95 -7c-10 0 -19.167 4 -27.5 12s-12.5 17.333 -12.5 28
c0 11.333 4.16699 21 12.5 29s17.5 12 27.5 12c10.667 0 20 -4 28 -12s12 -17.667 12 -29c0 -10.667 -4 -20 -12 -28s-17.333 -12 -28 -12z" />
    <glyph glyph-name="semicolon" unicode=";" horiz-adv-x="190" 
d="M95 214c-10 0 -19.167 4 -27.5 12s-12.5 17.333 -12.5 28c0 11.333 4.16699 21 12.5 29s17.5 12 27.5 12c10.667 0 20 -4 28 -12s12 -17.667 12 -29c0 -10.667 -4 -20 -12 -28s-17.333 -12 -28 -12zM45 -111l39 106.999c-19.333 4.66699 -29 17 -29 37
c0 10.667 4.16699 20 12.5 28s17.5 12 27.5 12c10.667 0 20 -4 28 -12s12 -17.333 12 -28c0 -7.33301 -1.33301 -13.666 -4 -18.999l-61 -125h-25z" />
    <glyph glyph-name="semicolon" unicode="&#x37e;" horiz-adv-x="190" 
d="M95 214c-10 0 -19.167 4 -27.5 12s-12.5 17.333 -12.5 28c0 11.333 4.16699 21 12.5 29s17.5 12 27.5 12c10.667 0 20 -4 28 -12s12 -17.667 12 -29c0 -10.667 -4 -20 -12 -28s-17.333 -12 -28 -12zM45 -111l39 106.999c-19.333 4.66699 -29 17 -29 37
c0 10.667 4.16699 20 12.5 28s17.5 12 27.5 12c10.667 0 20 -4 28 -12s12 -17.333 12 -28c0 -7.33301 -1.33301 -13.666 -4 -18.999l-61 -125h-25z" />
    <glyph glyph-name="less" unicode="&#x3c;" horiz-adv-x="355" 
d="M300 105l-258 134v10l258 132v-39l-196 -98l196 -99v-40z" />
    <glyph glyph-name="equal" unicode="=" horiz-adv-x="355" 
d="M45 283v36h265v-36h-265zM45 170v36h265v-36h-265z" />
    <glyph glyph-name="greater" unicode="&#x3e;" horiz-adv-x="355" 
d="M55 105v39l196 98l-196 99v40l258 -134v-10z" />
    <glyph glyph-name="question" unicode="?" horiz-adv-x="449" 
d="M174 166l-0.000976562 185h27c45.333 0 82.333 14.5 111 43.5s43 64.833 43 107.5c0 47.333 -13.333 84 -40 110s-61.667 39 -105 39c-36.667 0 -67 -7.83301 -91 -23.5s-44.333 -41.5 -61 -77.5l-34 17c15.333 38.667 39.333 68.5 72 89.5s70.667 31.5 114 31.5
c54.667 0 99.334 -16.5 134.001 -49.5s52 -78.5 52 -136.5c0 -52 -17.5 -95.333 -52.5 -130s-78.833 -53 -131.5 -55v-151h-38zM191.999 -7c-10 0 -18.833 3.83301 -26.5 11.5s-11.5 16.5 -11.5 26.5c0 10.667 3.83301 19.834 11.5 27.501s16.5 11.5 26.5 11.5
s18.833 -3.83301 26.5 -11.5s11.5 -16.834 11.5 -27.501s-3.83301 -19.667 -11.5 -27s-16.5 -11 -26.5 -11z" />
    <glyph glyph-name="at" unicode="@" horiz-adv-x="868" 
d="M435 -206c-107.333 0 -197.667 36.8311 -271 110.498s-110 167.167 -110 280.5c0 110 37 202.667 111 278s164 113 270 113c107.333 0 197.333 -35.667 270 -107s109 -158.333 109 -261c0 -72 -13.333 -125.667 -40 -161s-60.334 -53 -101.001 -53
c-30.667 0 -55.167 8.83301 -73.5 26.5s-28.833 42.5 -31.5 74.5c-29.333 -68.667 -78.666 -103 -147.999 -103c-49.333 0 -90.833 17.833 -124.5 53.5s-50.5 80.167 -50.5 133.5c0 54.667 16.833 100.167 50.5 136.5s75.167 54.5 124.5 54.5c66.667 0 115 -32.667 145 -98
l-2 89h39v-235c0 -66 23.667 -99 71 -99c30.667 0 55.5 14.833 74.5 44.5s28.5 75.167 28.5 136.5c0 92 -31.333 170.667 -94 236s-145 98 -247 98c-99.333 0 -181.166 -34.667 -245.499 -104s-96.5 -153.666 -96.5 -252.999c0 -101.333 32 -186.166 96 -254.499
s146 -102.5 246 -102.5c63.333 0 119 15 167 45l18 -30c-52.667 -32.667 -114.334 -49 -185.001 -49zM422.999 25.998c40 0 73.5 15.001 100.5 45.001s40.5 66 40.5 108c0 43.333 -13.5 80.333 -40.5 111s-60.5 46 -100.5 46s-73 -15.167 -99 -45.5s-39 -67.5 -39 -111.5
c0 -42.667 13 -78.834 39 -108.501s59 -44.5 99 -44.5z" />
    <glyph glyph-name="A" unicode="A" horiz-adv-x="651" 
d="M44 0l275 688h12l276 -688h-42l-52 132h-376l-52 -132h-41zM151 168h347.001l-153 388l-20 62c-6.66699 -25.333 -13.334 -46 -20.001 -62z" />
    <glyph glyph-name="B" unicode="B" horiz-adv-x="608" 
d="M103 0l-0.000976562 680h216c60.667 0 106.167 -15 136.5 -45s45.5 -69.333 45.5 -118c0 -74 -28 -120.667 -84 -140c42.667 -10 76.834 -31.333 102.501 -64s38.5 -72 38.5 -118c0 -58 -17.5 -105 -52.5 -141s-87.167 -54 -156.5 -54h-246zM143.999 390h189
c84.667 0 127 42.333 127 127s-48.333 127 -145 127h-171v-254zM143.999 36l200.001 -0.000976562c60 0 103.833 14.333 131.5 43s41.5 67.334 41.5 116.001c0 48 -14.333 86.5 -43 115.5s-72.334 43.5 -131.001 43.5h-199v-318z" />
    <glyph glyph-name="C" unicode="C" horiz-adv-x="731" 
d="M405 -8c-98 0 -180.5 32.5 -247.5 97.5s-100.5 148.5 -100.5 250.5s33.5 185.5 100.5 250.5s149.5 97.5 247.5 97.5c120.667 0 210.667 -43 270 -129l-31 -23c-54 76.667 -133.667 115 -239 115c-87.333 0 -160.166 -29.667 -218.499 -89s-87.5 -133.333 -87.5 -222
s29.167 -162.667 87.5 -222s131.166 -89 218.499 -89c108 0 190.333 40.333 247 121l31 -22c-30 -43.333 -69.167 -76.833 -117.5 -100.5s-101.833 -35.5 -160.5 -35.5z" />
    <glyph glyph-name="D" unicode="D" horiz-adv-x="677" 
d="M103 0l-0.00195312 680h145c116.667 0 207.834 -30.333 273.501 -91s98.5 -143.667 98.5 -249s-32.667 -188.333 -98 -249s-156.666 -91 -273.999 -91h-145zM143.998 37h99c109.333 0 192.333 27.5 249 82.5s85 128.5 85 220.5s-28.333 165.5 -85 220.5
s-139.667 82.5 -249 82.5h-99v-606z" />
    <glyph glyph-name="E" unicode="E" horiz-adv-x="573" 
d="M103 0v680h397v-36h-356v-364h319v-36h-319v-208h370v-36h-411z" />
    <glyph glyph-name="F" unicode="F" horiz-adv-x="556" 
d="M103 0v680h396v-36h-355v-364h322v-37h-322v-243h-41z" />
    <glyph glyph-name="G" unicode="G" horiz-adv-x="745" 
d="M407 -8c-98.667 0 -181.666 32.5 -248.999 97.5s-101 148.5 -101 250.5s33.833 185.5 101.5 250.5s150.834 97.5 249.501 97.5c100.667 0 178 -28.333 232 -85l-27 -28c-48.667 50.667 -117 76 -205 76c-88.667 0 -162.334 -29.5 -221.001 -88.5s-88 -133.167 -88 -222.5
c0 -88.667 29.333 -162.667 88 -222s132 -89 220 -89c97.333 0 174.666 26.667 231.999 80v158h-219v36h259v-210c-66 -67.333 -156.667 -101 -272 -101z" />
    <glyph glyph-name="H" unicode="H" horiz-adv-x="684" 
d="M103 0v680h41v-400h396v400h41v-680h-41v243h-396v-243h-41z" />
    <glyph glyph-name="I" unicode="I" horiz-adv-x="255" 
d="M107 0v680h41v-680h-41z" />
    <glyph glyph-name="J" unicode="J" horiz-adv-x="476" 
d="M202 -8c-71.333 0 -124.666 30 -159.999 90l33 22c29.333 -50 71.333 -75 126 -75c39.333 0 70.666 12 93.999 36s35 59 35 105v510h41v-512c0 -56 -15.667 -99.333 -47 -130s-72 -46 -122 -46z" />
    <glyph glyph-name="K" unicode="K" horiz-adv-x="587" 
d="M140 240c22.667 39.333 36.333 62 41 68l294 372h46l-264 -338l290 -342h-51l-265 313l-87 -107v0v0v0v-1v0v0v-1v0v-1v-1v0v-1v-1v-1v-1v-1v-1v-1v-1v-1v-1v-1v-1v-1v-1v-1v-1v-1v-1v-1v-1v-1v-1v-1v-1v-1v-1v-1v-1v-1v-1v-1v-1v-1v-1v-1v-1v-1v-1v-2v-1v-1v-1v-1v-1v-1
v-2v-1v-1v-1v-1v-2v-1v-1v-1v-2v-1v-1v-2v-1v-1v-1v-2v-1v-1v-2v-1v-2v-1v-1v-2v-1v-1v-2v-1v-2v-1v-2v-1v-1v-2v-1v-2v-1v-2v-1v-2v-1v-2v-1v-2v-2v-1v-2v-1v-2v-1v-2v-2v-1v-2v-1v-2v-2v-1v-2v-1v-2v-2v-1v-2v-2v-1v-2v-2v-2v-1v-2v-2v-1v-2v-2v-2v-1v-2v-2v-2v-1v-2v-2
v-2v-2v-1v-2v-2v-2v-2v-1v-2v-2v-2v-9h-41v680h41v-363c0 -11.333 -1.33301 -37 -4 -77z" />
    <glyph glyph-name="L" unicode="L" horiz-adv-x="512" 
d="M103 0v680h41v-644h327v-36h-368z" />
    <glyph glyph-name="M" unicode="M" horiz-adv-x="840" 
d="M103 0v688h10l307 -404l307 404h10v-688h-39v540l2 59c-12.667 -22 -25 -40.667 -37 -56l-239 -314h-11l-236 314l-37 56c1.33301 -23.333 2 -43 2 -59v-540h-39z" />
    <glyph glyph-name="N" unicode="N" horiz-adv-x="719" 
d="M604 -8l-435 564l-31 45c2 -20.667 3 -37.667 3 -51v-550h-38v688h12l435 -564l31 -45c-2 20.667 -3 37.667 -3 51v550h38v-688h-12z" />
    <glyph glyph-name="O" unicode="O" horiz-adv-x="810" 
d="M405 -8c-98 0 -180.5 32.5 -247.5 97.5s-100.5 148.5 -100.5 250.5s33.5 185.5 100.5 250.5s149.5 97.5 247.5 97.5s180.5 -32.5 247.5 -97.5s100.5 -148.5 100.5 -250.5s-33.5 -185.5 -100.5 -250.5s-149.5 -97.5 -247.5 -97.5zM405 29
c87.333 0 160.166 29.667 218.499 89s87.5 133.333 87.5 222s-29.167 162.667 -87.5 222s-131.166 89 -218.499 89s-160.166 -29.667 -218.499 -89s-87.5 -133.333 -87.5 -222s29.167 -162.667 87.5 -222s131.166 -89 218.499 -89z" />
    <glyph glyph-name="P" unicode="P" horiz-adv-x="576" 
d="M103 0v679.999h139c88.667 0 155.667 -22.833 201 -68.5s68 -107.167 68 -184.5c0 -75.333 -22.667 -136.166 -68 -182.499s-112.333 -69.5 -201 -69.5h-98v-175h-41zM144 210.999l94 0.000976562c80.667 0 139.334 19.667 176.001 59s55 91.666 55 156.999
c0 66 -18.333 118.667 -55 158s-95.334 59 -176.001 59h-94v-433z" />
    <glyph glyph-name="Q" unicode="Q" horiz-adv-x="810" 
d="M649 86l106 -111l-29 -26l-107 112c-62 -46 -133.333 -69 -214 -69c-98 0 -180.5 32.5 -247.5 97.5s-100.5 148.5 -100.5 250.5s33.5 185.5 100.5 250.5s149.5 97.5 247.5 97.5s180.5 -32.5 247.5 -97.5s100.5 -148.5 100.5 -250.5c0 -103.333 -34.667 -188 -104 -254z
M592 90l-112 117l29 26l112 -118c60 60 90 135 90 225c0 88.667 -29.167 162.667 -87.5 222s-131.166 89 -218.499 89s-160.166 -29.667 -218.499 -89s-87.5 -133.333 -87.5 -222s29.167 -162.667 87.5 -222s131.166 -89 218.499 -89c71.333 0 133.666 20.333 186.999 61z
" />
    <glyph glyph-name="R" unicode="R" horiz-adv-x="588" 
d="M365 207l151 -206.999h-49l-142 194c-24.667 -6 -53 -9 -85 -9h-96v-185h-41v680h137c88 0 155.167 -23.167 201.5 -69.5s69.5 -105.833 69.5 -178.5c0 -52 -12.333 -97.833 -37 -137.5s-61 -68.834 -109 -87.501zM144 221.001h92c80.667 0 139.667 19.667 177 59
s56 90 56 152s-18.667 112.833 -56 152.5s-96.333 59.5 -177 59.5h-92v-423z" />
    <glyph glyph-name="S" unicode="S" horiz-adv-x="527" 
d="M265 -8c-108 0 -184.001 45.334 -228.001 136.001l35 17c41.333 -78 105.333 -117 192 -117c46 0 84.5 12.5 115.5 37.5s46.5 58.5 46.5 100.5c0 38 -10.833 69.5 -32.5 94.5s-57.167 48.833 -106.5 71.5l-63 29c-50 23.333 -86.167 48 -108.5 74s-33.5 59.667 -33.5 101
c0 46 16 82.833 48 110.5s71.667 41.5 119 41.5c75.333 0 133.333 -32.667 174 -98l-32 -21c-34.667 55.333 -82 83 -142 83c-39.333 0 -70.333 -10.5 -93 -31.5s-34 -48.833 -34 -83.5c0 -33.333 8.83301 -60 26.5 -80s48.167 -40 91.5 -60l63 -29
c56 -25.333 97.167 -53.833 123.5 -85.5s39.5 -70.5 39.5 -116.5c0 -52.667 -18.667 -94.834 -56 -126.501s-85.666 -47.5 -144.999 -47.5z" />
    <glyph glyph-name="T" unicode="T" horiz-adv-x="539" 
d="M249 0v644h-216v36h473v-36h-216v-644h-41z" />
    <glyph glyph-name="U" unicode="U" horiz-adv-x="651" 
d="M325 -8c-68 0 -123.166 20.5 -165.499 61.5s-63.5 98.5 -63.5 172.5v454h41v-451c0 -64 17 -113.5 51 -148.5s79.667 -52.5 137 -52.5s103.166 17.5 137.499 52.5s51.5 84.5 51.5 148.5v451h41v-454c0 -74 -21.5 -131.5 -64.5 -172.5s-98.167 -61.5 -165.5 -61.5z" />
    <glyph glyph-name="V" unicode="V" horiz-adv-x="651" 
d="M320 -8l-276 687.999h44l220 -555l19 -62c6.66699 26.667 13 47.334 19 62.001l220 555h41l-275 -688h-12z" />
    <glyph glyph-name="W" unicode="W" horiz-adv-x="950" 
d="M254 -8l-213 687.998h44l166 -547l11 -50c4 20.667 8.33301 37.334 13 50.001l195 555h12l195 -555l12 -50c4 20.667 8 37.334 12 50.001l166 547h42l-213 -688h-11l-198 564l-11 51c-3.33301 -20 -7.33301 -37 -12 -51l-199 -564h-11z" />
    <glyph glyph-name="X" unicode="X" horiz-adv-x="623" 
d="M51 0l238.001 368l-201 312h47l166 -257l11 -25c5.33301 11.333 9.66602 19.666 12.999 24.999l166 257h44l-201 -311l239 -369h-47l-203 315l-12 25c-4.66699 -11.333 -8.66699 -19.666 -12 -24.999l-204 -315h-44z" />
    <glyph glyph-name="Y" unicode="Y" horiz-adv-x="643" 
d="M301 0v211.999l-257 468h46l217 -394l16 -41c6 16.667 12 30.334 18 41.001l216 394h43l-257 -469v-211h-42z" />
    <glyph glyph-name="Z" unicode="Z" horiz-adv-x="580" 
d="M45 0v10l413 634h-360v36h421v-10l-412 -634h423v-36h-485z" />
    <glyph glyph-name="bracketleft" unicode="[" horiz-adv-x="290" 
d="M83 -128v850h168v-35h-128v-780h128v-35h-168z" />
    <glyph glyph-name="backslash" unicode="\" horiz-adv-x="440" 
d="M370 -128l-311 850h41l311 -850h-41z" />
    <glyph glyph-name="bracketright" unicode="]" horiz-adv-x="290" 
d="M39 -128v35h128v780h-128v35h169v-850h-169z" />
    <glyph glyph-name="asciicircum" unicode="^" horiz-adv-x="407" 
d="M75 471l124 217h9l124 -217h-34l-94 151l-95 -151h-34z" />
    <glyph glyph-name="underscore" unicode="_" horiz-adv-x="244" 
d="M-2 -128v34h248v-34h-248z" />
    <glyph glyph-name="grave" unicode="`" horiz-adv-x="500" 
d="M236 497l-88 195h46l75 -195h-33z" />
    <glyph glyph-name="a" unicode="a" horiz-adv-x="463" 
d="M344 236v20c0 84.667 -36.333 127 -109 127c-58 0 -102.333 -23.333 -133 -70l-28 20c36 56 90 84 162 84c44 0 79.5 -13.333 106.5 -40s40.5 -65.667 40.5 -117v-260h-39l2 63c-31.333 -47.333 -78.333 -71 -141 -71c-47.333 0 -84.833 10.833 -112.5 32.5
s-41.5 52.5 -41.5 92.5c0 38.667 14.333 68.167 43 88.5s64 30.5 106 30.5h144zM344 204h-139c-34 0 -61.667 -7 -83 -21s-32 -35.667 -32 -65c0 -60.667 39.667 -91 119 -91c36 0 67.5 9.66699 94.5 29s40.5 44 40.5 74v74z" />
    <glyph glyph-name="b" unicode="b" horiz-adv-x="551" 
d="M297 -8c-38.667 0 -73.832 10.168 -105.499 30.501s-54.834 46.833 -69.501 79.5l2 -102h-39v722h39v-411c16 32 38.833 57.667 68.5 77s64.5 29 104.5 29c58 0 106.167 -20.333 144.5 -61s57.5 -91 57.5 -151c0 -60.667 -19.167 -111.334 -57.5 -152.001
s-86.5 -61 -144.5 -61zM292.002 27.001c50 0 90.167 16.833 120.5 50.5s45.5 76.167 45.5 127.5s-15.167 93.666 -45.5 126.999s-70.5 50 -120.5 50c-50.667 0 -91.834 -16.667 -123.501 -50s-47.5 -75.666 -47.5 -126.999s15.833 -93.833 47.5 -127.5
s72.834 -50.5 123.501 -50.5z" />
    <glyph glyph-name="c" unicode="c" horiz-adv-x="464" 
d="M259 -8c-58 0 -107.001 20.667 -147.001 62s-60 91.333 -60 150s20 108.834 60 150.501s89 62.5 147 62.5c66 0 117.667 -23 155 -69l-28 -23c-30.667 38 -73 57 -127 57c-49.333 0 -89.333 -16.833 -120 -50.5s-46 -76.167 -46 -127.5
c0 -50.667 15.333 -92.834 46 -126.501s70.667 -50.5 120 -50.5c58 0 103 20.333 135 61l28 -23c-39.333 -48.667 -93.666 -73 -162.999 -73z" />
    <glyph glyph-name="d" unicode="d" horiz-adv-x="551" 
d="M254 -8c-58 0 -106.165 20.332 -144.498 60.999s-57.5 91.334 -57.5 152.001c0 60 19.167 110.333 57.5 151s86.5 61 144.5 61c40 0 74.833 -9.66699 104.5 -29s52.5 -45 68.5 -77v411h39v-722h-39l2 102c-14.667 -32.667 -37.834 -59.167 -69.501 -79.5
s-66.834 -30.5 -105.501 -30.5zM259.002 26.999c50.667 0 91.834 16.833 123.501 50.5s47.5 76.167 47.5 127.5s-15.833 93.666 -47.5 126.999s-72.834 50 -123.501 50c-50 0 -90.167 -16.667 -120.5 -50s-45.5 -75.666 -45.5 -126.999s15.167 -93.833 45.5 -127.5
s70.5 -50.5 120.5 -50.5z" />
    <glyph glyph-name="e" unicode="e" horiz-adv-x="506" 
d="M92 196c1.33301 -50 17.498 -90.668 48.498 -122.001s72.5 -47 124.5 -47c60.667 0 108.334 21.333 143.001 64l26 -23c-40.667 -50.667 -97 -76 -169 -76c-63.333 0 -114.666 20.333 -153.999 61s-59 91 -59 151c0 58.667 19.833 108.834 59.5 150.501
s88.167 62.5 145.5 62.5c60.667 0 109.5 -21 146.5 -63s54.833 -94.667 53.5 -158h-365zM92.998 227.999h323.997c-3.33301 44.667 -18.666 81.667 -45.999 111s-65.333 44 -114 44c-45.333 0 -82.666 -14.5 -111.999 -43.5s-46.666 -66.167 -51.999 -111.5z" />
    <glyph glyph-name="f" unicode="f" horiz-adv-x="285" 
d="M101 0v375.001h-65v33h65v210c0 39.333 8.83301 68.666 26.5 87.999s40.5 29 68.5 29c40.667 0 70.667 -16.667 90 -50l-30 -20c-15.333 23.333 -35 35 -59 35c-38 0 -57 -27.667 -57 -83v-209h109v-33h-109v-375h-39z" />
    <glyph glyph-name="g" unicode="g" horiz-adv-x="462" 
d="M286 408l145.003 0.000976562v-33h-92c29.333 -26 44 -59.333 44 -100c0 -41.333 -14.333 -75.5 -43 -102.5s-65.334 -40.5 -110.001 -40.5c-31.333 0 -58.333 6.33301 -81 19c-15.333 -2.66699 -27.166 -8.33398 -35.499 -17.001s-12.5 -19.334 -12.5 -32.001
c0 -29.333 19.667 -45.666 59 -48.999l106 -10c59.333 -5.33301 102.666 -17.833 129.999 -37.5s41 -48.5 41 -86.5c0 -44 -19.833 -78.667 -59.5 -104s-90.834 -38 -153.501 -38c-62 0 -111.5 11.833 -148.5 35.5s-55.5 56.5 -55.5 98.5c0 55.333 35.333 93.333 106 114
c-40 10.667 -60 35 -60 73c0 16.667 5.16699 31.5 15.5 44.5s23.833 22.167 40.5 27.5c-32 26.667 -48 61.667 -48 105c0 41.333 14.667 75.333 44 102s66.666 40 111.999 40c20 0 38.667 -3 56 -9zM230.003 165.001c35.333 0 63.333 10 84 30s31 46.667 31 80
s-10.333 59.833 -31 79.5s-48.667 29.5 -84 29.5c-36 0 -64.5 -9.83301 -85.5 -29.5s-31.5 -46.167 -31.5 -79.5s10.5 -60 31.5 -80s49.5 -30 85.5 -30zM175.003 14.001c-76.667 -15.333 -114.999 -49.334 -114.999 -102.001c0 -32.667 14 -57.667 42 -75
s68.667 -26 122 -26c51.333 0 93.166 9.33301 125.499 28s48.5 45.334 48.5 80.001c0 28.667 -9.83301 49.667 -29.5 63s-55.5 22 -107.5 26z" />
    <glyph glyph-name="h" unicode="h" horiz-adv-x="509" 
d="M84 0l0.000976562 722.002h39v-401c14 29.333 34.5 52.666 61.5 69.999s58.167 26 93.5 26c46 0 82.833 -14.5 110.5 -43.5s41.5 -68.5 41.5 -118.5v-255h-39v248c0 42.667 -10 75.5 -30 98.5s-49.333 34.5 -88 34.5c-44.667 0 -80.834 -13.833 -108.501 -41.5
s-41.5 -64.834 -41.5 -111.501v-228h-39z" />
    <glyph glyph-name="i" unicode="i" horiz-adv-x="208" 
d="M104 551c-8.66699 0 -16.334 3.16699 -23.001 9.5s-10 14.166 -10 23.499s3.33301 17.166 10 23.499s14.334 9.5 23.001 9.5s16.334 -3.16699 23.001 -9.5s10 -14.166 10 -23.499s-3.33301 -17.166 -10 -23.499s-14.334 -9.5 -23.001 -9.5zM85 0v408h39v-408h-39z" />
    <glyph glyph-name="j" unicode="j" horiz-adv-x="208" 
d="M104 551c-8.66699 0 -16.334 3.16699 -23.001 9.5s-10 14.166 -10 23.499s3.33301 17.166 10 23.499s14.334 9.5 23.001 9.5s16.334 -3.16699 23.001 -9.5s10 -14.166 10 -23.499s-3.33301 -17.166 -10 -23.499s-14.334 -9.5 -23.001 -9.5zM33 -222
c-35.333 0 -63 12 -83 36l24 25c16.667 -18 35.667 -27 57 -27c36 0 54 25.667 54 77v519h39v-520c0 -36 -8.5 -63.333 -25.5 -82s-38.833 -28 -65.5 -28z" />
    <glyph glyph-name="k" unicode="k" horiz-adv-x="449" 
d="M123 127v-127h-39v722h39v-508c0 -9.33301 -1 -24 -3 -44l226 238h46l-164 -173l193 -235h-48l-172 209z" />
    <glyph glyph-name="l" unicode="l" horiz-adv-x="219" 
d="M90 0v722h39v-722h-39z" />
    <glyph glyph-name="m" unicode="m" horiz-adv-x="742" 
d="M84 0l-0.00195312 407.999h39l-1 -83c12.667 28.667 30.667 51.167 54 67.5s50 24.5 80 24.5c33.333 0 61 -8.5 83 -25.5s36.667 -39.5 44 -67.5c14.667 30 34.667 53 60 69s53 24 83 24c41.333 0 74.333 -12.833 99 -38.5s37 -60.834 37 -105.501v-273h-39v266
c0 76.667 -33.667 115 -101 115c-37.333 0 -68.166 -13.167 -92.499 -39.5s-36.5 -62.166 -36.5 -107.499v-234h-39v266c0 76.667 -34 115 -102 115c-37.333 0 -68.166 -13.167 -92.499 -39.5s-36.5 -62.166 -36.5 -107.499v-234h-39z" />
    <glyph glyph-name="n" unicode="n" horiz-adv-x="509" 
d="M84 0l0.00195312 408.001h39l-1 -91c13.333 31.333 33.666 55.833 60.999 73.5s59 26.5 95 26.5c46 0 82.833 -14.5 110.5 -43.5s41.5 -68.5 41.5 -118.5v-255h-39v248c0 42.667 -10 75.5 -30 98.5s-49.333 34.5 -88 34.5c-44.667 0 -80.834 -13.833 -108.501 -41.5
s-41.5 -64.834 -41.5 -111.501v-228h-39z" />
    <glyph glyph-name="o" unicode="o" horiz-adv-x="528" 
d="M265 -8c-59.333 0 -109.666 20.833 -150.999 62.5s-62 91.834 -62 150.501s20.667 108.667 62 150s91.666 62 150.999 62s109.333 -20.667 150 -62s61 -91.333 61 -150s-20.333 -108.834 -61 -150.501s-90.667 -62.5 -150 -62.5zM265 27
c50.667 0 91.834 16.835 123.501 50.502s47.5 76.167 47.5 127.5s-15.833 93.666 -47.5 126.999s-72.834 50 -123.501 50s-92.167 -16.833 -124.5 -50.5s-48.5 -75.834 -48.5 -126.501s16.167 -93 48.5 -127s73.833 -51 124.5 -51z" />
    <glyph glyph-name="p" unicode="p" horiz-adv-x="551" 
d="M85 -212v620.001h39l-2 -100c15.333 32.667 38.333 59 69 79s66 30 106 30c58 0 106.167 -20.333 144.5 -61s57.5 -91 57.5 -151c0 -60.667 -19.167 -111.334 -57.5 -152.001s-86.5 -61 -144.5 -61c-38 0 -72.5 10 -103.5 30s-54.167 45.667 -69.5 77v-311h-39z
M292 27.001c50 0 90.167 16.833 120.5 50.5s45.5 76.167 45.5 127.5s-15.167 93.666 -45.5 126.999s-70.5 50 -120.5 50c-50.667 0 -91.834 -16.667 -123.501 -50s-47.5 -75.666 -47.5 -126.999s15.833 -93.833 47.5 -127.5s72.834 -50.5 123.501 -50.5z" />
    <glyph glyph-name="q" unicode="q" horiz-adv-x="551" 
d="M427 -212v310.999c-15.333 -31.333 -38.5 -57 -69.5 -77s-65.5 -30 -103.5 -30c-58 0 -106.167 20.333 -144.5 61s-57.5 91.334 -57.5 152.001c0 60 19.167 110.333 57.5 151s86.5 61 144.5 61c40 0 75.167 -10 105.5 -30s53.5 -46.333 69.5 -79l-2 100h39v-620h-39z
M259 26.999c50.667 0 91.834 16.833 123.501 50.5s47.5 76.167 47.5 127.5s-15.833 93.666 -47.5 126.999s-72.834 50 -123.501 50c-50 0 -90.167 -16.667 -120.5 -50s-45.5 -75.666 -45.5 -126.999s15.167 -93.833 45.5 -127.5s70.5 -50.5 120.5 -50.5z" />
    <glyph glyph-name="r" unicode="r" horiz-adv-x="340" 
d="M84 0l-0.000976562 408h39l-1 -82c23.333 60 63 90 119 90c30.667 0 55.334 -7 74.001 -21l-19 -32c-15.333 11.333 -35.333 17 -60 17c-31.333 0 -58 -13 -80 -39s-33 -62.333 -33 -109v-232h-39z" />
    <glyph glyph-name="s" unicode="s" horiz-adv-x="405" 
d="M211 -8c-40.667 0 -75.001 9.50293 -103.001 28.5029s-48.333 43.5 -61 73.5l34 15c25.333 -54.667 68.666 -82 129.999 -82c30.667 0 55.334 7.16699 74.001 21.5s28 33.166 28 56.499c0 26 -8.16699 44.667 -24.5 56s-45.833 23.666 -88.5 36.999
c-41.333 12 -72.666 26.167 -93.999 42.5s-32 41.166 -32 74.499c0 29.333 11.667 53.666 35 72.999s52.333 29 87 29c58 0 101.333 -25.667 130 -77l-30 -18c-23.333 40.667 -56.666 61 -99.999 61c-26 0 -46.667 -6.16699 -62 -18.5s-23 -28.166 -23 -47.499
c0 -22.667 7.16699 -39.5 21.5 -50.5s42.166 -22.833 83.499 -35.5c44 -13.333 77.667 -28.833 101 -46.5s35 -43.834 35 -78.501c0 -33.333 -12.5 -60.666 -37.5 -81.999s-59.5 -32 -103.5 -32z" />
    <glyph glyph-name="t" unicode="t" horiz-adv-x="313" 
d="M194 -8c-28 0 -50.668 9.5 -68.001 28.5s-26 48.167 -26 87.5v267h-64v33h64v213h39v-213h118v-33h-118v-266c0 -54.667 18.333 -82 55 -82c24.667 0 46.334 10 65.001 30l25 -24c-24 -27.333 -54 -41 -90 -41z" />
    <glyph glyph-name="u" unicode="u" horiz-adv-x="509" 
d="M232 -9c-46 0 -82.834 14.333 -110.501 43s-41.5 67.667 -41.5 117v257h39v-251c0 -86.667 39 -130 117 -130c44.667 0 80.834 13.833 108.501 41.5s41.5 64.834 41.5 111.501v228h39v-408h-39l1 90c-14 -30.667 -34.5 -54.834 -61.5 -72.501s-58.167 -26.5 -93.5 -26.5z
" />
    <glyph glyph-name="v" unicode="v" horiz-adv-x="448" 
d="M220 -8l-188 416.001h42l135 -306l18 -52c5.33301 21.333 11 38.666 17 51.999l132 306h40l-184 -416h-12z" />
    <glyph glyph-name="w" unicode="w" horiz-adv-x="680" 
d="M190 -8l-158 416.001h42l108 -294l15 -50c4.66699 19.333 10 36 16 50l122 298h9l124 -297l17 -50c4 19.333 8.66699 36 14 50l108 293h40l-158 -416h-10l-124 304l-15 47c-4 -18.667 -8.66699 -34.334 -14 -47.001l-126 -304h-10z" />
    <glyph glyph-name="x" unicode="x" horiz-adv-x="450" 
d="M38 0l164 218l-141 190h47l98 -133l20 -33c5.33301 13.333 11.333 24.333 18 33l100 133h43l-140 -187l165 -221h-47l-121 165l-20 33c-7.33301 -14 -14 -25 -20 -33l-123 -165h-43z" />
    <glyph glyph-name="y" unicode="y" horiz-adv-x="449" 
d="M110 -212l103 242l-181 378h42l143 -302l16 -48c4 18.667 9 34.667 15 48l129 302h40l-267 -620h-40z" />
    <glyph glyph-name="z" unicode="z" horiz-adv-x="406" 
d="M36 0v10l274 364h-246v34h306v-11l-274 -363h274v-34h-334z" />
    <glyph glyph-name="braceleft" unicode="{" horiz-adv-x="345" 
d="M262 -128c-80.667 0 -121 48 -121 144v158c0 26.667 -4.83301 45.167 -14.5 55.5s-24.5 15.5 -44.5 15.5h-57v35h57c20 0 34.833 5.16699 44.5 15.5s14.5 28.833 14.5 55.5v227c0 96 40.333 144 121 144h44v-35h-43c-26.667 0 -47 -8 -61 -24s-21 -44.333 -21 -85v-230
c0 -47.333 -17.333 -75.666 -52 -84.999c34.667 -8.66699 52 -37.334 52 -86.001v-161c0 -40.667 7 -69 21 -85s34.333 -24 61 -24h43v-35h-44z" />
    <glyph glyph-name="bar" unicode="|" horiz-adv-x="218" 
d="M90 -128v850h38v-850h-38z" />
    <glyph glyph-name="braceright" unicode="}" horiz-adv-x="344" 
d="M39 -128v35.001h43c26.667 0 46.834 8 60.501 24s20.5 44.333 20.5 85v161c0 48.667 17.667 77 53 85c-35.333 8 -53 37 -53 87v229c0 40.667 -6.83301 69 -20.5 85s-33.834 24 -60.501 24h-43v35h44c80 0 120 -48 120 -144v-226c0 -26.667 5 -45.334 15 -56.001
s25 -16 45 -16h56v-35h-56c-20 0 -35 -5.16699 -45 -15.5s-15 -28.5 -15 -54.5v-159c0 -96 -40 -144 -120 -144h-44z" />
    <glyph glyph-name="asciitilde" unicode="~" horiz-adv-x="386" 
d="M93 233l-33.999 2.99902c1.33301 30.667 8.66602 54.5 21.999 71.5s31 25.5 53 25.5c13.333 0 25 -2.83301 35 -8.5s22 -15.5 36 -29.5c13.333 -13.333 22.833 -21.666 28.5 -24.999s12.5 -5 20.5 -5c22 0 35 21.667 39 65l34 -3c-3.33301 -64 -28 -96 -74 -96
c-13.333 0 -24.833 3 -34.5 9s-21.834 16 -36.501 30c-13.333 12.667 -22.666 20.667 -27.999 24s-12.333 5 -21 5c-22.667 0 -36 -22 -40 -66z" />
    <glyph glyph-name="nbspace" unicode="&#xa0;" horiz-adv-x="182" 
 />
    <glyph glyph-name="exclamdown" unicode="&#xa1;" horiz-adv-x="224" 
d="M112 687c10 0 18.833 -3.83301 26.5 -11.5s11.5 -16.5 11.5 -26.5c0 -10.667 -3.83301 -19.834 -11.5 -27.501s-16.5 -11.5 -26.5 -11.5s-18.833 3.83301 -26.5 11.5s-11.5 16.834 -11.5 27.501s3.83301 19.667 11.5 27s16.5 11 26.5 11zM127 510l7 -510h-44l7 510h30z
" />
    <glyph glyph-name="cent" unicode="&#xa2;" horiz-adv-x="464" 
d="M236 -7c-52.667 6 -96.498 29.001 -131.498 69.001s-52.5 87.333 -52.5 142s17.5 102.167 52.5 142.5s78.833 63.166 131.5 68.499v108h34v-106c61.333 -2.66699 109.333 -25.667 144 -69l-28 -23c-28 35.333 -66.667 54.333 -116 57v-355
c53.333 2.66699 94.666 23 123.999 61l28 -23c-36.667 -46 -87.334 -70.333 -152.001 -73v-108h-34v109zM236.002 380.001c-43.333 -4.66699 -78 -23.499 -104 -56.499s-39 -72.833 -39 -119.5s13 -86.334 39 -119.001s60.667 -51.667 104 -57v352z" />
    <glyph glyph-name="sterling" unicode="&#xa3;" horiz-adv-x="528" 
d="M187 300l166.999 0.00292969v-33h-154c24.667 -67.333 37.334 -123 38.001 -167c41.333 -33.333 72 -54 92 -62c16 -6.66699 31.667 -10 47 -10c37.333 0 69.333 15 96 45l25 -25c-32.667 -37.333 -73 -56 -121 -56c-43.333 0 -92 23 -146 69
c-8.66699 -20.667 -22.667 -37.334 -42 -50.001s-41.333 -19 -66 -19c-27.333 0 -49.333 7.66699 -66 23s-25 35 -25 59s8.33301 43.5 25 58.5s38.667 22.5 66 22.5c24 0 50.667 -9.33301 80 -28c-3.33301 34 -17.333 80.667 -42 140h-94v33h81
c-25.333 63.333 -38 114.666 -38 153.999c0 46.667 16.667 85.667 50 117s75.333 47 126 47c43.333 0 79.666 -10.167 108.999 -30.5s51.333 -45.833 66 -76.5l-32 -16c-16 29.333 -34.833 51.166 -56.5 65.499s-50.5 21.5 -86.5 21.5
c-41.333 0 -74.166 -11.5 -98.499 -34.5s-36.5 -54.5 -36.5 -94.5c0 -37.333 12 -88.333 36 -153zM201.999 85.0029c-32 26 -58.333 38.999 -79 38.999c-17.333 0 -31 -4.5 -41 -13.5s-15 -21.167 -15 -36.5s5 -27.666 15 -36.999s23.667 -14 41 -14
c19.333 0 36.5 5.83301 51.5 17.5s24.167 26.5 27.5 44.5z" />
    <glyph glyph-name="currency" unicode="&#xa4;" horiz-adv-x="632" 
d="M127 287h-80.002v33h87c14.667 54.667 44.334 98.834 89.001 132.501s95.667 50.5 153 50.5c84 0 149 -32 195 -96l-30 -23c-39.333 55.333 -94.333 83 -165 83c-48.667 0 -90.834 -13.333 -126.501 -40s-60.167 -62.334 -73.5 -107.001h259v-33h-266
c-2 -12.667 -3 -26 -3 -40c0 -15.333 1 -29.333 3 -42h266v-33h-258c14 -44 38.833 -79 74.5 -105s77.167 -39 124.5 -39c74.667 0 131 28.667 169 86l32 -21c-42.667 -67.333 -109.667 -101 -201 -101c-57.333 0 -108.166 16.5 -152.499 49.5s-74.166 76.5 -89.499 130.5
h-87v33h80c-2 14 -3 28 -3 42s1 27.333 3 40z" />
    <glyph glyph-name="yen" unicode="&#xa5;" horiz-adv-x="551" 
d="M255 0v122.999h-192v33h190l-50 84h-140v33h120l-134 222h45l161 -269c4 -6.66699 7.83301 -14.167 11.5 -22.5s6.16699 -15.166 7.5 -20.499l3 -8c6 19.333 13.333 36.333 22 51l160 269h43l-135 -222h121v-33h-140l-51 -84h191v-33h-192v-123h-41z" />
    <glyph glyph-name="brokenbar" unicode="&#xa6;" 
d="M90 197c-10 0 -19.167 4 -27.5 12s-12.5 17.333 -12.5 28c0 11.333 4 20.833 12 28.5s17.333 11.5 28 11.5s20 -3.83301 28 -11.5s12 -17.167 12 -28.5c0 -10.667 -4 -20 -12 -28s-17.333 -12 -28 -12z" />
    <glyph glyph-name="section" unicode="&#xa7;" horiz-adv-x="481" 
d="M110 419c-10 20 -15 41.665 -15 64.998c0 39.333 14 71.5 42 96.5s63.667 37.5 107 37.5c72.667 0 123.334 -33.333 152.001 -100l-34 -15c-24.667 53.333 -64 80 -118 80c-32.667 0 -59 -8.66699 -79 -26s-30 -41.333 -30 -72c0 -26.667 6.66699 -48.167 20 -64.5
s35.666 -31.166 66.999 -44.499l96 -39c46 -18.667 79 -39.334 99 -62.001s30 -49.334 30 -80.001c0 -22 -7 -41.5 -21 -58.5s-32.667 -30.167 -56 -39.5c14.667 -20 22 -43 22 -69c0 -38.667 -13.5 -70.167 -40.5 -94.5s-64.5 -36.5 -112.5 -36.5
c-41.333 0 -77.5 9.83301 -108.5 29.5s-54.5 45.834 -70.5 78.501l34 16c29.333 -59.333 77.666 -89 144.999 -89c34.667 0 62.167 8.83301 82.5 26.5s30.5 40.834 30.5 69.501c0 24.667 -8 44.834 -24 60.501s-42 30.5 -78 44.5l-87 34c-45.333 18 -78.166 38 -98.499 60
s-30.5 50 -30.5 84c0 48 25.333 84 76 108zM349 120.998c39.333 14 59.001 37.998 59.001 71.998c0 24.667 -7.16699 44.667 -21.5 60s-41.5 31 -81.5 47l-96 39c-36.667 14.667 -64.334 33.334 -83.001 56.001c-34.667 -16.667 -52 -44 -52 -82
c0 -26.667 7.33301 -47.667 22 -63s41 -30.666 79 -45.999l87 -34c36.667 -14 65.667 -30.333 87 -49z" />
    <glyph glyph-name="dieresis" unicode="&#xa8;" horiz-adv-x="500" 
d="M326 521c-8.66699 0 -16.167 3.16699 -22.5 9.5s-9.5 13.833 -9.5 22.5s3.16699 16.167 9.5 22.5s13.833 9.5 22.5 9.5s16.167 -3.16699 22.5 -9.5s9.5 -13.833 9.5 -22.5s-3.16699 -16.167 -9.5 -22.5s-13.833 -9.5 -22.5 -9.5zM174 521
c-8.66699 0 -16.167 3.16699 -22.5 9.5s-9.5 13.833 -9.5 22.5s3.16699 16.167 9.5 22.5s13.833 9.5 22.5 9.5s16.167 -3.16699 22.5 -9.5s9.5 -13.833 9.5 -22.5s-3.16699 -16.167 -9.5 -22.5s-13.833 -9.5 -22.5 -9.5z" />
    <glyph glyph-name="copyright" unicode="&#xa9;" horiz-adv-x="600" 
d="M300 -8c-70.667 0 -131 24.5 -181 73.5s-75 109.5 -75 181.5c0 73.333 25 134.333 75 183s110.333 73 181 73s131 -24.333 181 -73s75 -109.667 75 -183c0 -72 -25 -132.5 -75 -181.5s-110.333 -73.5 -181 -73.5zM300 23c63.333 0 116.333 21.333 159 64s64 96 64 160
c0 64.667 -21.333 118.334 -64 161.001s-95.667 64 -159 64s-116.333 -21.333 -159 -64s-64 -96.334 -64 -161.001c0 -64 21.333 -117.333 64 -160s95.667 -64 159 -64zM302 97c-40 0 -73.999 14.5 -101.999 43.5s-42 64.5 -42 106.5c0 42.667 14 78.5 42 107.5
s62 43.5 102 43.5c43.333 0 80 -16.667 110 -50l-27 -25c-20.667 26.667 -48 40 -82 40c-30.667 0 -55.834 -11 -75.501 -33s-29.5 -49.667 -29.5 -83c0 -32.667 9.83301 -60 29.5 -82s44.5 -33 74.5 -33c34 0 63 14.333 87 43l27 -25c-30.667 -35.333 -68.667 -53 -114 -53
z" />
    <glyph glyph-name="ordfeminine" unicode="&#xaa;" horiz-adv-x="390" 
d="M295 354l0.000976562 4.99902c0 42 -7.83301 71 -23.5 87s-38.834 24 -69.501 24c-45.333 0 -82.333 -19.333 -111 -58l-25 19c30 48 75.333 72 136 72c40 0 71.833 -11.167 95.5 -33.5s35.5 -57.833 35.5 -106.5v-213h-38v47c-25.333 -36.667 -65 -55 -119 -55
c-39.333 0 -71.333 9.33301 -96 28s-37 45.334 -37 80.001c0 34 13 59.833 39 77.5s58.333 26.5 97 26.5h116zM295.001 321.999l-111 0.000976562c-68 0 -102 -24 -102 -72c0 -50 33.333 -75 100 -75c31.333 0 58 7.66699 80 23s33 37.666 33 66.999v57z" />
    <glyph glyph-name="guillemotleft" unicode="&#xab;" horiz-adv-x="347" 
d="M261 40l-93 154v8l93 154h45l-95 -158l95 -158h-45zM134 40l-93 154v8l93 154h45l-95 -158l95 -158h-45z" />
    <glyph glyph-name="logicalnot" unicode="&#xac;" 
d="M90 197c-10 0 -19.167 4 -27.5 12s-12.5 17.333 -12.5 28c0 11.333 4 20.833 12 28.5s17.333 11.5 28 11.5s20 -3.83301 28 -11.5s12 -17.167 12 -28.5c0 -10.667 -4 -20 -12 -28s-17.333 -12 -28 -12z" />
    <glyph glyph-name="registered" unicode="&#xae;" horiz-adv-x="519" 
d="M258 270c-60 0 -111 20.333 -153 61s-63 91.334 -63 152.001s21 111.5 63 152.5s93 61.5 153 61.5c60.667 0 112.334 -20.5 155.001 -61.5s64 -91.833 64 -152.5s-21.333 -111.334 -64 -152.001s-94.334 -61 -155.001 -61zM258 299c54 0 98.333 17.167 133 51.5
s52 78.5 52 132.5c0 54.667 -17.333 99.167 -52 133.5s-79 51.5 -133 51.5c-52.667 0 -96 -17.167 -130 -51.5s-51 -78.833 -51 -133.5c0 -54 17 -98.167 51 -132.5s77.333 -51.5 130 -51.5zM302 433l51.999 -71h-39l-45 62c-9.33301 -1.33301 -16.666 -2 -21.999 -2h-31
v-60h-33v246h64c35.333 0 61.833 -8.83301 79.5 -26.5s26.5 -40.5 26.5 -68.5c0 -38 -17.333 -64.667 -52 -80zM216.999 449h29c49.333 0 74 21.333 74 64c0 45.333 -24.667 68 -74 68h-29v-132z" />
    <glyph glyph-name="macron" unicode="&#xaf;" horiz-adv-x="500" 
d="M153 510v34h194v-34h-194z" />
    <glyph glyph-name="macron" unicode="&#x2c9;" horiz-adv-x="500" 
d="M153 510v34h194v-34h-194z" />
    <glyph glyph-name="degree" unicode="&#xb0;" horiz-adv-x="322" 
d="M161 294c-29.333 0 -54.333 10.167 -75 30.5s-31 44.833 -31 73.5c0 29.333 10.333 54.166 31 74.499s45.667 30.5 75 30.5s54.333 -10.167 75 -30.5s31 -45.166 31 -74.499c0 -28.667 -10.333 -53.167 -31 -73.5s-45.667 -30.5 -75 -30.5zM161 324
c21.333 0 38.5 7 51.5 21s19.5 31.667 19.5 53c0 22 -6.5 40 -19.5 54s-30.167 21 -51.5 21s-38.666 -7 -51.999 -21s-20 -32 -20 -54c0 -21.333 6.66699 -39 20 -53s30.666 -21 51.999 -21z" />
    <glyph glyph-name="twosuperior" unicode="&#xb2;" 
d="M90 197c-10 0 -19.167 4 -27.5 12s-12.5 17.333 -12.5 28c0 11.333 4 20.833 12 28.5s17.333 11.5 28 11.5s20 -3.83301 28 -11.5s12 -17.167 12 -28.5c0 -10.667 -4 -20 -12 -28s-17.333 -12 -28 -12z" />
    <glyph glyph-name="threesuperior" unicode="&#xb3;" 
d="M90 197c-10 0 -19.167 4 -27.5 12s-12.5 17.333 -12.5 28c0 11.333 4 20.833 12 28.5s17.333 11.5 28 11.5s20 -3.83301 28 -11.5s12 -17.167 12 -28.5c0 -10.667 -4 -20 -12 -28s-17.333 -12 -28 -12z" />
    <glyph glyph-name="acute" unicode="&#xb4;" horiz-adv-x="500" 
d="M231 497l75 195h46l-88 -195h-33z" />
    <glyph glyph-name="mu" unicode="&#xb5;" 
d="M90 197c-10 0 -19.167 4 -27.5 12s-12.5 17.333 -12.5 28c0 11.333 4 20.833 12 28.5s17.333 11.5 28 11.5s20 -3.83301 28 -11.5s12 -17.167 12 -28.5c0 -10.667 -4 -20 -12 -28s-17.333 -12 -28 -12z" />
    <glyph glyph-name="mu" unicode="&#x3bc;" 
d="M90 197c-10 0 -19.167 4 -27.5 12s-12.5 17.333 -12.5 28c0 11.333 4 20.833 12 28.5s17.333 11.5 28 11.5s20 -3.83301 28 -11.5s12 -17.167 12 -28.5c0 -10.667 -4 -20 -12 -28s-17.333 -12 -28 -12z" />
    <glyph glyph-name="paragraph" unicode="&#xb6;" horiz-adv-x="586" 
d="M316 0v332.002h-80c-52.667 0 -95.167 16.667 -127.5 50s-48.5 74.666 -48.5 123.999s16.167 90.666 48.5 123.999s74.833 50 127.5 50h247v-680h-40v644h-86v-644h-41zM236 368.002l80 0.00195312v276h-80c-42 0 -74.667 -12.833 -98 -38.5s-35 -58.834 -35 -99.501
s11.667 -73.834 35 -99.501s56 -38.5 98 -38.5z" />
    <glyph glyph-name="periodcentered" unicode="&#xb7;" 
d="M90 197c-10 0 -19.167 4 -27.5 12s-12.5 17.333 -12.5 28c0 11.333 4 20.833 12 28.5s17.333 11.5 28 11.5s20 -3.83301 28 -11.5s12 -17.167 12 -28.5c0 -10.667 -4 -20 -12 -28s-17.333 -12 -28 -12z" />
    <glyph glyph-name="periodcentered" unicode="&#x2219;" 
d="M90 197c-10 0 -19.167 4 -27.5 12s-12.5 17.333 -12.5 28c0 11.333 4 20.833 12 28.5s17.333 11.5 28 11.5s20 -3.83301 28 -11.5s12 -17.167 12 -28.5c0 -10.667 -4 -20 -12 -28s-17.333 -12 -28 -12z" />
    <glyph glyph-name="cedilla" unicode="&#xb8;" horiz-adv-x="500" 
d="M255 -228c-45.333 0 -76.666 19.332 -93.999 57.999l30 18c14 -28.667 35 -43 63 -43c14.667 0 27 4.66699 37 14s15 22 15 38s-5.16699 29.167 -15.5 39.5s-25.833 15.5 -46.5 15.5h-15v88h36v-59c22 -2.66699 40.833 -11.667 56.5 -27s23.5 -34.666 23.5 -57.999
c0 -26 -8.83301 -46.5 -26.5 -61.5s-38.834 -22.5 -63.501 -22.5z" />
    <glyph glyph-name="onesuperior" unicode="&#xb9;" 
d="M90 197c-10 0 -19.167 4 -27.5 12s-12.5 17.333 -12.5 28c0 11.333 4 20.833 12 28.5s17.333 11.5 28 11.5s20 -3.83301 28 -11.5s12 -17.167 12 -28.5c0 -10.667 -4 -20 -12 -28s-17.333 -12 -28 -12z" />
    <glyph glyph-name="ordmasculine" unicode="&#xba;" horiz-adv-x="442" 
d="M221 143c-49.333 0 -91.333 17.167 -126 51.5s-52 77.166 -52 128.499c0 50.667 17.333 93.334 52 128.001s76.667 52 126 52s91.333 -17.333 126 -52s52 -77.334 52 -128.001c0 -51.333 -17.333 -94.166 -52 -128.499s-76.667 -51.5 -126 -51.5zM221 176
c40.667 0 74 13.833 100 41.5s39 62.834 39 105.501s-13 77.834 -39 105.501s-59.333 41.5 -100 41.5s-74 -13.833 -100 -41.5s-39 -62.834 -39 -105.501s13 -77.834 39 -105.501s59.333 -41.5 100 -41.5z" />
    <glyph glyph-name="guillemotright" unicode="&#xbb;" horiz-adv-x="347" 
d="M168 40l95 158l-95 158h45l93 -154v-8l-93 -154h-45zM41 40l95 158l-95 158h45l93 -154v-8l-93 -154h-45z" />
    <glyph glyph-name="onequarter" unicode="&#xbc;" 
d="M90 197c-10 0 -19.167 4 -27.5 12s-12.5 17.333 -12.5 28c0 11.333 4 20.833 12 28.5s17.333 11.5 28 11.5s20 -3.83301 28 -11.5s12 -17.167 12 -28.5c0 -10.667 -4 -20 -12 -28s-17.333 -12 -28 -12z" />
    <glyph glyph-name="onehalf" unicode="&#xbd;" 
d="M90 197c-10 0 -19.167 4 -27.5 12s-12.5 17.333 -12.5 28c0 11.333 4 20.833 12 28.5s17.333 11.5 28 11.5s20 -3.83301 28 -11.5s12 -17.167 12 -28.5c0 -10.667 -4 -20 -12 -28s-17.333 -12 -28 -12z" />
    <glyph glyph-name="threequarters" unicode="&#xbe;" 
d="M90 197c-10 0 -19.167 4 -27.5 12s-12.5 17.333 -12.5 28c0 11.333 4 20.833 12 28.5s17.333 11.5 28 11.5s20 -3.83301 28 -11.5s12 -17.167 12 -28.5c0 -10.667 -4 -20 -12 -28s-17.333 -12 -28 -12z" />
    <glyph glyph-name="questiondown" unicode="&#xbf;" horiz-adv-x="449" 
d="M257 687c10 0 18.833 -3.83301 26.5 -11.5s11.5 -16.5 11.5 -26.5c0 -10.667 -3.83301 -19.834 -11.5 -27.501s-16.5 -11.5 -26.5 -11.5s-18.833 3.83301 -26.5 11.5s-11.5 16.834 -11.5 27.501s3.83301 19.667 11.5 27s16.5 11 26.5 11zM275 514l0.000976562 -185h-27
c-45.333 0 -82.333 -14.5 -111 -43.5s-43 -64.833 -43 -107.5c0 -47.333 13.333 -84 40 -110s61.667 -39 105 -39c36.667 0 67 7.83301 91 23.5s44.333 41.5 61 77.5l34 -17c-15.333 -38.667 -39.333 -68.5 -72 -89.5s-70.667 -31.5 -114 -31.5
c-54.667 0 -99.334 16.5 -134.001 49.5s-52 78.5 -52 136.5c0 52 17.5 95.333 52.5 130s78.833 53 131.5 55v151h38z" />
    <glyph glyph-name="Agrave" unicode="&#xc0;" horiz-adv-x="651" 
d="M308 755l-88 195h46l75 -195h-33zM44 0l275 688h12l276 -688h-42l-52 132h-376l-52 -132h-41zM151 168h347.001l-153 388l-20 62c-6.66699 -25.333 -13.334 -46 -20.001 -62z" />
    <glyph glyph-name="Aacute" unicode="&#xc1;" horiz-adv-x="651" 
d="M310 755l75 195h46l-88 -195h-33zM44 0l275 688h12l276 -688h-42l-52 132h-376l-52 -132h-41zM151 168h347.001l-153 388l-20 62c-6.66699 -25.333 -13.334 -46 -20.001 -62z" />
    <glyph glyph-name="Acircumflex" unicode="&#xc2;" horiz-adv-x="651" 
d="M207 752l113 182h9l113 -182h-35l-82 119l-83 -119h-35zM44 0l275 688h12l276 -688h-42l-52 132h-376l-52 -132h-41zM151 168h347.001l-153 388l-20 62c-6.66699 -25.333 -13.334 -46 -20.001 -62z" />
    <glyph glyph-name="Atilde" unicode="&#xc3;" horiz-adv-x="651" 
d="M225 747l-33.999 2.99902c1.33301 30.667 8.66602 54.5 21.999 71.5s31 25.5 53 25.5c13.333 0 25 -2.83301 35 -8.5s22 -15.5 36 -29.5c13.333 -13.333 22.833 -21.666 28.5 -24.999s12.5 -5 20.5 -5c22 0 35 21.667 39 65l34 -3c-3.33301 -64 -28 -96 -74 -96
c-13.333 0 -24.833 3 -34.5 9s-21.834 16 -36.501 30c-13.333 12.667 -22.666 20.667 -27.999 24s-12.333 5 -21 5c-22.667 0 -36 -22 -40 -66zM44.001 -0.000976562l275 688h12l276 -688h-42l-52 132h-376l-52 -132h-41zM151.001 167.999h347.001l-153 388l-20 62
c-6.66699 -25.333 -13.334 -46 -20.001 -62z" />
    <glyph glyph-name="Adieresis" unicode="&#xc4;" horiz-adv-x="651" 
d="M401 779c-8.66699 0 -16.167 3.16699 -22.5 9.5s-9.5 13.833 -9.5 22.5s3.16699 16.167 9.5 22.5s13.833 9.5 22.5 9.5s16.167 -3.16699 22.5 -9.5s9.5 -13.833 9.5 -22.5s-3.16699 -16.167 -9.5 -22.5s-13.833 -9.5 -22.5 -9.5zM249 779
c-8.66699 0 -16.167 3.16699 -22.5 9.5s-9.5 13.833 -9.5 22.5s3.16699 16.167 9.5 22.5s13.833 9.5 22.5 9.5s16.167 -3.16699 22.5 -9.5s9.5 -13.833 9.5 -22.5s-3.16699 -16.167 -9.5 -22.5s-13.833 -9.5 -22.5 -9.5zM44 0l275 688h12l276 -688h-42l-52 132h-376
l-52 -132h-41zM151 168h347.001l-153 388l-20 62c-6.66699 -25.333 -13.334 -46 -20.001 -62z" />
    <glyph glyph-name="Aring" unicode="&#xc5;" horiz-adv-x="651" 
d="M325 728c-26 0 -48.167 9 -66.5 27s-27.5 39.667 -27.5 65s9.16699 47 27.5 65s40.5 27 66.5 27s48.167 -9 66.5 -27s27.5 -39.667 27.5 -65s-9.16699 -47 -27.5 -65s-40.5 -27 -66.5 -27zM44 0l275 688h12l276 -688h-42l-52 132h-376l-52 -132h-41zM325 759
c17.333 0 31.333 5.5 42 16.5s16 25.833 16 44.5s-5.33301 33.5 -16 44.5s-24.667 16.5 -42 16.5s-31.333 -5.5 -42 -16.5s-16 -25.833 -16 -44.5s5.33301 -33.5 16 -44.5s24.667 -16.5 42 -16.5zM151 168h347.001l-153 388l-20 62
c-6.66699 -25.333 -13.334 -46 -20.001 -62z" />
    <glyph glyph-name="AE" unicode="&#xc6;" horiz-adv-x="936" 
d="M32 0l448 680h383v-36h-356v-364h319v-36h-319v-208h370v-36h-411v132h-302l-87 -132h-45zM188 168h277.999v362l5 79c-13.333 -26.667 -26.666 -50 -39.999 -70z" />
    <glyph glyph-name="Ccedilla" unicode="&#xc7;" horiz-adv-x="731" 
d="M361 -6c-87.333 10 -159.833 46.832 -217.5 110.499s-86.5 142.167 -86.5 235.5c0 102 33.5 185.5 100.5 250.5s149.5 97.5 247.5 97.5c120.667 0 210.667 -43 270 -129l-31 -23c-54 76.667 -133.667 115 -239 115c-87.333 0 -160.166 -29.667 -218.499 -89
s-87.5 -133.333 -87.5 -222s29.167 -162.667 87.5 -222s131.166 -89 218.499 -89c108 0 190.333 40.333 247 121l31 -22c-30 -43.333 -69.167 -76.833 -117.5 -100.5s-101.833 -35.5 -160.5 -35.5h-8v-51c22 -2.66699 40.833 -11.667 56.5 -27s23.5 -34.666 23.5 -57.999
c0 -26 -8.83301 -46.5 -26.5 -61.5s-38.834 -22.5 -63.501 -22.5c-45.333 0 -76.666 19.333 -93.999 58l30 18c14 -28.667 35 -43 63 -43c14.667 0 27 4.66699 37 14s15 22 15 38s-5.16699 29.167 -15.5 39.5s-25.833 15.5 -46.5 15.5h-15v82z" />
    <glyph glyph-name="Egrave" unicode="&#xc8;" horiz-adv-x="573" 
d="M292 755l-88 195h46l75 -195h-33zM103 0v680h397v-36h-356v-364h319v-36h-319v-208h370v-36h-411z" />
    <glyph glyph-name="Eacute" unicode="&#xc9;" horiz-adv-x="573" 
d="M280 755l75 195h46l-88 -195h-33zM103 0v680h397v-36h-356v-364h319v-36h-319v-208h370v-36h-411z" />
    <glyph glyph-name="Ecircumflex" unicode="&#xca;" horiz-adv-x="573" 
d="M189 752l113 182h9l113 -182h-35l-82 119l-83 -119h-35zM103 0v680h397v-36h-356v-364h319v-36h-319v-208h370v-36h-411z" />
    <glyph glyph-name="Edieresis" unicode="&#xcb;" horiz-adv-x="573" 
d="M382 779c-8.66699 0 -16.167 3.16699 -22.5 9.5s-9.5 13.833 -9.5 22.5s3.16699 16.167 9.5 22.5s13.833 9.5 22.5 9.5s16.167 -3.16699 22.5 -9.5s9.5 -13.833 9.5 -22.5s-3.16699 -16.167 -9.5 -22.5s-13.833 -9.5 -22.5 -9.5zM230 779
c-8.66699 0 -16.167 3.16699 -22.5 9.5s-9.5 13.833 -9.5 22.5s3.16699 16.167 9.5 22.5s13.833 9.5 22.5 9.5s16.167 -3.16699 22.5 -9.5s9.5 -13.833 9.5 -22.5s-3.16699 -16.167 -9.5 -22.5s-13.833 -9.5 -22.5 -9.5zM103 0v680h397v-36h-356v-364h319v-36h-319v-208h370
v-36h-411z" />
    <glyph glyph-name="Igrave" unicode="&#xcc;" horiz-adv-x="255" 
d="M109 755l-88 195h46l75 -195h-33zM107 0v680h41v-680h-41z" />
    <glyph glyph-name="Iacute" unicode="&#xcd;" horiz-adv-x="255" 
d="M112 755l75 195h46l-88 -195h-33zM107 0v680h41v-680h-41z" />
    <glyph glyph-name="Icircumflex" unicode="&#xce;" horiz-adv-x="255" 
d="M9 752l113 182h9l113 -182h-35l-82 119l-83 -119h-35zM107 0v680h41v-680h-41z" />
    <glyph glyph-name="Idieresis" unicode="&#xcf;" horiz-adv-x="255" 
d="M203 779c-8.66699 0 -16.167 3.16699 -22.5 9.5s-9.5 13.833 -9.5 22.5s3.16699 16.167 9.5 22.5s13.833 9.5 22.5 9.5s16.167 -3.16699 22.5 -9.5s9.5 -13.833 9.5 -22.5s-3.16699 -16.167 -9.5 -22.5s-13.833 -9.5 -22.5 -9.5zM51 779
c-8.66699 0 -16.167 3.16699 -22.5 9.5s-9.5 13.833 -9.5 22.5s3.16699 16.167 9.5 22.5s13.833 9.5 22.5 9.5s16.167 -3.16699 22.5 -9.5s9.5 -13.833 9.5 -22.5s-3.16699 -16.167 -9.5 -22.5s-13.833 -9.5 -22.5 -9.5zM107 0v680h41v-680h-41z" />
    <glyph glyph-name="Eth" unicode="&#xd0;" horiz-adv-x="677" 
d="M103 0l0.000976562 244h-88v36h88v400h157c111.333 0 199.166 -31.167 263.499 -93.5s96.5 -144.5 96.5 -246.5s-32 -184.167 -96 -246.5s-152 -93.5 -264 -93.5h-157zM144.001 37h111c104.667 0 184.5 27.5 239.5 82.5s82.5 128.5 82.5 220.5s-27.5 165.5 -82.5 220.5
s-134.833 82.5 -239.5 82.5h-111v-363h198v-36h-198v-207z" />
    <glyph glyph-name="Ntilde" unicode="&#xd1;" horiz-adv-x="719" 
d="M259 747l-33.999 2.99902c1.33301 30.667 8.66602 54.5 21.999 71.5s31 25.5 53 25.5c13.333 0 25 -2.83301 35 -8.5s22 -15.5 36 -29.5c13.333 -13.333 22.833 -21.666 28.5 -24.999s12.5 -5 20.5 -5c22 0 35 21.667 39 65l34 -3c-3.33301 -64 -28 -96 -74 -96
c-13.333 0 -24.833 3 -34.5 9s-21.834 16 -36.501 30c-13.333 12.667 -22.666 20.667 -27.999 24s-12.333 5 -21 5c-22.667 0 -36 -22 -40 -66zM604.001 -8.00098l-435 564l-31 45c2 -20.667 3 -37.667 3 -51v-550h-38v688h12l435 -564l31 -45c-2 20.667 -3 37.667 -3 51
v550h38v-688h-12z" />
    <glyph glyph-name="Ograve" unicode="&#xd2;" horiz-adv-x="810" 
d="M391 755l-88 195h46l75 -195h-33zM405 -8c-98 0 -180.5 32.5 -247.5 97.5s-100.5 148.5 -100.5 250.5s33.5 185.5 100.5 250.5s149.5 97.5 247.5 97.5s180.5 -32.5 247.5 -97.5s100.5 -148.5 100.5 -250.5s-33.5 -185.5 -100.5 -250.5s-149.5 -97.5 -247.5 -97.5zM405 29
c87.333 0 160.166 29.667 218.499 89s87.5 133.333 87.5 222s-29.167 162.667 -87.5 222s-131.166 89 -218.499 89s-160.166 -29.667 -218.499 -89s-87.5 -133.333 -87.5 -222s29.167 -162.667 87.5 -222s131.166 -89 218.499 -89z" />
    <glyph glyph-name="Oacute" unicode="&#xd3;" horiz-adv-x="810" 
d="M386 755l75 195h46l-88 -195h-33zM405 -8c-98 0 -180.5 32.5 -247.5 97.5s-100.5 148.5 -100.5 250.5s33.5 185.5 100.5 250.5s149.5 97.5 247.5 97.5s180.5 -32.5 247.5 -97.5s100.5 -148.5 100.5 -250.5s-33.5 -185.5 -100.5 -250.5s-149.5 -97.5 -247.5 -97.5zM405 29
c87.333 0 160.166 29.667 218.499 89s87.5 133.333 87.5 222s-29.167 162.667 -87.5 222s-131.166 89 -218.499 89s-160.166 -29.667 -218.499 -89s-87.5 -133.333 -87.5 -222s29.167 -162.667 87.5 -222s131.166 -89 218.499 -89z" />
    <glyph glyph-name="Ocircumflex" unicode="&#xd4;" horiz-adv-x="810" 
d="M287 752l113 182h9l113 -182h-35l-82 119l-83 -119h-35zM405 -8c-98 0 -180.5 32.5 -247.5 97.5s-100.5 148.5 -100.5 250.5s33.5 185.5 100.5 250.5s149.5 97.5 247.5 97.5s180.5 -32.5 247.5 -97.5s100.5 -148.5 100.5 -250.5s-33.5 -185.5 -100.5 -250.5
s-149.5 -97.5 -247.5 -97.5zM405 29c87.333 0 160.166 29.667 218.499 89s87.5 133.333 87.5 222s-29.167 162.667 -87.5 222s-131.166 89 -218.499 89s-160.166 -29.667 -218.499 -89s-87.5 -133.333 -87.5 -222s29.167 -162.667 87.5 -222s131.166 -89 218.499 -89z" />
    <glyph glyph-name="Otilde" unicode="&#xd5;" horiz-adv-x="810" 
d="M305 747l-33.999 2.99902c1.33301 30.667 8.66602 54.5 21.999 71.5s31 25.5 53 25.5c13.333 0 25 -2.83301 35 -8.5s22 -15.5 36 -29.5c13.333 -13.333 22.833 -21.666 28.5 -24.999s12.5 -5 20.5 -5c22 0 35 21.667 39 65l34 -3c-3.33301 -64 -28 -96 -74 -96
c-13.333 0 -24.833 3 -34.5 9s-21.834 16 -36.501 30c-13.333 12.667 -22.666 20.667 -27.999 24s-12.333 5 -21 5c-22.667 0 -36 -22 -40 -66zM405.001 -8.00098c-98 0 -180.5 32.5 -247.5 97.5s-100.5 148.5 -100.5 250.5s33.5 185.5 100.5 250.5s149.5 97.5 247.5 97.5
s180.5 -32.5 247.5 -97.5s100.5 -148.5 100.5 -250.5s-33.5 -185.5 -100.5 -250.5s-149.5 -97.5 -247.5 -97.5zM405.001 28.999c87.333 0 160.166 29.667 218.499 89s87.5 133.333 87.5 222s-29.167 162.667 -87.5 222s-131.166 89 -218.499 89
s-160.166 -29.667 -218.499 -89s-87.5 -133.333 -87.5 -222s29.167 -162.667 87.5 -222s131.166 -89 218.499 -89z" />
    <glyph glyph-name="Odieresis" unicode="&#xd6;" horiz-adv-x="810" 
d="M481 779c-8.66699 0 -16.167 3.16699 -22.5 9.5s-9.5 13.833 -9.5 22.5s3.16699 16.167 9.5 22.5s13.833 9.5 22.5 9.5s16.167 -3.16699 22.5 -9.5s9.5 -13.833 9.5 -22.5s-3.16699 -16.167 -9.5 -22.5s-13.833 -9.5 -22.5 -9.5zM329 779
c-8.66699 0 -16.167 3.16699 -22.5 9.5s-9.5 13.833 -9.5 22.5s3.16699 16.167 9.5 22.5s13.833 9.5 22.5 9.5s16.167 -3.16699 22.5 -9.5s9.5 -13.833 9.5 -22.5s-3.16699 -16.167 -9.5 -22.5s-13.833 -9.5 -22.5 -9.5zM405 -8c-98 0 -180.5 32.5 -247.5 97.5
s-100.5 148.5 -100.5 250.5s33.5 185.5 100.5 250.5s149.5 97.5 247.5 97.5s180.5 -32.5 247.5 -97.5s100.5 -148.5 100.5 -250.5s-33.5 -185.5 -100.5 -250.5s-149.5 -97.5 -247.5 -97.5zM405 29c87.333 0 160.166 29.667 218.499 89s87.5 133.333 87.5 222
s-29.167 162.667 -87.5 222s-131.166 89 -218.499 89s-160.166 -29.667 -218.499 -89s-87.5 -133.333 -87.5 -222s29.167 -162.667 87.5 -222s131.166 -89 218.499 -89z" />
    <glyph glyph-name="multiply" unicode="&#xd7;" 
d="M90 197c-10 0 -19.167 4 -27.5 12s-12.5 17.333 -12.5 28c0 11.333 4 20.833 12 28.5s17.333 11.5 28 11.5s20 -3.83301 28 -11.5s12 -17.167 12 -28.5c0 -10.667 -4 -20 -12 -28s-17.333 -12 -28 -12z" />
    <glyph glyph-name="Oslash" unicode="&#xd8;" horiz-adv-x="810" 
d="M84 -10l-25 24l88 89c-60 65.333 -90 144.333 -90 237c0 99.333 33.667 182.166 101 248.499s149.666 99.5 246.999 99.5c90 0 167.667 -29 233 -87l87 88l25 -24l-87 -88c60 -65.333 90 -144.333 90 -237c0 -99.333 -33.667 -182.166 -101 -248.499
s-149.666 -99.5 -246.999 -99.5c-91.333 0 -169 29 -233 87zM174 131l437 443c-56.667 51.333 -125.334 77 -206.001 77c-87.333 0 -160.166 -29.667 -218.499 -89s-87.5 -133.333 -87.5 -222c0 -82 25 -151.667 75 -209zM405 29c87.333 0 160.167 29.667 218.5 89
s87.5 133.333 87.5 222c0 82 -25 151.667 -75 209l-438 -443c58 -51.333 127 -77 207 -77z" />
    <glyph glyph-name="Ugrave" unicode="&#xd9;" horiz-adv-x="651" 
d="M311 755l-88 195h46l75 -195h-33zM325 -8c-68 0 -123.166 20.5 -165.499 61.5s-63.5 98.5 -63.5 172.5v454h41v-451c0 -64 17 -113.5 51 -148.5s79.667 -52.5 137 -52.5s103.166 17.5 137.499 52.5s51.5 84.5 51.5 148.5v451h41v-454c0 -74 -21.5 -131.5 -64.5 -172.5
s-98.167 -61.5 -165.5 -61.5z" />
    <glyph glyph-name="Uacute" unicode="&#xda;" horiz-adv-x="651" 
d="M306 755l75 195h46l-88 -195h-33zM325 -8c-68 0 -123.166 20.5 -165.499 61.5s-63.5 98.5 -63.5 172.5v454h41v-451c0 -64 17 -113.5 51 -148.5s79.667 -52.5 137 -52.5s103.166 17.5 137.499 52.5s51.5 84.5 51.5 148.5v451h41v-454c0 -74 -21.5 -131.5 -64.5 -172.5
s-98.167 -61.5 -165.5 -61.5z" />
    <glyph glyph-name="Ucircumflex" unicode="&#xdb;" horiz-adv-x="651" 
d="M207 752l113 182h9l113 -182h-35l-82 119l-83 -119h-35zM325 -8c-68 0 -123.166 20.5 -165.499 61.5s-63.5 98.5 -63.5 172.5v454h41v-451c0 -64 17 -113.5 51 -148.5s79.667 -52.5 137 -52.5s103.166 17.5 137.499 52.5s51.5 84.5 51.5 148.5v451h41v-454
c0 -74 -21.5 -131.5 -64.5 -172.5s-98.167 -61.5 -165.5 -61.5z" />
    <glyph glyph-name="Udieresis" unicode="&#xdc;" horiz-adv-x="651" 
d="M401 779c-8.66699 0 -16.167 3.16699 -22.5 9.5s-9.5 13.833 -9.5 22.5s3.16699 16.167 9.5 22.5s13.833 9.5 22.5 9.5s16.167 -3.16699 22.5 -9.5s9.5 -13.833 9.5 -22.5s-3.16699 -16.167 -9.5 -22.5s-13.833 -9.5 -22.5 -9.5zM249 779
c-8.66699 0 -16.167 3.16699 -22.5 9.5s-9.5 13.833 -9.5 22.5s3.16699 16.167 9.5 22.5s13.833 9.5 22.5 9.5s16.167 -3.16699 22.5 -9.5s9.5 -13.833 9.5 -22.5s-3.16699 -16.167 -9.5 -22.5s-13.833 -9.5 -22.5 -9.5zM325 -8c-68 0 -123.166 20.5 -165.499 61.5
s-63.5 98.5 -63.5 172.5v454h41v-451c0 -64 17 -113.5 51 -148.5s79.667 -52.5 137 -52.5s103.166 17.5 137.499 52.5s51.5 84.5 51.5 148.5v451h41v-454c0 -74 -21.5 -131.5 -64.5 -172.5s-98.167 -61.5 -165.5 -61.5z" />
    <glyph glyph-name="Yacute" unicode="&#xdd;" horiz-adv-x="643" 
d="M302 755l75 195h46l-88 -195h-33zM301 0v211.999l-257 468h46l217 -394l16 -41c6 16.667 12 30.334 18 41.001l216 394h43l-257 -469v-211h-42z" />
    <glyph glyph-name="Thorn" unicode="&#xde;" horiz-adv-x="576" 
d="M103 0l0.000976562 680.001h41v-82h106c85.333 0 150.166 -23.5 194.499 -70.5s66.5 -107.833 66.5 -182.5s-22 -135.334 -66 -182.001s-109 -70 -195 -70h-106v-93h-41zM144.001 129.001l102 0.000976562c78 0 134.667 19.667 170 59s53 91.666 53 156.999
c0 66 -17.667 118.667 -53 158s-92 59 -170 59h-102v-433z" />
    <glyph glyph-name="germandbls" unicode="&#xdf;" horiz-adv-x="520" 
d="M263 -4c-25.333 0 -48.333 4.33008 -69 12.9971l11 33c18 -7.33301 37.333 -11 58 -11c52.667 0 93.167 16.333 121.5 49s42.5 75.334 42.5 128.001c0 54 -17.167 97 -51.5 129s-82.833 47.667 -145.5 47v36c40.667 4 72.667 19.333 96 46s35 60.667 35 102
c0 44 -11.333 77 -34 99s-50.667 33 -84 33c-34.667 0 -63.334 -11.333 -86.001 -34s-34 -59 -34 -109v-557h-39v560c0 58.667 15.5 102.5 46.5 131.5s68.5 43.5 112.5 43.5c42 0 78.333 -14.333 109 -43s46 -69.667 46 -123c0 -37.333 -8.66699 -70.166 -26 -98.499
s-43.666 -49.166 -78.999 -62.499c52.667 -8 95 -29.833 127 -65.5s48 -80.5 48 -134.5c0 -62 -18.167 -112.833 -54.5 -152.5s-86.5 -59.5 -150.5 -59.5z" />
    <glyph glyph-name="agrave" unicode="&#xe0;" horiz-adv-x="463" 
d="M217 497l-88 195h46l75 -195h-33zM344 236v20c0 84.667 -36.333 127 -109 127c-58 0 -102.333 -23.333 -133 -70l-28 20c36 56 90 84 162 84c44 0 79.5 -13.333 106.5 -40s40.5 -65.667 40.5 -117v-260h-39l2 63c-31.333 -47.333 -78.333 -71 -141 -71
c-47.333 0 -84.833 10.833 -112.5 32.5s-41.5 52.5 -41.5 92.5c0 38.667 14.333 68.167 43 88.5s64 30.5 106 30.5h144zM344 204h-139c-34 0 -61.667 -7 -83 -21s-32 -35.667 -32 -65c0 -60.667 39.667 -91 119 -91c36 0 67.5 9.66699 94.5 29s40.5 44 40.5 74v74z" />
    <glyph glyph-name="aacute" unicode="&#xe1;" horiz-adv-x="463" 
d="M212 497l75 195h46l-88 -195h-33zM344 236v20c0 84.667 -36.333 127 -109 127c-58 0 -102.333 -23.333 -133 -70l-28 20c36 56 90 84 162 84c44 0 79.5 -13.333 106.5 -40s40.5 -65.667 40.5 -117v-260h-39l2 63c-31.333 -47.333 -78.333 -71 -141 -71
c-47.333 0 -84.833 10.833 -112.5 32.5s-41.5 52.5 -41.5 92.5c0 38.667 14.333 68.167 43 88.5s64 30.5 106 30.5h144zM344 204h-139c-34 0 -61.667 -7 -83 -21s-32 -35.667 -32 -65c0 -60.667 39.667 -91 119 -91c36 0 67.5 9.66699 94.5 29s40.5 44 40.5 74v74z" />
    <glyph glyph-name="acircumflex" unicode="&#xe2;" horiz-adv-x="463" 
d="M117 494l113 182h9l113 -182h-35l-82 119l-83 -119h-35zM344 236v20c0 84.667 -36.333 127 -109 127c-58 0 -102.333 -23.333 -133 -70l-28 20c36 56 90 84 162 84c44 0 79.5 -13.333 106.5 -40s40.5 -65.667 40.5 -117v-260h-39l2 63
c-31.333 -47.333 -78.333 -71 -141 -71c-47.333 0 -84.833 10.833 -112.5 32.5s-41.5 52.5 -41.5 92.5c0 38.667 14.333 68.167 43 88.5s64 30.5 106 30.5h144zM344 204h-139c-34 0 -61.667 -7 -83 -21s-32 -35.667 -32 -65c0 -60.667 39.667 -91 119 -91
c36 0 67.5 9.66699 94.5 29s40.5 44 40.5 74v74z" />
    <glyph glyph-name="atilde" unicode="&#xe3;" horiz-adv-x="463" 
d="M129 489l-33.999 2.99902c1.33301 30.667 8.66602 54.5 21.999 71.5s31 25.5 53 25.5c13.333 0 25 -2.83301 35 -8.5s22 -15.5 36 -29.5c13.333 -13.333 22.833 -21.666 28.5 -24.999s12.5 -5 20.5 -5c22 0 35 21.667 39 65l34 -3c-3.33301 -64 -28 -96 -74 -96
c-13.333 0 -24.833 3 -34.5 9s-21.834 16 -36.501 30c-13.333 12.667 -22.666 20.667 -27.999 24s-12.333 5 -21 5c-22.667 0 -36 -22 -40 -66zM344.001 235.999v20c0 84.667 -36.333 127 -109 127c-58 0 -102.333 -23.333 -133 -70l-28 20c36 56 90 84 162 84
c44 0 79.5 -13.333 106.5 -40s40.5 -65.667 40.5 -117v-260h-39l2 63c-31.333 -47.333 -78.333 -71 -141 -71c-47.333 0 -84.833 10.833 -112.5 32.5s-41.5 52.5 -41.5 92.5c0 38.667 14.333 68.167 43 88.5s64 30.5 106 30.5h144zM344.001 203.999h-139
c-34 0 -61.667 -7 -83 -21s-32 -35.667 -32 -65c0 -60.667 39.667 -91 119 -91c36 0 67.5 9.66699 94.5 29s40.5 44 40.5 74v74z" />
    <glyph glyph-name="adieresis" unicode="&#xe4;" horiz-adv-x="463" 
d="M310 521c-8.66699 0 -16.167 3.16699 -22.5 9.5s-9.5 13.833 -9.5 22.5s3.16699 16.167 9.5 22.5s13.833 9.5 22.5 9.5s16.167 -3.16699 22.5 -9.5s9.5 -13.833 9.5 -22.5s-3.16699 -16.167 -9.5 -22.5s-13.833 -9.5 -22.5 -9.5zM158 521
c-8.66699 0 -16.167 3.16699 -22.5 9.5s-9.5 13.833 -9.5 22.5s3.16699 16.167 9.5 22.5s13.833 9.5 22.5 9.5s16.167 -3.16699 22.5 -9.5s9.5 -13.833 9.5 -22.5s-3.16699 -16.167 -9.5 -22.5s-13.833 -9.5 -22.5 -9.5zM344 236v20c0 84.667 -36.333 127 -109 127
c-58 0 -102.333 -23.333 -133 -70l-28 20c36 56 90 84 162 84c44 0 79.5 -13.333 106.5 -40s40.5 -65.667 40.5 -117v-260h-39l2 63c-31.333 -47.333 -78.333 -71 -141 -71c-47.333 0 -84.833 10.833 -112.5 32.5s-41.5 52.5 -41.5 92.5c0 38.667 14.333 68.167 43 88.5
s64 30.5 106 30.5h144zM344 204h-139c-34 0 -61.667 -7 -83 -21s-32 -35.667 -32 -65c0 -60.667 39.667 -91 119 -91c36 0 67.5 9.66699 94.5 29s40.5 44 40.5 74v74z" />
    <glyph glyph-name="aring" unicode="&#xe5;" horiz-adv-x="463" 
d="M231 488c-26 0 -48.167 9 -66.5 27s-27.5 39.667 -27.5 65s9.16699 47 27.5 65s40.5 27 66.5 27s48.167 -9 66.5 -27s27.5 -39.667 27.5 -65s-9.16699 -47 -27.5 -65s-40.5 -27 -66.5 -27zM344 236v20c0 84.667 -36.333 127 -109 127c-58 0 -102.333 -23.333 -133 -70
l-28 20c36 56 90 84 162 84c44 0 79.5 -13.333 106.5 -40s40.5 -65.667 40.5 -117v-260h-39l2 63c-31.333 -47.333 -78.333 -71 -141 -71c-47.333 0 -84.833 10.833 -112.5 32.5s-41.5 52.5 -41.5 92.5c0 38.667 14.333 68.167 43 88.5s64 30.5 106 30.5h144zM231 519
c17.333 0 31.333 5.5 42 16.5s16 25.833 16 44.5s-5.33301 33.5 -16 44.5s-24.667 16.5 -42 16.5s-31.333 -5.5 -42 -16.5s-16 -25.833 -16 -44.5s5.33301 -33.5 16 -44.5s24.667 -16.5 42 -16.5zM344 204h-139c-34 0 -61.667 -7 -83 -21s-32 -35.667 -32 -65
c0 -60.667 39.667 -91 119 -91c36 0 67.5 9.66699 94.5 29s40.5 44 40.5 74v74z" />
    <glyph glyph-name="ae" unicode="&#xe6;" horiz-adv-x="796" 
d="M344 232l-0.00195312 24c0 84.667 -36.333 127 -109 127c-58 0 -102.333 -23.333 -133 -70l-28 20c36 56 90 84 162 84c36.667 0 67 -9.66699 91 -29s39 -47.666 45 -84.999c16.667 34.667 40.334 62.334 71.001 83.001s65.334 31 104.001 31
c60.667 0 109.5 -20.833 146.5 -62.5s54.833 -93.167 53.5 -154.5h-365c1.33301 -49.333 17.5 -90.5 48.5 -123.5s72.5 -49.5 124.5 -49.5c60.667 0 108.334 21.333 143.001 64l26 -23c-40.667 -50.667 -97 -76 -169 -76c-42 0 -78.833 10.167 -110.5 30.5
s-55.834 47.833 -72.501 82.5c-7.33301 -36 -27.5 -63.833 -60.5 -83.5s-68.5 -29.5 -106.5 -29.5c-46 0 -83.167 10.667 -111.5 32s-42.5 51.666 -42.5 90.999c0 37.333 14.667 66.166 44 86.499s64.333 30.5 105 30.5h144zM383.998 232h322.999
c-3.33301 42.667 -18.666 78.5 -45.999 107.5s-65.333 43.5 -114 43.5c-44 0 -80.833 -14.5 -110.5 -43.5s-47.167 -64.833 -52.5 -107.5zM343.997 200l-139 0.000976562c-34 0 -61.667 -6.83301 -83 -20.5s-32 -34.834 -32 -63.501c0 -59.333 39.667 -89 119 -89
c36 0 67.5 9.66699 94.5 29s40.5 44 40.5 74v70z" />
    <glyph glyph-name="ccedilla" unicode="&#xe7;" horiz-adv-x="464" 
d="M221 -5c-49.333 9.33301 -89.834 33.499 -121.501 72.499s-47.5 84.5 -47.5 136.5c0 58.667 20 108.834 60 150.501s89 62.5 147 62.5c66 0 117.667 -23 155 -69l-28 -23c-30.667 38 -73 57 -127 57c-49.333 0 -89.333 -16.833 -120 -50.5s-46 -76.167 -46 -127.5
c0 -50.667 15.333 -92.834 46 -126.501s70.667 -50.5 120 -50.5c58 0 103 20.333 135 61l28 -23c-39.333 -48.667 -93.666 -73 -162.999 -73h-2v-51c22 -2.66699 40.833 -11.667 56.5 -27s23.5 -34.666 23.5 -57.999c0 -26 -8.83301 -46.5 -26.5 -61.5
s-38.834 -22.5 -63.501 -22.5c-45.333 0 -76.666 19.333 -93.999 58l30 18c14 -28.667 35 -43 63 -43c14.667 0 27 4.66699 37 14s15 22 15 38s-5.16699 29.167 -15.5 39.5s-25.833 15.5 -46.5 15.5h-15v83z" />
    <glyph glyph-name="egrave" unicode="&#xe8;" horiz-adv-x="506" 
d="M239 497l-88 195h46l75 -195h-33zM92 196c1.33301 -50 17.498 -90.668 48.498 -122.001s72.5 -47 124.5 -47c60.667 0 108.334 21.333 143.001 64l26 -23c-40.667 -50.667 -97 -76 -169 -76c-63.333 0 -114.666 20.333 -153.999 61s-59 91 -59 151
c0 58.667 19.833 108.834 59.5 150.501s88.167 62.5 145.5 62.5c60.667 0 109.5 -21 146.5 -63s54.833 -94.667 53.5 -158h-365zM92.998 227.999h323.997c-3.33301 44.667 -18.666 81.667 -45.999 111s-65.333 44 -114 44c-45.333 0 -82.666 -14.5 -111.999 -43.5
s-46.666 -66.167 -51.999 -111.5z" />
    <glyph glyph-name="eacute" unicode="&#xe9;" horiz-adv-x="506" 
d="M234 497l75 195h46l-88 -195h-33zM92 196c1.33301 -50 17.498 -90.668 48.498 -122.001s72.5 -47 124.5 -47c60.667 0 108.334 21.333 143.001 64l26 -23c-40.667 -50.667 -97 -76 -169 -76c-63.333 0 -114.666 20.333 -153.999 61s-59 91 -59 151
c0 58.667 19.833 108.834 59.5 150.501s88.167 62.5 145.5 62.5c60.667 0 109.5 -21 146.5 -63s54.833 -94.667 53.5 -158h-365zM92.998 227.999h323.997c-3.33301 44.667 -18.666 81.667 -45.999 111s-65.333 44 -114 44c-45.333 0 -82.666 -14.5 -111.999 -43.5
s-46.666 -66.167 -51.999 -111.5z" />
    <glyph glyph-name="ecircumflex" unicode="&#xea;" horiz-adv-x="506" 
d="M135 494l113 182h9l113 -182h-35l-82 119l-83 -119h-35zM92 196c1.33301 -50 17.498 -90.668 48.498 -122.001s72.5 -47 124.5 -47c60.667 0 108.334 21.333 143.001 64l26 -23c-40.667 -50.667 -97 -76 -169 -76c-63.333 0 -114.666 20.333 -153.999 61s-59 91 -59 151
c0 58.667 19.833 108.834 59.5 150.501s88.167 62.5 145.5 62.5c60.667 0 109.5 -21 146.5 -63s54.833 -94.667 53.5 -158h-365zM92.998 227.999h323.997c-3.33301 44.667 -18.666 81.667 -45.999 111s-65.333 44 -114 44c-45.333 0 -82.666 -14.5 -111.999 -43.5
s-46.666 -66.167 -51.999 -111.5z" />
    <glyph glyph-name="edieresis" unicode="&#xeb;" horiz-adv-x="506" 
d="M329 521c-8.66699 0 -16.167 3.16699 -22.5 9.5s-9.5 13.833 -9.5 22.5s3.16699 16.167 9.5 22.5s13.833 9.5 22.5 9.5s16.167 -3.16699 22.5 -9.5s9.5 -13.833 9.5 -22.5s-3.16699 -16.167 -9.5 -22.5s-13.833 -9.5 -22.5 -9.5zM177 521
c-8.66699 0 -16.167 3.16699 -22.5 9.5s-9.5 13.833 -9.5 22.5s3.16699 16.167 9.5 22.5s13.833 9.5 22.5 9.5s16.167 -3.16699 22.5 -9.5s9.5 -13.833 9.5 -22.5s-3.16699 -16.167 -9.5 -22.5s-13.833 -9.5 -22.5 -9.5zM92 196c1.33301 -50 17.498 -90.668 48.498 -122.001
s72.5 -47 124.5 -47c60.667 0 108.334 21.333 143.001 64l26 -23c-40.667 -50.667 -97 -76 -169 -76c-63.333 0 -114.666 20.333 -153.999 61s-59 91 -59 151c0 58.667 19.833 108.834 59.5 150.501s88.167 62.5 145.5 62.5c60.667 0 109.5 -21 146.5 -63
s54.833 -94.667 53.5 -158h-365zM92.998 227.999h323.997c-3.33301 44.667 -18.666 81.667 -45.999 111s-65.333 44 -114 44c-45.333 0 -82.666 -14.5 -111.999 -43.5s-46.666 -66.167 -51.999 -111.5z" />
    <glyph glyph-name="igrave" unicode="&#xec;" horiz-adv-x="208" 
d="M88 497l-88 195h46l75 -195h-33zM85 0v408h39v-408h-39z" />
    <glyph glyph-name="iacute" unicode="&#xed;" horiz-adv-x="208" 
d="M87 497l75 195h46l-88 -195h-33zM85 0v408h39v-408h-39z" />
    <glyph glyph-name="icircumflex" unicode="&#xee;" horiz-adv-x="208" 
d="M-14 494l113 182h9l113 -182h-35l-82 119l-83 -119h-35zM85 0v408h39v-408h-39z" />
    <glyph glyph-name="idieresis" unicode="&#xef;" horiz-adv-x="208" 
d="M180 521c-8.66699 0 -16.167 3.16699 -22.5 9.5s-9.5 13.833 -9.5 22.5s3.16699 16.167 9.5 22.5s13.833 9.5 22.5 9.5s16.167 -3.16699 22.5 -9.5s9.5 -13.833 9.5 -22.5s-3.16699 -16.167 -9.5 -22.5s-13.833 -9.5 -22.5 -9.5zM28 521
c-8.66699 0 -16.167 3.16699 -22.5 9.5s-9.5 13.833 -9.5 22.5s3.16699 16.167 9.5 22.5s13.833 9.5 22.5 9.5s16.167 -3.16699 22.5 -9.5s9.5 -13.833 9.5 -22.5s-3.16699 -16.167 -9.5 -22.5s-13.833 -9.5 -22.5 -9.5zM85 0v408h39v-408h-39z" />
    <glyph glyph-name="eth" unicode="&#xf0;" horiz-adv-x="528" 
d="M282 598l-73.001 -71.001l-23 23l74 73c-31.333 35.333 -61.666 65.666 -90.999 90.999l24 24c31.333 -24.667 62.333 -54.334 93 -89.001l73 72l24 -24l-75 -74c112 -135.333 168 -272.666 168 -411.999c0 -59.333 -20.5 -110.666 -61.5 -153.999
s-90.833 -65 -149.5 -65c-59.333 0 -109.666 20.833 -150.999 62.5s-62 91.834 -62 150.501s20.667 108.667 62 150s91.666 62 150.999 62c66.667 0 119 -28 157 -84c-21.333 88 -68 176.333 -140 265zM264.999 26.999c50.667 0 91.834 17.335 123.501 52.002
s47.5 78.667 47.5 132c0 49.333 -15.833 90.166 -47.5 122.499s-72.834 48.5 -123.501 48.5s-92.167 -16.833 -124.5 -50.5s-48.5 -75.834 -48.5 -126.501s16.167 -93 48.5 -127s73.833 -51 124.5 -51z" />
    <glyph glyph-name="ntilde" unicode="&#xf1;" horiz-adv-x="509" 
d="M150 489l-33.999 2.99902c1.33301 30.667 8.66602 54.5 21.999 71.5s31 25.5 53 25.5c13.333 0 25 -2.83301 35 -8.5s22 -15.5 36 -29.5c13.333 -13.333 22.833 -21.666 28.5 -24.999s12.5 -5 20.5 -5c22 0 35 21.667 39 65l34 -3c-3.33301 -64 -28 -96 -74 -96
c-13.333 0 -24.833 3 -34.5 9s-21.834 16 -36.501 30c-13.333 12.667 -22.666 20.667 -27.999 24s-12.333 5 -21 5c-22.667 0 -36 -22 -40 -66zM84.001 -0.000976562l0.00195312 408.001h39l-1 -91c13.333 31.333 33.666 55.833 60.999 73.5s59 26.5 95 26.5
c46 0 82.833 -14.5 110.5 -43.5s41.5 -68.5 41.5 -118.5v-255h-39v248c0 42.667 -10 75.5 -30 98.5s-49.333 34.5 -88 34.5c-44.667 0 -80.834 -13.833 -108.501 -41.5s-41.5 -64.834 -41.5 -111.501v-228h-39z" />
    <glyph glyph-name="ograve" unicode="&#xf2;" horiz-adv-x="528" 
d="M250 497l-88 195h46l75 -195h-33zM265 -8c-59.333 0 -109.666 20.833 -150.999 62.5s-62 91.834 -62 150.501s20.667 108.667 62 150s91.666 62 150.999 62s109.333 -20.667 150 -62s61 -91.333 61 -150s-20.333 -108.834 -61 -150.501s-90.667 -62.5 -150 -62.5zM265 27
c50.667 0 91.834 16.835 123.501 50.502s47.5 76.167 47.5 127.5s-15.833 93.666 -47.5 126.999s-72.834 50 -123.501 50s-92.167 -16.833 -124.5 -50.5s-48.5 -75.834 -48.5 -126.501s16.167 -93 48.5 -127s73.833 -51 124.5 -51z" />
    <glyph glyph-name="oacute" unicode="&#xf3;" horiz-adv-x="528" 
d="M245 497l75 195h46l-88 -195h-33zM265 -8c-59.333 0 -109.666 20.833 -150.999 62.5s-62 91.834 -62 150.501s20.667 108.667 62 150s91.666 62 150.999 62s109.333 -20.667 150 -62s61 -91.333 61 -150s-20.333 -108.834 -61 -150.501s-90.667 -62.5 -150 -62.5zM265 27
c50.667 0 91.834 16.835 123.501 50.502s47.5 76.167 47.5 127.5s-15.833 93.666 -47.5 126.999s-72.834 50 -123.501 50s-92.167 -16.833 -124.5 -50.5s-48.5 -75.834 -48.5 -126.501s16.167 -93 48.5 -127s73.833 -51 124.5 -51z" />
    <glyph glyph-name="ocircumflex" unicode="&#xf4;" horiz-adv-x="528" 
d="M146 494l113 182h9l113 -182h-35l-82 119l-83 -119h-35zM265 -8c-59.333 0 -109.666 20.833 -150.999 62.5s-62 91.834 -62 150.501s20.667 108.667 62 150s91.666 62 150.999 62s109.333 -20.667 150 -62s61 -91.333 61 -150s-20.333 -108.834 -61 -150.501
s-90.667 -62.5 -150 -62.5zM265 27c50.667 0 91.834 16.835 123.501 50.502s47.5 76.167 47.5 127.5s-15.833 93.666 -47.5 126.999s-72.834 50 -123.501 50s-92.167 -16.833 -124.5 -50.5s-48.5 -75.834 -48.5 -126.501s16.167 -93 48.5 -127s73.833 -51 124.5 -51z" />
    <glyph glyph-name="otilde" unicode="&#xf5;" horiz-adv-x="528" 
d="M164 489l-33.999 2.99902c1.33301 30.667 8.66602 54.5 21.999 71.5s31 25.5 53 25.5c13.333 0 25 -2.83301 35 -8.5s22 -15.5 36 -29.5c13.333 -13.333 22.833 -21.666 28.5 -24.999s12.5 -5 20.5 -5c22 0 35 21.667 39 65l34 -3c-3.33301 -64 -28 -96 -74 -96
c-13.333 0 -24.833 3 -34.5 9s-21.834 16 -36.501 30c-13.333 12.667 -22.666 20.667 -27.999 24s-12.333 5 -21 5c-22.667 0 -36 -22 -40 -66zM265.001 -8.00098c-59.333 0 -109.666 20.833 -150.999 62.5s-62 91.834 -62 150.501s20.667 108.667 62 150
s91.666 62 150.999 62s109.333 -20.667 150 -62s61 -91.333 61 -150s-20.333 -108.834 -61 -150.501s-90.667 -62.5 -150 -62.5zM265.001 26.999c50.667 0 91.834 16.835 123.501 50.502s47.5 76.167 47.5 127.5s-15.833 93.666 -47.5 126.999s-72.834 50 -123.501 50
s-92.167 -16.833 -124.5 -50.5s-48.5 -75.834 -48.5 -126.501s16.167 -93 48.5 -127s73.833 -51 124.5 -51z" />
    <glyph glyph-name="odieresis" unicode="&#xf6;" horiz-adv-x="528" 
d="M340 521c-8.66699 0 -16.167 3.16699 -22.5 9.5s-9.5 13.833 -9.5 22.5s3.16699 16.167 9.5 22.5s13.833 9.5 22.5 9.5s16.167 -3.16699 22.5 -9.5s9.5 -13.833 9.5 -22.5s-3.16699 -16.167 -9.5 -22.5s-13.833 -9.5 -22.5 -9.5zM188 521
c-8.66699 0 -16.167 3.16699 -22.5 9.5s-9.5 13.833 -9.5 22.5s3.16699 16.167 9.5 22.5s13.833 9.5 22.5 9.5s16.167 -3.16699 22.5 -9.5s9.5 -13.833 9.5 -22.5s-3.16699 -16.167 -9.5 -22.5s-13.833 -9.5 -22.5 -9.5zM265 -8c-59.333 0 -109.666 20.833 -150.999 62.5
s-62 91.834 -62 150.501s20.667 108.667 62 150s91.666 62 150.999 62s109.333 -20.667 150 -62s61 -91.333 61 -150s-20.333 -108.834 -61 -150.501s-90.667 -62.5 -150 -62.5zM265 27c50.667 0 91.834 16.835 123.501 50.502s47.5 76.167 47.5 127.5
s-15.833 93.666 -47.5 126.999s-72.834 50 -123.501 50s-92.167 -16.833 -124.5 -50.5s-48.5 -75.834 -48.5 -126.501s16.167 -93 48.5 -127s73.833 -51 124.5 -51z" />
    <glyph glyph-name="divide" unicode="&#xf7;" 
d="M90 197c-10 0 -19.167 4 -27.5 12s-12.5 17.333 -12.5 28c0 11.333 4 20.833 12 28.5s17.333 11.5 28 11.5s20 -3.83301 28 -11.5s12 -17.167 12 -28.5c0 -10.667 -4 -20 -12 -28s-17.333 -12 -28 -12z" />
    <glyph glyph-name="oslash" unicode="&#xf8;" horiz-adv-x="528" 
d="M428 341c32 -39.333 48.001 -84.666 48.001 -135.999c0 -58.667 -20.333 -108.834 -61 -150.501s-90.667 -62.5 -150 -62.5c-53.333 0 -100.333 17.667 -141 53l-59 -57l-23 23l59 57c-32.667 40 -49 85.667 -49 137c0 58.667 20.667 108.667 62 150
s91.666 62 150.999 62c54.667 0 101.667 -17.667 141 -53l57 56l22 -24zM127.001 93l253 246.001c-30.667 28.667 -69 43 -115 43c-50.667 0 -92.167 -16.833 -124.5 -50.5s-48.5 -75.834 -48.5 -126.501c0 -42 11.667 -79.333 35 -112zM402.001 315.001l-253.001 -246
c32 -28 70.667 -42 116 -42c50.667 0 91.834 16.833 123.501 50.5s47.5 76.167 47.5 127.5c0 43.333 -11.333 80 -34 110z" />
    <glyph glyph-name="ugrave" unicode="&#xf9;" horiz-adv-x="509" 
d="M240 497l-88 195h46l75 -195h-33zM232 -9c-46 0 -82.834 14.333 -110.501 43s-41.5 67.667 -41.5 117v257h39v-251c0 -86.667 39 -130 117 -130c44.667 0 80.834 13.833 108.501 41.5s41.5 64.834 41.5 111.501v228h39v-408h-39l1 90
c-14 -30.667 -34.5 -54.834 -61.5 -72.501s-58.167 -26.5 -93.5 -26.5z" />
    <glyph glyph-name="uacute" unicode="&#xfa;" horiz-adv-x="509" 
d="M235 497l75 195h46l-88 -195h-33zM232 -9c-46 0 -82.834 14.333 -110.501 43s-41.5 67.667 -41.5 117v257h39v-251c0 -86.667 39 -130 117 -130c44.667 0 80.834 13.833 108.501 41.5s41.5 64.834 41.5 111.501v228h39v-408h-39l1 90
c-14 -30.667 -34.5 -54.834 -61.5 -72.501s-58.167 -26.5 -93.5 -26.5z" />
    <glyph glyph-name="ucircumflex" unicode="&#xfb;" horiz-adv-x="509" 
d="M136 494l113 182h9l113 -182h-35l-82 119l-83 -119h-35zM232 -9c-46 0 -82.834 14.333 -110.501 43s-41.5 67.667 -41.5 117v257h39v-251c0 -86.667 39 -130 117 -130c44.667 0 80.834 13.833 108.501 41.5s41.5 64.834 41.5 111.501v228h39v-408h-39l1 90
c-14 -30.667 -34.5 -54.834 -61.5 -72.501s-58.167 -26.5 -93.5 -26.5z" />
    <glyph glyph-name="udieresis" unicode="&#xfc;" horiz-adv-x="509" 
d="M330 521c-8.66699 0 -16.167 3.16699 -22.5 9.5s-9.5 13.833 -9.5 22.5s3.16699 16.167 9.5 22.5s13.833 9.5 22.5 9.5s16.167 -3.16699 22.5 -9.5s9.5 -13.833 9.5 -22.5s-3.16699 -16.167 -9.5 -22.5s-13.833 -9.5 -22.5 -9.5zM178 521
c-8.66699 0 -16.167 3.16699 -22.5 9.5s-9.5 13.833 -9.5 22.5s3.16699 16.167 9.5 22.5s13.833 9.5 22.5 9.5s16.167 -3.16699 22.5 -9.5s9.5 -13.833 9.5 -22.5s-3.16699 -16.167 -9.5 -22.5s-13.833 -9.5 -22.5 -9.5zM232 -9c-46 0 -82.834 14.333 -110.501 43
s-41.5 67.667 -41.5 117v257h39v-251c0 -86.667 39 -130 117 -130c44.667 0 80.834 13.833 108.501 41.5s41.5 64.834 41.5 111.501v228h39v-408h-39l1 90c-14 -30.667 -34.5 -54.834 -61.5 -72.501s-58.167 -26.5 -93.5 -26.5z" />
    <glyph glyph-name="yacute" unicode="&#xfd;" horiz-adv-x="449" 
d="M205 497l75 195h46l-88 -195h-33zM110 -212l103 242l-181 378h42l143 -302l16 -48c4 18.667 9 34.667 15 48l129 302h40l-267 -620h-40z" />
    <glyph glyph-name="thorn" unicode="&#xfe;" horiz-adv-x="551" 
d="M85 -212v934.001h39v-411c16 32 38.833 57.667 68.5 77s64.5 29 104.5 29c58 0 106.167 -20.333 144.5 -61s57.5 -91 57.5 -151c0 -60.667 -19.167 -111.334 -57.5 -152.001s-86.5 -61 -144.5 -61c-38 0 -72.5 10 -103.5 30s-54.167 45.667 -69.5 77v-311h-39z
M292 27.001c50 0 90.167 16.833 120.5 50.5s45.5 76.167 45.5 127.5s-15.167 93.666 -45.5 126.999s-70.5 50 -120.5 50c-50.667 0 -91.834 -16.667 -123.501 -50s-47.5 -75.666 -47.5 -126.999s15.833 -93.833 47.5 -127.5s72.834 -50.5 123.501 -50.5z" />
    <glyph glyph-name="ydieresis" unicode="&#xff;" horiz-adv-x="449" 
d="M300 521c-8.66699 0 -16.167 3.16699 -22.5 9.5s-9.5 13.833 -9.5 22.5s3.16699 16.167 9.5 22.5s13.833 9.5 22.5 9.5s16.167 -3.16699 22.5 -9.5s9.5 -13.833 9.5 -22.5s-3.16699 -16.167 -9.5 -22.5s-13.833 -9.5 -22.5 -9.5zM148 521
c-8.66699 0 -16.167 3.16699 -22.5 9.5s-9.5 13.833 -9.5 22.5s3.16699 16.167 9.5 22.5s13.833 9.5 22.5 9.5s16.167 -3.16699 22.5 -9.5s9.5 -13.833 9.5 -22.5s-3.16699 -16.167 -9.5 -22.5s-13.833 -9.5 -22.5 -9.5zM110 -212l103 242l-181 378h42l143 -302l16 -48
c4 18.667 9 34.667 15 48l129 302h40l-267 -620h-40z" />
    <glyph glyph-name="dotlessi" unicode="&#x131;" horiz-adv-x="208" 
d="M85 0v408h39v-408h-39z" />
    <glyph glyph-name="Lslash" unicode="&#x141;" horiz-adv-x="512" 
d="M103 0v209l-76 -31v39l76 31v432h41v-416l208 85v-38l-208 -86v-189h327v-36h-368z" />
    <glyph glyph-name="lslash" unicode="&#x142;" horiz-adv-x="259" 
d="M110 0v267l-93 -57v40l93 58v414h39v-390l96 60v-41l-96 -60v-291h-39z" />
    <glyph glyph-name="OE" unicode="&#x152;" horiz-adv-x="983" 
d="M416 0c-112 0 -199.833 31.167 -263.5 93.5s-95.5 144.5 -95.5 246.5s31.833 184.167 95.5 246.5s151.5 93.5 263.5 93.5h494v-36h-356v-364h319v-36h-319v-208h370v-36h-508zM421 37h92v606h-92c-104.667 0 -184.5 -27.5 -239.5 -82.5s-82.5 -128.5 -82.5 -220.5
s27.5 -165.5 82.5 -220.5s134.833 -82.5 239.5 -82.5z" />
    <glyph glyph-name="oe" unicode="&#x153;" horiz-adv-x="887" 
d="M473 196c1.33301 -50 17.499 -90.668 48.499 -122.001s72.5 -47 124.5 -47c60.667 0 108.334 21.333 143.001 64l26 -23c-40.667 -50.667 -97 -76 -169 -76c-48 0 -88.667 12.333 -122 37s-56.666 57.334 -69.999 98.001c-14.667 -40.667 -38.667 -73.334 -72 -98.001
s-72.333 -37 -117 -37c-59.333 0 -109.666 20.833 -150.999 62.5s-62 91.834 -62 150.501s20.667 108.667 62 150s91.666 62 150.999 62c45.333 0 84.666 -12.5 117.999 -37.5s57 -57.833 71 -98.5c14 40.667 37.333 73.5 70 98.5s70.667 37.5 114 37.5
c60.667 0 109.5 -21 146.5 -63s54.833 -94.667 53.5 -158h-365zM473.999 227.999h323.997c-3.33301 44.667 -18.666 81.667 -45.999 111s-65.333 44 -114 44c-45.333 0 -82.666 -14.5 -111.999 -43.5s-46.666 -66.167 -51.999 -111.5zM264.996 26.999
c50.667 0 91.834 16.835 123.501 50.502s47.5 76.167 47.5 127.5s-15.833 93.666 -47.5 126.999s-72.834 50 -123.501 50s-92.167 -16.833 -124.5 -50.5s-48.5 -75.834 -48.5 -126.501s16.167 -93 48.5 -127s73.833 -51 124.5 -51z" />
    <glyph glyph-name="Scaron" unicode="&#x160;" horiz-adv-x="527" 
d="M244 749l-113 182h35l82 -119l83 119h35l-113 -182h-9zM265 -8c-108 0 -184.001 45.334 -228.001 136.001l35 17c41.333 -78 105.333 -117 192 -117c46 0 84.5 12.5 115.5 37.5s46.5 58.5 46.5 100.5c0 38 -10.833 69.5 -32.5 94.5s-57.167 48.833 -106.5 71.5l-63 29
c-50 23.333 -86.167 48 -108.5 74s-33.5 59.667 -33.5 101c0 46 16 82.833 48 110.5s71.667 41.5 119 41.5c75.333 0 133.333 -32.667 174 -98l-32 -21c-34.667 55.333 -82 83 -142 83c-39.333 0 -70.333 -10.5 -93 -31.5s-34 -48.833 -34 -83.5
c0 -33.333 8.83301 -60 26.5 -80s48.167 -40 91.5 -60l63 -29c56 -25.333 97.167 -53.833 123.5 -85.5s39.5 -70.5 39.5 -116.5c0 -52.667 -18.667 -94.834 -56 -126.501s-85.666 -47.5 -144.999 -47.5z" />
    <glyph glyph-name="scaron" unicode="&#x161;" horiz-adv-x="405" 
d="M192 491l-113 182h35l82 -119l83 119h35l-113 -182h-9zM211 -8c-40.667 0 -75.001 9.50293 -103.001 28.5029s-48.333 43.5 -61 73.5l34 15c25.333 -54.667 68.666 -82 129.999 -82c30.667 0 55.334 7.16699 74.001 21.5s28 33.166 28 56.499
c0 26 -8.16699 44.667 -24.5 56s-45.833 23.666 -88.5 36.999c-41.333 12 -72.666 26.167 -93.999 42.5s-32 41.166 -32 74.499c0 29.333 11.667 53.666 35 72.999s52.333 29 87 29c58 0 101.333 -25.667 130 -77l-30 -18c-23.333 40.667 -56.666 61 -99.999 61
c-26 0 -46.667 -6.16699 -62 -18.5s-23 -28.166 -23 -47.499c0 -22.667 7.16699 -39.5 21.5 -50.5s42.166 -22.833 83.499 -35.5c44 -13.333 77.667 -28.833 101 -46.5s35 -43.834 35 -78.501c0 -33.333 -12.5 -60.666 -37.5 -81.999s-59.5 -32 -103.5 -32z" />
    <glyph glyph-name="Ydieresis" unicode="&#x178;" horiz-adv-x="643" 
d="M397 779c-8.66699 0 -16.167 3.16699 -22.5 9.5s-9.5 13.833 -9.5 22.5s3.16699 16.167 9.5 22.5s13.833 9.5 22.5 9.5s16.167 -3.16699 22.5 -9.5s9.5 -13.833 9.5 -22.5s-3.16699 -16.167 -9.5 -22.5s-13.833 -9.5 -22.5 -9.5zM245 779
c-8.66699 0 -16.167 3.16699 -22.5 9.5s-9.5 13.833 -9.5 22.5s3.16699 16.167 9.5 22.5s13.833 9.5 22.5 9.5s16.167 -3.16699 22.5 -9.5s9.5 -13.833 9.5 -22.5s-3.16699 -16.167 -9.5 -22.5s-13.833 -9.5 -22.5 -9.5zM301 0v211.999l-257 468h46l217 -394l16 -41
c6 16.667 12 30.334 18 41.001l216 394h43l-257 -469v-211h-42z" />
    <glyph glyph-name="Zcaron" unicode="&#x17d;" horiz-adv-x="580" 
d="M300 749l-113 182h35l82 -119l83 119h35l-113 -182h-9zM45 0v10l413 634h-360v36h421v-10l-412 -634h423v-36h-485z" />
    <glyph glyph-name="zcaron" unicode="&#x17e;" horiz-adv-x="421" 
d="M219 491l-113 182h35l82 -119l83 119h35l-113 -182h-9zM36 0v10l274 364h-246v34h306v-11l-274 -363h274v-34h-334z" />
    <glyph glyph-name="florin" unicode="&#x192;" horiz-adv-x="334" 
d="M64 -212l48.001 425.001h-72v33h75l29 254c4 40 15.333 69.667 34 89s41.667 29 69 29c40.667 0 71 -17 91 -51l-28 -21c-16.667 24.667 -37.334 37 -62.001 37c-18.667 0 -33.5 -6.33301 -44.5 -19s-18.167 -34.334 -21.5 -65.001l-29 -253h89v-33h-92l-48 -425h-38z
" />
    <glyph glyph-name="circumflex" unicode="&#x2c6;" horiz-adv-x="500" 
d="M132 494l113 182h9l113 -182h-35l-82 119l-83 -119h-35z" />
    <glyph glyph-name="caron" unicode="&#x2c7;" horiz-adv-x="500" 
d="M246 491l-113 182h35l82 -119l83 119h35l-113 -182h-9z" />
    <glyph glyph-name="breve" unicode="&#x2d8;" horiz-adv-x="500" 
d="M250 484c-32.667 0 -58.832 9.66699 -78.499 29s-32.5 44.666 -38.5 75.999l35 7c6.66699 -24 16 -42.833 28 -56.5s30 -20.5 54 -20.5s42 6.83301 54 20.5s21.333 32.5 28 56.5l35 -7c-6 -31.333 -18.833 -56.666 -38.5 -75.999s-45.834 -29 -78.501 -29z" />
    <glyph glyph-name="dotaccent" unicode="&#x2d9;" horiz-adv-x="500" 
d="M250 520c-8.66699 0 -16.334 3.16699 -23.001 9.5s-10 14.166 -10 23.499s3.33301 17.166 10 23.499s14.334 9.5 23.001 9.5s16.334 -3.16699 23.001 -9.5s10 -14.166 10 -23.499s-3.33301 -17.166 -10 -23.499s-14.334 -9.5 -23.001 -9.5z" />
    <glyph glyph-name="ring" unicode="&#x2da;" horiz-adv-x="500" 
d="M250 488c-26 0 -48.167 9 -66.5 27s-27.5 39.667 -27.5 65s9.16699 47 27.5 65s40.5 27 66.5 27s48.167 -9 66.5 -27s27.5 -39.667 27.5 -65s-9.16699 -47 -27.5 -65s-40.5 -27 -66.5 -27zM250 519c17.333 0 31.333 5.5 42 16.5s16 25.833 16 44.5
s-5.33301 33.5 -16 44.5s-24.667 16.5 -42 16.5s-31.333 -5.5 -42 -16.5s-16 -25.833 -16 -44.5s5.33301 -33.5 16 -44.5s24.667 -16.5 42 -16.5z" />
    <glyph glyph-name="ogonek" unicode="&#x2db;" horiz-adv-x="500" 
d="M235 -228c-24 0 -44.333 7.16797 -61 21.501s-25 34.5 -25 60.5c0 31.333 14 66 42 104l30 42h38l-33 -51c-8 -12 -12.667 -19.167 -14 -21.5l-9.5 -16.5c-5 -8.66699 -8 -15 -9 -19s-2.16699 -9.33301 -3.5 -16s-2 -13.334 -2 -20.001c0 -16 4.83301 -28.333 14.5 -37
s21.167 -13 34.5 -13c22.667 0 42 13.667 58 41l30 -18c-18 -38 -48 -57 -90 -57z" />
    <glyph glyph-name="tilde" unicode="&#x2dc;" horiz-adv-x="500" 
d="M150 489l-33.999 2.99902c1.33301 30.667 8.66602 54.5 21.999 71.5s31 25.5 53 25.5c13.333 0 25 -2.83301 35 -8.5s22 -15.5 36 -29.5c13.333 -13.333 22.833 -21.666 28.5 -24.999s12.5 -5 20.5 -5c22 0 35 21.667 39 65l34 -3c-3.33301 -64 -28 -96 -74 -96
c-13.333 0 -24.833 3 -34.5 9s-21.834 16 -36.501 30c-13.333 12.667 -22.666 20.667 -27.999 24s-12.333 5 -21 5c-22.667 0 -36 -22 -40 -66z" />
    <glyph glyph-name="hungarumlaut" unicode="&#x2dd;" horiz-adv-x="500" 
d="M288 497l75 195h46l-88 -195h-33zM171 497l75 195h46l-88 -195h-33z" />
    <glyph glyph-name="Delta" unicode="&#x394;" 
d="M90 197c-10 0 -19.167 4 -27.5 12s-12.5 17.333 -12.5 28c0 11.333 4 20.833 12 28.5s17.333 11.5 28 11.5s20 -3.83301 28 -11.5s12 -17.167 12 -28.5c0 -10.667 -4 -20 -12 -28s-17.333 -12 -28 -12z" />
    <glyph glyph-name="Delta" unicode="&#x2206;" 
d="M90 197c-10 0 -19.167 4 -27.5 12s-12.5 17.333 -12.5 28c0 11.333 4 20.833 12 28.5s17.333 11.5 28 11.5s20 -3.83301 28 -11.5s12 -17.167 12 -28.5c0 -10.667 -4 -20 -12 -28s-17.333 -12 -28 -12z" />
    <glyph glyph-name="Omega" unicode="&#x3a9;" 
d="M90 197c-10 0 -19.167 4 -27.5 12s-12.5 17.333 -12.5 28c0 11.333 4 20.833 12 28.5s17.333 11.5 28 11.5s20 -3.83301 28 -11.5s12 -17.167 12 -28.5c0 -10.667 -4 -20 -12 -28s-17.333 -12 -28 -12z" />
    <glyph glyph-name="Omega" unicode="&#x2126;" 
d="M90 197c-10 0 -19.167 4 -27.5 12s-12.5 17.333 -12.5 28c0 11.333 4 20.833 12 28.5s17.333 11.5 28 11.5s20 -3.83301 28 -11.5s12 -17.167 12 -28.5c0 -10.667 -4 -20 -12 -28s-17.333 -12 -28 -12z" />
    <glyph glyph-name="pi" unicode="&#x3c0;" 
d="M90 197c-10 0 -19.167 4 -27.5 12s-12.5 17.333 -12.5 28c0 11.333 4 20.833 12 28.5s17.333 11.5 28 11.5s20 -3.83301 28 -11.5s12 -17.167 12 -28.5c0 -10.667 -4 -20 -12 -28s-17.333 -12 -28 -12z" />
    <glyph glyph-name="endash" unicode="&#x2013;" horiz-adv-x="389" 
d="M38 161v34h312v-34h-312z" />
    <glyph glyph-name="emdash" unicode="&#x2014;" horiz-adv-x="607" 
d="M38 161v34h531v-34h-531z" />
    <glyph glyph-name="quoteleft" unicode="&#x2018;" horiz-adv-x="178" 
d="M89 504c-10 0 -18.999 4 -26.999 12s-12 17.333 -12 28c0 4.66699 1.66699 11 5 19l53 117h25l-32 -100c7.33301 -1.33301 13.666 -5.5 18.999 -12.5s8 -14.833 8 -23.5c0 -10.667 -4 -20 -12 -28s-17 -12 -27 -12z" />
    <glyph glyph-name="quoteright" unicode="&#x2019;" horiz-adv-x="178" 
d="M45 511l31.999 100c-7.33301 1.33301 -13.666 5.5 -18.999 12.5s-8 14.833 -8 23.5c0 10.667 4 20 12 28s17 12 27 12s19 -4 27 -12s12 -17.333 12 -28c0 -4.66699 -1.66699 -11 -5 -19l-53 -117h-25z" />
    <glyph glyph-name="quotesinglbase" unicode="&#x201a;" horiz-adv-x="178" 
d="M45 -103l31.999 100c-7.33301 1.33301 -13.666 5.5 -18.999 12.5s-8 14.833 -8 23.5c0 10.667 4 20 12 28s17 12 27 12s19 -4 27 -12s12 -17.333 12 -28c0 -4.66699 -1.66699 -11 -5 -19l-53 -117h-25z" />
    <glyph glyph-name="quotedblleft" unicode="&#x201c;" horiz-adv-x="309" 
d="M220 504c-10 0 -18.999 4 -26.999 12s-12 17.333 -12 28c0 4.66699 1.66699 11 5 19l53 117h25l-32 -100c7.33301 -1.33301 13.666 -5.5 18.999 -12.5s8 -14.833 8 -23.5c0 -10.667 -4 -20 -12 -28s-17 -12 -27 -12zM89.001 504c-10 0 -18.999 4 -26.999 12
s-12 17.333 -12 28c0 4.66699 1.66699 11 5 19l53 117h25l-32 -100c7.33301 -1.33301 13.666 -5.5 18.999 -12.5s8 -14.833 8 -23.5c0 -10.667 -4 -20 -12 -28s-17 -12 -27 -12z" />
    <glyph glyph-name="quotedblright" unicode="&#x201d;" horiz-adv-x="309" 
d="M176 511l31.999 100c-7.33301 1.33301 -13.666 5.5 -18.999 12.5s-8 14.833 -8 23.5c0 10.667 4 20 12 28s17 12 27 12s19 -4 27 -12s12 -17.333 12 -28c0 -4.66699 -1.66699 -11 -5 -19l-53 -117h-25zM44.999 511l31.999 100c-7.33301 1.33301 -13.666 5.5 -18.999 12.5
s-8 14.833 -8 23.5c0 10.667 4 20 12 28s17 12 27 12s19 -4 27 -12s12 -17.333 12 -28c0 -4.66699 -1.66699 -11 -5 -19l-53 -117h-25z" />
    <glyph glyph-name="quotedblbase" unicode="&#x201e;" horiz-adv-x="309" 
d="M176 -103l31.999 100c-7.33301 1.33301 -13.666 5.5 -18.999 12.5s-8 14.833 -8 23.5c0 10.667 4 20 12 28s17 12 27 12s19 -4 27 -12s12 -17.333 12 -28c0 -4.66699 -1.66699 -11 -5 -19l-53 -117h-25zM44.999 -103l31.999 100
c-7.33301 1.33301 -13.666 5.5 -18.999 12.5s-8 14.833 -8 23.5c0 10.667 4 20 12 28s17 12 27 12s19 -4 27 -12s12 -17.333 12 -28c0 -4.66699 -1.66699 -11 -5 -19l-53 -117h-25z" />
    <glyph glyph-name="dagger" unicode="&#x2020;" horiz-adv-x="325" 
d="M144 299v240h-96v33h96v108h37v-108h96v-33h-96v-240h-37z" />
    <glyph glyph-name="daggerdbl" unicode="&#x2021;" horiz-adv-x="325" 
d="M144 299v108h-96v33h96v99h-96v33h96v108h37v-108h96v-33h-96v-99h96v-33h-96v-108h-37z" />
    <glyph glyph-name="bullet" unicode="&#x2022;" horiz-adv-x="279" 
d="M140 167c-24 0 -44.833 8.66699 -62.5 26s-26.5 38 -26.5 62c0 24.667 8.83301 45.5 26.5 62.5s38.5 25.5 62.5 25.5s44.667 -8.5 62 -25.5s26 -37.833 26 -62.5c0 -24 -8.66699 -44.667 -26 -62s-38 -26 -62 -26z" />
    <glyph glyph-name="ellipsis" unicode="&#x2026;" horiz-adv-x="558" 
d="M468 -7c-10 0 -19.167 4 -27.5 12s-12.5 17.333 -12.5 28c0 11.333 4 20.833 12 28.5s17.333 11.5 28 11.5s20 -3.83301 28 -11.5s12 -17.167 12 -28.5c0 -10.667 -4 -20 -12 -28s-17.333 -12 -28 -12zM279 -7c-10 0 -19.167 4 -27.5 12s-12.5 17.333 -12.5 28
c0 11.333 4 20.833 12 28.5s17.333 11.5 28 11.5s20 -3.83301 28 -11.5s12 -17.167 12 -28.5c0 -10.667 -4 -20 -12 -28s-17.333 -12 -28 -12zM90 -7c-10 0 -19.167 4 -27.5 12s-12.5 17.333 -12.5 28c0 11.333 4 20.833 12 28.5s17.333 11.5 28 11.5s20 -3.83301 28 -11.5
s12 -17.167 12 -28.5c0 -10.667 -4 -20 -12 -28s-17.333 -12 -28 -12z" />
    <glyph glyph-name="perthousand" unicode="&#x2030;" horiz-adv-x="1057" 
d="M173 219c-38.667 0 -72.167 13.5 -100.5 40.5s-42.5 60.833 -42.5 101.5c0 40 14.167 73.667 42.5 101s61.833 41 100.5 41c38 0 71.167 -13.667 99.5 -41s42.5 -61 42.5 -101c0 -40.667 -14.167 -74.5 -42.5 -101.5s-61.5 -40.5 -99.5 -40.5zM188 0l308 495h40
l-308 -495h-40zM885 -8c-38.667 0 -72 13.5 -100 40.5s-42 60.833 -42 101.5c0 40 14.167 73.667 42.5 101s61.5 41 99.5 41s71.167 -13.667 99.5 -41s42.5 -61 42.5 -101c0 -40.667 -14 -74.5 -42 -101.5s-61.333 -40.5 -100 -40.5zM551 -8c-38.667 0 -72 13.5 -100 40.5
s-42 60.833 -42 101.5c0 40 14.167 73.667 42.5 101s61.5 41 99.5 41s71.167 -13.667 99.5 -41s42.5 -61 42.5 -101c0 -40.667 -14 -74.5 -42 -101.5s-61.333 -40.5 -100 -40.5zM173 252c29.333 0 54.166 10.167 74.499 30.5s30.5 46.5 30.5 78.5s-10.167 58 -30.5 78
s-45.166 30 -74.499 30c-30 0 -55.167 -10 -75.5 -30s-30.5 -46 -30.5 -78s10.333 -58.167 31 -78.5s45.667 -30.5 75 -30.5zM885 25c29.333 0 54.166 10.167 74.499 30.5s30.5 46.5 30.5 78.5c0 31.333 -10.167 57.166 -30.5 77.499s-45.166 30.5 -74.499 30.5
s-54.166 -10.167 -74.499 -30.5s-30.5 -46.166 -30.5 -77.499c0 -32 10.167 -58.167 30.5 -78.5s45.166 -30.5 74.499 -30.5zM551 25c29.333 0 54.166 10.167 74.499 30.5s30.5 46.5 30.5 78.5c0 31.333 -10.167 57.166 -30.5 77.499s-45.166 30.5 -74.499 30.5
s-54.166 -10.167 -74.499 -30.5s-30.5 -46.166 -30.5 -77.499c0 -32 10.167 -58.167 30.5 -78.5s45.166 -30.5 74.499 -30.5z" />
    <glyph glyph-name="guilsinglleft" unicode="&#x2039;" horiz-adv-x="220" 
d="M134 40l-93 154v8l93 154h45l-95 -158l95 -158h-45z" />
    <glyph glyph-name="guilsinglright" unicode="&#x203a;" horiz-adv-x="220" 
d="M41 40l95 158l-95 158h45l93 -154v-8l-93 -154h-45z" />
    <glyph glyph-name="fraction" unicode="&#x2044;" horiz-adv-x="318" 
d="M-15 0l308 495h40l-308 -495h-40z" />
    <glyph glyph-name="fraction" unicode="&#x2215;" horiz-adv-x="318" 
d="M-15 0l308 495h40l-308 -495h-40z" />
    <glyph glyph-name="Euro" unicode="&#x20ac;" horiz-adv-x="632" 
d="M127 287h-80.002v33h87c14.667 54.667 44.334 98.834 89.001 132.501s95.667 50.5 153 50.5c84 0 149 -32 195 -96l-30 -23c-39.333 55.333 -94.333 83 -165 83c-48.667 0 -90.834 -13.333 -126.501 -40s-60.167 -62.334 -73.5 -107.001h259v-33h-266
c-2 -12.667 -3 -26 -3 -40c0 -15.333 1 -29.333 3 -42h266v-33h-258c14 -44 38.833 -79 74.5 -105s77.167 -39 124.5 -39c74.667 0 131 28.667 169 86l32 -21c-42.667 -67.333 -109.667 -101 -201 -101c-57.333 0 -108.166 16.5 -152.499 49.5s-74.166 76.5 -89.499 130.5
h-87v33h80c-2 14 -3 28 -3 42s1 27.333 3 40z" />
    <glyph glyph-name="trademark" unicode="&#x2122;" horiz-adv-x="732" 
d="M349 386v299h8l142 -167l142 167h8v-299h-37v217l-108 -130h-10l-108 130v-217h-37zM148 386v261h-94v33h224v-33h-93v-261h-37z" />
    <glyph glyph-name="partialdiff" unicode="&#x2202;" 
d="M90 197c-10 0 -19.167 4 -27.5 12s-12.5 17.333 -12.5 28c0 11.333 4 20.833 12 28.5s17.333 11.5 28 11.5s20 -3.83301 28 -11.5s12 -17.167 12 -28.5c0 -10.667 -4 -20 -12 -28s-17.333 -12 -28 -12z" />
    <glyph glyph-name="product" unicode="&#x220f;" 
d="M90 197c-10 0 -19.167 4 -27.5 12s-12.5 17.333 -12.5 28c0 11.333 4 20.833 12 28.5s17.333 11.5 28 11.5s20 -3.83301 28 -11.5s12 -17.167 12 -28.5c0 -10.667 -4 -20 -12 -28s-17.333 -12 -28 -12z" />
    <glyph glyph-name="summation" unicode="&#x2211;" horiz-adv-x="810" 
d="M413 -5c8.66699 -4.66699 17.335 -10.335 26.002 -17.002c18.667 -12.667 33.667 -22.334 45 -29.001s27 -13.334 47 -20.001s40.667 -10 62 -10c43.333 0 79.666 15.333 108.999 46l29 -27c-35.333 -38 -81.333 -57 -138 -57c-52.667 0 -112 23.333 -178 70
c-21.333 14.667 -38.5 25.834 -51.5 33.501s-30.333 15.5 -52 23.5s-42.834 12 -63.501 12c-53.333 0 -96.333 -25.333 -129 -76l-28 22c31.333 46.667 72 74.334 122 83.001c-48 30 -86 70.333 -114 121s-42 107.334 -42 170.001c0 102 33.5 185.5 100.5 250.5
s149.5 97.5 247.5 97.5s180.5 -32.5 247.5 -97.5s100.5 -148.5 100.5 -250.5c0 -99.333 -32.667 -181.166 -98 -245.499s-146 -97.5 -242 -99.5zM405.001 29.999c87.333 0 160.166 29.5 218.499 88.5s87.5 132.833 87.5 221.5s-29.167 162.667 -87.5 222
s-131.166 89 -218.499 89s-160.166 -29.667 -218.499 -89s-87.5 -133.333 -87.5 -222s29.167 -162.5 87.5 -221.5s131.166 -88.5 218.499 -88.5z" />
    <glyph glyph-name="minus" unicode="&#x2212;" 
d="M90 197c-10 0 -19.167 4 -27.5 12s-12.5 17.333 -12.5 28c0 11.333 4 20.833 12 28.5s17.333 11.5 28 11.5s20 -3.83301 28 -11.5s12 -17.167 12 -28.5c0 -10.667 -4 -20 -12 -28s-17.333 -12 -28 -12z" />
    <glyph glyph-name="radical" unicode="&#x221a;" 
d="M90 197c-10 0 -19.167 4 -27.5 12s-12.5 17.333 -12.5 28c0 11.333 4 20.833 12 28.5s17.333 11.5 28 11.5s20 -3.83301 28 -11.5s12 -17.167 12 -28.5c0 -10.667 -4 -20 -12 -28s-17.333 -12 -28 -12z" />
    <glyph glyph-name="integral" unicode="&#x222b;" 
d="M90 197c-10 0 -19.167 4 -27.5 12s-12.5 17.333 -12.5 28c0 11.333 4 20.833 12 28.5s17.333 11.5 28 11.5s20 -3.83301 28 -11.5s12 -17.167 12 -28.5c0 -10.667 -4 -20 -12 -28s-17.333 -12 -28 -12z" />
    <glyph glyph-name="approxequal" unicode="&#x2248;" 
d="M90 197c-10 0 -19.167 4 -27.5 12s-12.5 17.333 -12.5 28c0 11.333 4 20.833 12 28.5s17.333 11.5 28 11.5s20 -3.83301 28 -11.5s12 -17.167 12 -28.5c0 -10.667 -4 -20 -12 -28s-17.333 -12 -28 -12z" />
    <glyph glyph-name="lessequal" unicode="&#x2264;" 
d="M90 197c-10 0 -19.167 4 -27.5 12s-12.5 17.333 -12.5 28c0 11.333 4 20.833 12 28.5s17.333 11.5 28 11.5s20 -3.83301 28 -11.5s12 -17.167 12 -28.5c0 -10.667 -4 -20 -12 -28s-17.333 -12 -28 -12z" />
    <glyph glyph-name="greaterequal" unicode="&#x2265;" 
d="M90 197c-10 0 -19.167 4 -27.5 12s-12.5 17.333 -12.5 28c0 11.333 4 20.833 12 28.5s17.333 11.5 28 11.5s20 -3.83301 28 -11.5s12 -17.167 12 -28.5c0 -10.667 -4 -20 -12 -28s-17.333 -12 -28 -12z" />
    <glyph glyph-name="lozenge" unicode="&#x25ca;" 
d="M90 197c-10 0 -19.167 4 -27.5 12s-12.5 17.333 -12.5 28c0 11.333 4 20.833 12 28.5s17.333 11.5 28 11.5s20 -3.83301 28 -11.5s12 -17.167 12 -28.5c0 -10.667 -4 -20 -12 -28s-17.333 -12 -28 -12z" />
    <glyph glyph-name=".null" horiz-adv-x="0" 
 />
    <glyph glyph-name="nonmarkingreturn" horiz-adv-x="333" 
 />
    <glyph glyph-name="plusminus" horiz-adv-x="712" 
d="M101 0l-0.000976562 375.001h-65v33h65v190c0 39.333 9 68.666 27 87.999s41 29 69 29c38.667 0 69 -16 91 -48l-29 -22c-8.66699 12.667 -17.167 21.667 -25.5 27s-20.166 8 -35.499 8c-38.667 0 -58 -27.667 -58 -83v-189h202v179c0 47.333 13.833 83.833 41.5 109.5
s61.167 38.5 100.5 38.5c38.667 0 71.334 -12.333 98.001 -37s40 -61.667 40 -111v-587h-39v584c0 38 -8.83301 66.833 -26.5 86.5s-41.834 29.5 -72.501 29.5c-32 0 -57.167 -9.66699 -75.5 -29s-27.5 -48.333 -27.5 -87v-176h109v-33h-109v-375h-39v375h-202v-375h-39z
" />
    <glyph glyph-name="apple" 
d="M90 197c-10 0 -19.167 4 -27.5 12s-12.5 17.333 -12.5 28c0 11.333 4 20.833 12 28.5s17.333 11.5 28 11.5s20 -3.83301 28 -11.5s12 -17.167 12 -28.5c0 -10.667 -4 -20 -12 -28s-17.333 -12 -28 -12z" />
    <glyph glyph-name="infinity" horiz-adv-x="706" 
d="M602 551c-8.66699 0 -16.334 3.16699 -23.001 9.5s-10 14.166 -10 23.499s3.33301 17.166 10 23.499s14.334 9.5 23.001 9.5s16.334 -3.16699 23.001 -9.5s10 -14.166 10 -23.499s-3.33301 -17.166 -10 -23.499s-14.334 -9.5 -23.001 -9.5zM101 0l-0.00195312 375.002
h-65v33h65v190c0 39.333 9 68.666 27 87.999s41 29 69 29c38.667 0 69 -16 91 -48l-29 -22c-8.66699 12.667 -17.167 21.667 -25.5 27s-20.166 8 -35.499 8c-38.667 0 -58 -27.667 -58 -83v-189h202v210c0 39.333 9 68.666 27 87.999s41 29 69 29c38.667 0 69 -16 91 -48
l-29 -22c-8.66699 12.667 -17.167 21.667 -25.5 27s-20.166 8 -35.499 8c-38.667 0 -58 -27.667 -58 -83v-209h241v-408h-39v375h-202v-375h-39v375h-202v-375h-39z" />
    <glyph glyph-name="notequal" horiz-adv-x="526" 
d="M101 0l-0.00195312 375.002h-65v33h65v190c0 39.333 9 68.666 27 87.999s41 29 69 29c38.667 0 69 -16 91 -48l-29 -22c-8.66699 12.667 -17.167 21.667 -25.5 27s-20.166 8 -35.499 8c-38.667 0 -58 -27.667 -58 -83v-189h202v210c0 39.333 9 68.666 27 87.999
s41 29 69 29c38.667 0 69 -16 91 -48l-29 -22c-8.66699 12.667 -17.167 21.667 -25.5 27s-20.166 8 -35.499 8c-38.667 0 -58 -27.667 -58 -83v-209h109v-33h-109v-375h-39v375h-202v-375h-39z" />
    </font>
</defs>
</svg>
