<?xml version="1.0" standalone="no"?>
<!DOCTYPE svg PUBLIC "-//W3C//DTD SVG 1.1//EN" "http://www.w3.org/Graphics/SVG/1.1/DTD/svg11.dtd" >
<svg>
<metadata>
Created by FontForge 20090914 at Sun Jun  9 16:07:31 2013
 By www-data
(C)2002 House Industries/Brand Design Co. Inc.
</metadata>
<defs>
<font id="NeutraTextTF-Book" horiz-adv-x="520" >
  <font-face 
    font-family="Neutra Text TF"
    font-weight="500"
    font-stretch="normal"
    units-per-em="1000"
    panose-1="2 0 0 0 0 0 0 0 0 0"
    ascent="800"
    descent="-200"
    x-height="413.999"
    cap-height="680"
    bbox="-57 -232 1058 946"
    underline-thickness="20"
    underline-position="-123"
    unicode-range="U+000D-U+FB02"
  />
<missing-glyph horiz-adv-x="500" 
 />
    <glyph glyph-name="fi" unicode="fi" horiz-adv-x="503" 
d="M392 534c-13.333 0 -25 4.66699 -35 14s-15 21 -15 35s5 25.833 15 35.5s21.667 14.5 35 14.5s25 -4.83301 35 -14.5s15 -21.5 15 -35.5s-5 -25.667 -15 -35s-21.667 -14 -35 -14zM101 0v355h-67v59h67v188c0 44.667 10.333 78 31 100s49 33 85 33
c42.667 0 76 -15 100 -45l-44 -42c-14.667 16 -31.667 24 -51 24c-34 0 -51 -23.333 -51 -70v-188h256v-414h-70v355h-186v-355h-70z" />
    <glyph glyph-name="fl" unicode="fl" horiz-adv-x="507" 
d="M101 0v355h-67v59h67v152c0 53.333 15.833 94.833 47.5 124.5s70.5 44.5 116.5 44.5s84.5 -14 115.5 -42s46.5 -69 46.5 -123v-570h-70v565c0 71.333 -30.667 107 -92 107c-28.667 0 -51.5 -8.83301 -68.5 -26.5s-25.5 -44.5 -25.5 -80.5v-151h106v-59h-106v-355h-70z
" />
    <glyph glyph-name="ff" unicode="ff" horiz-adv-x="572" 
d="M101 0l0.00195312 355h-67v59h67v168c0 44.667 10.167 78 30.5 100s48.166 33 83.499 33c45.333 0 79.333 -14.667 102 -44l-45 -44c-13.333 16.667 -30 25 -50 25c-34 0 -51 -23.333 -51 -70v-168h186v188c0 44.667 10.333 78 31 100s48.667 33 84 33
c46.667 0 81.667 -17 105 -51l-46 -41c-14.667 19.333 -32.334 29 -53.001 29c-34 0 -51 -23.333 -51 -70v-188h111v-59h-111v-355h-70v355h-186v-355h-70z" />
    <glyph glyph-name="ffi" unicode="ffi" horiz-adv-x="759" 
d="M648 534c-13.333 0 -25 4.66699 -35 14s-15 21 -15 35s5 25.833 15 35.5s21.667 14.5 35 14.5s25 -4.83301 35 -14.5s15 -21.5 15 -35.5s-5 -25.667 -15 -35s-21.667 -14 -35 -14zM101 0l0.000976562 355h-67v59h67v168c0 44.667 10.167 78 30.5 100s48.166 33 83.499 33
c45.333 0 79.333 -14.667 102 -44l-45 -44c-13.333 16.667 -30 25 -50 25c-34 0 -51 -23.333 -51 -70v-168h186v188c0 44.667 10.333 78 31 100s49 33 85 33c42.667 0 76 -15 100 -45l-44 -42c-14.667 16 -31.667 24 -51 24c-34 0 -51 -23.333 -51 -70v-188h256v-414h-70
v355h-186v-355h-70v355h-186v-355h-70z" />
    <glyph glyph-name="ffl" unicode="ffl" horiz-adv-x="763" 
d="M101 0l0.000976562 355h-67v59h67v168c0 44.667 10.167 78 30.5 100s48.166 33 83.499 33c45.333 0 79.333 -14.667 102 -44l-45 -44c-13.333 16.667 -30 25 -50 25c-34 0 -51 -23.333 -51 -70v-168h186v152c0 53.333 15.833 94.833 47.5 124.5s70.5 44.5 116.5 44.5
s84.5 -14 115.5 -42s46.5 -69 46.5 -123v-570h-70v565c0 71.333 -30.667 107 -92 107c-28.667 0 -51.5 -8.83301 -68.5 -26.5s-25.5 -44.5 -25.5 -80.5v-151h106v-59h-106v-355h-70v355h-186v-355h-70z" />
    <glyph glyph-name=".notdef" horiz-adv-x="500" 
 />
    <glyph glyph-name=".notdef" horiz-adv-x="500" 
 />
    <glyph glyph-name="CR" unicode="&#xd;" horiz-adv-x="200" 
 />
    <glyph glyph-name="space" unicode=" " horiz-adv-x="200" 
 />
    <glyph glyph-name="exclam" unicode="!" horiz-adv-x="244" 
d="M95 190l-12 490h78l-12 -490h-54zM122 -7c-14 0 -26.333 5.16699 -37 15.5s-16 22.833 -16 37.5c0 15.333 5.33301 28.166 16 38.499s23 15.5 37 15.5s26.333 -5.16699 37 -15.5s16 -23.166 16 -38.499c0 -14.667 -5.33301 -27.167 -16 -37.5s-23 -15.5 -37 -15.5z" />
    <glyph glyph-name="quotedbl" unicode="&#x22;" horiz-adv-x="283" 
d="M178 470l-9 210h74l-8 -210h-57zM48 470l-8 210h74l-8 -210h-58z" />
    <glyph glyph-name="numbersign" unicode="#" 
d="M162 447h-79v57h93l27 109h59l-27 -109h104l27 109h59l-27 -109h73v-57h-87l-27 -106h78v-57h-92l-27 -108h-59l27 108h-104l-27 -108h-59l27 108h-73v57h87zM325 447h-104l-27 -106h104z" />
    <glyph glyph-name="dollar" unicode="$" 
d="M233 -6c-84 8.66699 -142.334 46.335 -175.001 113.002l55 29c23.333 -48.667 63.333 -77.334 120 -86.001v187c-52 15.333 -89.667 34 -113 56s-35 52 -35 90c0 36 13.833 65.5 41.5 88.5s63.167 36.167 106.5 39.5v106h51v-107c30.667 -4.66699 58 -15 82 -31
s42.333 -35.333 55 -58l-49 -33c-21.333 38 -50.666 60 -87.999 66v-165l6 -2c53.333 -15.333 93 -35.333 119 -60s39 -56.334 39 -95.001c0 -88 -54.667 -134.667 -164 -140v-111h-51v113zM232.999 456.001c-55.333 -4.66699 -83 -28 -83 -70c0 -23.333 6 -40.5 18 -51.5
s33.667 -20.833 65 -29.5v151zM283.999 48.001c65.333 4 98 31.333 98 82c0 24.667 -7.33301 43.667 -22 57s-40 25 -76 35v-174z" />
    <glyph glyph-name="percent" unicode="%" horiz-adv-x="750" 
d="M178 218c-40 0 -73.999 14 -101.999 42s-42 63 -42 105s14.167 77 42.5 105s62.166 42 101.499 42c38.667 0 72.167 -14 100.5 -42s42.5 -63 42.5 -105s-14.167 -77 -42.5 -105s-61.833 -42 -100.5 -42zM182.001 0l315 504h70l-315 -504h-70zM573.001 -8
c-40 0 -73.999 13.833 -101.999 41.5s-42 62.5 -42 104.5s14.167 77 42.5 105s62.166 42 101.499 42s73 -14 101 -42s42 -63 42 -105s-14 -76.833 -42 -104.5s-61.667 -41.5 -101 -41.5zM178.002 272c24 0 44 8.66699 60 26s24 39.666 24 66.999s-8 49.666 -24 66.999
s-36 26 -60 26c-24.667 0 -45 -8.66699 -61 -26s-24 -39.666 -24 -66.999s8 -49.666 24 -66.999s36.333 -26 61 -26zM573.002 45c24 0 44 8.66699 60 26s24 39.666 24 66.999s-8 49.666 -24 66.999s-36 26 -60 26c-24.667 0 -45 -8.66699 -61 -26s-24 -39.666 -24 -66.999
s8 -49.666 24 -66.999s36.333 -26 61 -26z" />
    <glyph glyph-name="ampersand" unicode="&#x26;" horiz-adv-x="654" 
d="M316 385l149.999 -181.999c19.333 46.667 29 101.667 29 165h69c0 -84 -17 -158 -51 -222l120 -146h-87l-73 88c-56.667 -64 -128 -96 -214 -96c-66 0 -118.5 16.833 -157.5 50.5s-58.5 78.5 -58.5 134.5c0 51.333 14.5 92.833 43.5 124.5s72.833 63.5 131.5 95.5l-12 15
c-36.667 45.333 -55 90.666 -55 135.999c0 40 13.333 73.333 40 100s62 40 106 40c42.667 0 77.334 -13.167 104.001 -39.5s40 -59.5 40 -99.5c0 -61.333 -41.667 -116 -125 -164zM278.999 430.001c64 37.333 96 77 96 119c0 24 -7.16699 43.167 -21.5 57.5
s-32.833 21.5 -55.5 21.5c-24 0 -43 -7 -57 -21s-21 -33.333 -21 -58c0 -32 13.333 -64 40 -96zM429.999 140.001l-176.001 213.002c-45.333 -24.667 -79.333 -49.834 -102 -75.501s-34 -57.834 -34 -96.501c0 -39.333 12.333 -70 37 -92s59.334 -33 104.001 -33
c71.333 0 128.333 28 171 84z" />
    <glyph glyph-name="quotesingle" unicode="'" horiz-adv-x="154" 
d="M48 470l-8 210h74l-8 -210h-58z" />
    <glyph glyph-name="parenleft" unicode="(" horiz-adv-x="300" 
d="M217 -135c-110 118 -165 260 -165 426s55 308 165 426l45 -34c-91.333 -112 -137 -242.667 -137 -392s45.667 -280 137 -392z" />
    <glyph glyph-name="parenright" unicode=")" horiz-adv-x="300" 
d="M82 -135l-44 33.998c90.667 112.667 136 243.334 136 392.001s-45.333 279.334 -136 392.001l44 34c110.667 -118.667 166 -260.667 166 -426s-55.333 -307.333 -166 -426z" />
    <glyph glyph-name="asterisk" unicode="*" horiz-adv-x="394" 
d="M165 375l15 125l-98 -73l-31 54l117 47l-117 47l31 54l98 -72l-15 123h63l-15 -123l99 72l31 -54l-118 -47l117 -47l-30 -54l-99 73l15 -125h-63z" />
    <glyph glyph-name="plus" unicode="+" 
d="M292 221v-152h-64v152h-142v62h142v152h64v-152h142v-62h-142z" />
    <glyph glyph-name="comma" unicode="," horiz-adv-x="200" 
d="M43 -112l38.999 111c-24 8 -36 24.333 -36 49c0 14.667 5.5 27.334 16.5 38.001s23.5 16 37.5 16c14.667 0 27.334 -5.33301 38.001 -16s16 -23.334 16 -38.001c0 -12 -4 -25.333 -12 -40l-60 -120h-39z" />
    <glyph glyph-name="hyphen" unicode="-" horiz-adv-x="286" 
d="M46 200v63h193v-63h-193z" />
    <glyph glyph-name="hyphen" unicode="&#xad;" horiz-adv-x="286" 
d="M46 200v63h193v-63h-193z" />
    <glyph glyph-name="period" unicode="." horiz-adv-x="200" 
d="M100 -7c-14 0 -26.501 5.33301 -37.501 16s-16.5 23.667 -16.5 39s5.33301 28.166 16 38.499s23.334 15.5 38.001 15.5s27.334 -5.16699 38.001 -15.5s16 -23.166 16 -38.499s-5.33301 -28.333 -16 -39s-23.334 -16 -38.001 -16z" />
    <glyph glyph-name="slash" unicode="/" horiz-adv-x="428" 
d="M15 -128l300 850h70l-300 -850h-70z" />
    <glyph glyph-name="zero" unicode="0" 
d="M259 -8c-64.667 0 -117.334 24.167 -158.001 72.5s-61 110.833 -61 187.5c0 77.333 20.333 140 61 188s93.334 72 158.001 72c65.333 0 118.5 -24 159.5 -72s61.5 -110.667 61.5 -188c0 -76.667 -20.333 -139.167 -61 -187.5s-94 -72.5 -160 -72.5zM259 55
c45.333 0 81.167 17.667 107.5 53s39.5 83.333 39.5 144c0 62 -13 110.333 -39 145s-62 52 -108 52c-45.333 0 -81 -17.333 -107 -52s-39 -83 -39 -145c0 -60.667 13 -108.667 39 -144s61.667 -53 107 -53z" />
    <glyph glyph-name="one" unicode="1" 
d="M228 60v384h-128v60h199v-444h128v-60h-340v60h141z" />
    <glyph glyph-name="two" unicode="2" 
d="M50 0l-0.000976562 9l203 185c37.333 34 64.333 62.833 81 86.5s25 48.5 25 74.5c0 30 -9 53 -27 69s-41.667 24 -71 24c-60.667 0 -102.334 -34 -125.001 -102l-64 18c12 46 34.833 82.167 68.5 108.5s73.5 39.5 119.5 39.5c52.667 0 94.334 -14 125.001 -42
s46 -65.333 46 -112c0 -32 -10.333 -63.5 -31 -94.5s-51 -64.833 -91 -101.5l-76 -69c-5.33301 -5.33301 -12.333 -10.833 -21 -16.5s-16 -10.167 -22 -13.5l-9 -5c24.667 2 43.334 3 56.001 3h207v-61h-394z" />
    <glyph glyph-name="three" unicode="3" 
d="M247 -103c-50.667 0 -94.3311 11.4971 -130.998 34.4971s-64.334 54.833 -83.001 95.5l62 29c30 -64 80.667 -96 152 -96c40 0 73.167 12.833 99.5 38.5s39.5 60.834 39.5 105.501s-12.333 79 -37 103s-60 36 -106 36c-30 0 -57 -6 -81 -18l-7 10l149 180l31 33
c-17.333 -2.66699 -33.333 -4 -48 -4h-202v60h364v-7l-144 -173l-30 -27c53.333 -1.33301 97.5 -19.666 132.5 -54.999s52.5 -81.666 52.5 -138.999c0 -60.667 -19.833 -110.167 -59.5 -148.5s-90.834 -57.5 -153.501 -57.5z" />
    <glyph glyph-name="four" unicode="4" 
d="M405 80h74v-59h-74v-115h-70v115h-306v34l366 459h10v-434zM335 80v221.001l4 56c-11.333 -18.667 -22 -34.334 -32 -47.001l-153 -195c-4.66699 -6 -10 -12 -16 -18l-14 -14l-6 -5c17.333 1.33301 33.333 2 48 2h169z" />
    <glyph glyph-name="five" unicode="5" 
d="M247 -103c-47.333 0 -88 9.99902 -122 29.999s-59.333 46.333 -76 79l59 32c29.333 -52 75.666 -78 138.999 -78c42 0 75.667 13 101 39s38 60.333 38 103c0 44 -11.833 78.333 -35.5 103s-58.5 37 -104.5 37c-51.333 0 -98 -17.667 -140 -53l-9 3v312h328v-60h-267v-167
c27.333 17.333 61 26 101 26c60.667 0 109.334 -18.667 146.001 -56s55 -85.666 55 -144.999c0 -60 -19.5 -109.167 -58.5 -147.5s-90.5 -57.5 -154.5 -57.5z" />
    <glyph glyph-name="six" unicode="6" 
d="M261 -8c-58.667 0 -107.833 18.501 -147.5 55.501s-59.5 84.5 -59.5 142.5c0 48.667 21 103.334 63 164.001l172 256h79l-140 -208c-4.66699 -6.66699 -11 -14.334 -19 -23.001s-15 -15.667 -21 -21l-9 -9c29.333 24.667 61.333 37 96 37
c55.333 0 101.5 -18.333 138.5 -55s55.5 -83.334 55.5 -140.001s-19.833 -104 -59.5 -142s-89.167 -57 -148.5 -57zM260.001 54.001c41.333 0 74.832 12.835 100.499 38.502s38.5 58.5 38.5 98.5c0 41.333 -12.167 74.666 -36.5 99.999s-57.833 38 -100.5 38
c-41.333 0 -74.666 -13.333 -99.999 -40s-38 -59.334 -38 -98.001c0 -40 12.333 -72.833 37 -98.5s57.667 -38.5 99 -38.5z" />
    <glyph glyph-name="seven" unicode="7" 
d="M109 -94l255 538h-306v60h402v-9l-278 -589h-73z" />
    <glyph glyph-name="eight" unicode="8" 
d="M171 346c-51.333 25.333 -77.001 66.333 -77.001 123c0 41.333 15.833 76.5 47.5 105.5s71.167 43.5 118.5 43.5s87 -14.5 119 -43.5s48 -64.167 48 -105.5c0 -56 -26 -97 -78 -123c37.333 -13.333 66.833 -34.5 88.5 -63.5s32.5 -63.5 32.5 -103.5
c0 -54.667 -20.167 -99.5 -60.5 -134.5s-90.5 -52.5 -150.5 -52.5c-59.333 0 -109.166 17.667 -149.499 53s-60.5 80 -60.5 134c0 40 11 74.5 33 103.5s51.667 50.167 89 63.5zM259.999 372c29.333 0 53.166 8.66699 71.499 26s27.5 40 27.5 68
c0 27.333 -9.16699 49.666 -27.5 66.999s-42.166 26 -71.499 26c-30 0 -54 -8.66699 -72 -26s-27 -39.666 -27 -66.999c0 -28 9 -50.667 27 -68s42 -26 72 -26zM258.999 55c42 0 75.667 11.833 101 35.5s38 54.5 38 92.5c0 38.667 -12.667 70.167 -38 94.5
s-59 36.5 -101 36.5c-41.333 0 -74.5 -12.167 -99.5 -36.5s-37.5 -55.833 -37.5 -94.5s12.333 -69.667 37 -93s58 -35 100 -35z" />
    <glyph glyph-name="nine" unicode="9" 
d="M158 -94l134 196.998c4.66699 6 11 13.333 19 22s15 15.667 21 21l9 9c-30.667 -24.667 -62.667 -37 -96 -37c-55.333 0 -101.5 18.333 -138.5 55s-55.5 83.334 -55.5 140.001s19.833 104 59.5 142s89.167 57 148.5 57c58 0 107.167 -18.667 147.5 -56
s60.5 -84.666 60.5 -141.999c0 -47.333 -21.333 -102 -64 -164l-166 -244h-79zM258 175.998c41.333 0 74.833 13.167 100.5 39.5s38.5 58.833 38.5 97.5c0 40 -12.5 72.667 -37.5 98s-58.167 38 -99.5 38s-74.833 -12.667 -100.5 -38s-38.5 -58 -38.5 -98
c0 -41.333 12.167 -74.5 36.5 -99.5s57.833 -37.5 100.5 -37.5z" />
    <glyph glyph-name="colon" unicode=":" horiz-adv-x="200" 
d="M100 217c-14 0 -26.501 5.33301 -37.501 16s-16.5 23.667 -16.5 39s5.33301 28.166 16 38.499s23.334 15.5 38.001 15.5s27.334 -5.16699 38.001 -15.5s16 -23.166 16 -38.499s-5.33301 -28.333 -16 -39s-23.334 -16 -38.001 -16zM99.999 -7
c-14 0 -26.501 5.33301 -37.501 16s-16.5 23.667 -16.5 39s5.33301 28.166 16 38.499s23.334 15.5 38.001 15.5s27.334 -5.16699 38.001 -15.5s16 -23.166 16 -38.499s-5.33301 -28.333 -16 -39s-23.334 -16 -38.001 -16z" />
    <glyph glyph-name="semicolon" unicode=";" horiz-adv-x="200" 
d="M100 217c-14 0 -26.501 5.33301 -37.501 16s-16.5 23.667 -16.5 39s5.33301 28.166 16 38.499s23.334 15.5 38.001 15.5s27.334 -5.16699 38.001 -15.5s16 -23.166 16 -38.499s-5.33301 -28.333 -16 -39s-23.334 -16 -38.001 -16zM42.999 -112l38.999 111
c-24 8 -36 24.333 -36 49c0 14.667 5.5 27.334 16.5 38.001s23.5 16 37.5 16c14.667 0 27.334 -5.33301 38.001 -16s16 -23.334 16 -38.001c0 -12 -4 -25.333 -12 -40l-60 -120h-39z" />
    <glyph glyph-name="semicolon" unicode="&#x37e;" horiz-adv-x="200" 
d="M100 217c-14 0 -26.501 5.33301 -37.501 16s-16.5 23.667 -16.5 39s5.33301 28.166 16 38.499s23.334 15.5 38.001 15.5s27.334 -5.16699 38.001 -15.5s16 -23.166 16 -38.499s-5.33301 -28.333 -16 -39s-23.334 -16 -38.001 -16zM42.999 -112l38.999 111
c-24 8 -36 24.333 -36 49c0 14.667 5.5 27.334 16.5 38.001s23.5 16 37.5 16c14.667 0 27.334 -5.33301 38.001 -16s16 -23.334 16 -38.001c0 -12 -4 -25.333 -12 -40l-60 -120h-39z" />
    <glyph glyph-name="less" unicode="&#x3c;" 
d="M405 74l-320 165v10l320 163v-64l-212 -105l212 -105v-64z" />
    <glyph glyph-name="equal" unicode="=" 
d="M85 282v61h350v-61h-350zM85 152v62h350v-62h-350z" />
    <glyph glyph-name="greater" unicode="&#x3e;" 
d="M115 74v64l212 105l-212 105v64l320 -165v-10z" />
    <glyph glyph-name="question" unicode="?" horiz-adv-x="469" 
d="M174 187l-0.00292969 176.001h33c43.333 0 77.5 12.667 102.5 38s37.5 57.333 37.5 96c0 39.333 -11.5 70.5 -34.5 93.5s-53.167 34.5 -90.5 34.5c-33.333 0 -60.666 -7 -81.999 -21s-39.666 -36.333 -54.999 -67l-58 30c16.667 39.333 41.834 69.333 75.501 90
s73.5 31 119.5 31c58.667 0 106.167 -17.5 142.5 -52.5s54.5 -81.167 54.5 -138.5c0 -52.667 -16.5 -96.334 -49.5 -131.001s-76.167 -54 -129.5 -58v-121h-66zM205.997 -6.99902c-14 0 -26.333 5.16699 -37 15.5s-16 22.833 -16 37.5c0 15.333 5.33301 28.166 16 38.499
s23 15.5 37 15.5s26.333 -5.16699 37 -15.5s16 -23.166 16 -38.499c0 -14.667 -5.33301 -27.167 -16 -37.5s-23 -15.5 -37 -15.5z" />
    <glyph glyph-name="at" unicode="@" horiz-adv-x="886" 
d="M448 -206c-113.333 0 -208.166 36.498 -284.499 109.498s-114.5 168.167 -114.5 285.5c0 113.333 38.833 207.833 116.5 283.5s171.5 113.5 281.5 113.5c112.667 0 205.834 -35.167 279.501 -105.5s110.5 -158.166 110.5 -263.499c0 -74 -14.167 -129.667 -42.5 -167
s-65.833 -56 -112.5 -56c-66.667 0 -105.334 31.333 -116.001 94c-28.667 -64 -76.667 -96 -144 -96c-50 0 -91.667 18 -125 54s-50 81.667 -50 137s16.667 101.5 50 138.5s74.666 55.5 123.999 55.5c61.333 0 105.666 -28.667 132.999 -86l-2 76h69v-231
c0 -29.333 4.83301 -51.333 14.5 -66s25.834 -22 48.501 -22c27.333 0 49.333 13.833 66 41.5s25 69.834 25 126.501c0 92 -29.833 167.333 -89.5 226s-139.167 88 -238.5 88c-96.667 0 -176.167 -32.5 -238.5 -97.5s-93.5 -146.167 -93.5 -243.5
c0 -98.667 30.5 -180 91.5 -244s141.5 -96 241.5 -96c60 0 114.667 13.333 164 40l26 -50c-54 -30 -117.333 -45 -190 -45zM436 49.998c33.333 0 61.333 12.834 84 38.501s34 57.167 34 94.5s-11.333 69.166 -34 95.499s-50.667 39.5 -84 39.5c-34.667 0 -63 -13 -85 -39
s-33 -58 -33 -96s11 -69.667 33 -95s50.333 -38 85 -38z" />
    <glyph glyph-name="A" unicode="A" horiz-adv-x="656" 
d="M37 0l282 687h12l288 -687h-76l-46 114h-344l-45 -114h-71zM178 176h293l-120 302l-26 81c-9.33301 -32.667 -18.333 -59.667 -27 -81z" />
    <glyph glyph-name="B" unicode="B" horiz-adv-x="609" 
d="M93 0v679.999h231c60.667 0 107 -15.667 139 -47s48 -71.333 48 -120c0 -70.667 -29.333 -115.667 -88 -135c44 -10.667 78.333 -31.667 103 -63s37 -69.666 37 -114.999c0 -59.333 -18.333 -107.5 -55 -144.5s-90 -55.5 -160 -55.5h-255zM165 401.999h164
c38 0 65.833 9.66699 83.5 29s26.5 45.333 26.5 78c0 71.333 -40 107 -120 107h-154v-214zM165 63.999h178c50 0 87 12.5 111 37.5s36 58.5 36 100.5s-12.667 75.5 -38 100.5s-63 37.5 -113 37.5h-174v-276z" />
    <glyph glyph-name="C" unicode="C" horiz-adv-x="726" 
d="M403 -8c-98 0 -180.668 32.6689 -248.001 98.002s-101 148.666 -101 249.999s33.667 184.666 101 249.999s150 98 248 98c121.333 0 211.333 -44 270 -132l-55 -40c-48 71.333 -119.667 107 -215 107c-79.333 0 -144.833 -26.833 -196.5 -80.5
s-77.5 -121.167 -77.5 -202.5s25.833 -148.833 77.5 -202.5s117.167 -80.5 196.5 -80.5c96.667 0 171.334 38 224.001 114l56 -39c-30.667 -44.667 -70 -79.167 -118 -103.5s-102 -36.5 -162 -36.5z" />
    <glyph glyph-name="D" unicode="D" horiz-adv-x="680" 
d="M93 0v680h165c113.333 0 203 -30.833 269 -92.5s99 -144.167 99 -247.5s-33 -185.833 -99 -247.5s-155.667 -92.5 -269 -92.5h-165zM165 65h88c97.333 0 171.166 24.833 221.499 74.5s75.5 116.5 75.5 200.5s-25.167 150.833 -75.5 200.5s-124.166 74.5 -221.499 74.5
h-88v-550z" />
    <glyph glyph-name="E" unicode="E" horiz-adv-x="580" 
d="M93 0v680h414v-64h-342v-319h305v-63h-305v-170h356v-64h-428z" />
    <glyph glyph-name="F" unicode="F" horiz-adv-x="556" 
d="M93 0v680h409v-64h-337v-319h306v-66h-306v-231h-72z" />
    <glyph glyph-name="G" unicode="G" horiz-adv-x="743" 
d="M410 -8c-102 0 -186.833 32.501 -254.5 97.501s-101.5 148.5 -101.5 250.5c0 101.333 33.333 184.666 100 249.999s150 98 250 98c103.333 0 182.333 -29.333 237 -88l-49 -49c-46 48 -108.667 72 -188 72c-80 0 -145.833 -26.833 -197.5 -80.5
s-77.5 -121.167 -77.5 -202.5s26.333 -148.833 79 -202.5s120 -80.5 202 -80.5c82.667 0 149.667 20.667 201 62v140h-202v64h270v-237c-64 -62.667 -153.667 -94 -269 -94z" />
    <glyph glyph-name="H" unicode="H" horiz-adv-x="694" 
d="M93 0v680h72v-383h364v383h72v-680h-72v231h-364v-231h-72z" />
    <glyph glyph-name="I" unicode="I" horiz-adv-x="265" 
d="M96 0v680h73v-680h-73z" />
    <glyph glyph-name="J" unicode="J" horiz-adv-x="483" 
d="M209 -8c-80.667 0 -139.333 34 -176 102l59 37c28.667 -49.333 66.667 -74 114 -74c34.667 0 62 10.167 82 30.5s30 51.5 30 93.5v499h73v-501c0 -60.667 -16.667 -107 -50 -139s-77.333 -48 -132 -48z" />
    <glyph glyph-name="K" unicode="K" horiz-adv-x="607" 
d="M159 265c21.333 41.333 37.667 69.333 49 84l257 331h81l-252 -328l279 -352h-89l-237 299l-82 -99v-200h-72v680h72v-322c0 -18 -2 -49 -6 -93z" />
    <glyph glyph-name="L" unicode="L" horiz-adv-x="527" 
d="M93 0v680h72v-616h321v-64h-393z" />
    <glyph glyph-name="M" unicode="M" horiz-adv-x="837" 
d="M93 0v688h10l316 -395l314 395h11v-688h-70v449l3 78c-17.333 -29.333 -33.333 -53 -48 -71l-206 -260h-12l-203 260l-49 71c2.66699 -31.333 4 -57.333 4 -78v-449h-70z" />
    <glyph glyph-name="N" unicode="N" horiz-adv-x="713" 
d="M608 -7l-406 480l-47 63c4 -32 6 -57.667 6 -77v-459h-68v687h12l406 -480l47 -63c-3.33301 32 -5 57.667 -5 77v459h67v-687h-12z" />
    <glyph glyph-name="O" unicode="O" horiz-adv-x="807" 
d="M403 -8c-98 0 -180.667 32.667 -248 98s-101 148.666 -101 249.999s33.667 184.666 101 249.999s150 98 248 98c98.667 0 181.667 -32.667 249 -98s101 -148.666 101 -249.999s-33.667 -184.666 -101 -249.999s-150.333 -98 -249 -98zM403 57
c79.333 0 145 26.833 197 80.5s78 121.167 78 202.5s-26 148.833 -78 202.5s-117.667 80.5 -197 80.5c-78.667 0 -144 -26.833 -196 -80.5s-78 -121.167 -78 -202.5s26 -148.833 78 -202.5s117.333 -80.5 196 -80.5z" />
    <glyph glyph-name="P" unicode="P" horiz-adv-x="584" 
d="M93 0v679.999h154c90.667 0 160.167 -23 208.5 -69s72.5 -108.333 72.5 -187c0 -77.333 -24.167 -139.166 -72.5 -185.499s-117.833 -69.5 -208.5 -69.5h-82v-169h-72zM165 231.999l78 0.00195312c72.667 0 125.834 17.167 159.501 51.5s50.5 81.166 50.5 140.499
s-16.833 106.166 -50.5 140.499s-86.834 51.5 -159.501 51.5h-78v-384z" />
    <glyph glyph-name="Q" unicode="Q" horiz-adv-x="807" 
d="M651 89l103 -109.998l-50 -42l-104 112c-59.333 -38 -125 -57 -197 -57c-98 0 -180.667 32.667 -248 98s-101 148.666 -101 249.999s33.667 184.666 101 249.999s150 98 248 98c98.667 0 181.667 -32.667 249 -98s101 -148.666 101 -249.999
c0 -100.667 -34 -184.334 -102 -251.001zM554 99.002l-102.999 111.999l49 42l104 -113c49.333 52.667 74 119.334 74 200.001c0 81.333 -26 148.833 -78 202.5s-117.667 80.5 -197 80.5c-78.667 0 -144 -26.833 -196 -80.5s-78 -121.167 -78 -202.5s26 -148.833 78 -202.5
s117.333 -80.5 196 -80.5c57.333 0 107.666 14 150.999 42z" />
    <glyph glyph-name="R" unicode="R" horiz-adv-x="596" 
d="M386 209l147.999 -209h-85l-131 186c-22.667 -4 -46.667 -6 -72 -6h-81v-180h-72v680h153c90.667 0 160.334 -22.833 209.001 -68.5s73 -106.5 73 -182.5c0 -52 -12 -97 -36 -135s-59.333 -66.333 -106 -85zM164.999 243l77 0.000976562
c73.333 0 126.833 16.667 160.5 50s50.5 78.666 50.5 135.999s-17 102.833 -51 136.5s-87.333 50.5 -160 50.5h-77v-373z" />
    <glyph glyph-name="S" unicode="S" horiz-adv-x="531" 
d="M266 -8c-112 0 -191.001 45.999 -237.001 137.999l60 32c18.667 -32.667 41.5 -58.5 68.5 -77.5s62.5 -28.5 106.5 -28.5c40.667 0 74.334 10.5 101.001 31.5s40 49.167 40 84.5c0 32.667 -10 59.5 -30 80.5s-52.667 41.5 -98 61.5l-54 25
c-52 23.333 -90 48.833 -114 76.5s-36 64.167 -36 109.5c0 48.667 16.833 88 50.5 118s76.5 45 128.5 45c82 0 143.333 -34 184 -102l-58 -36c-30.667 49.333 -72.667 74 -126 74c-33.333 0 -59.666 -8.83301 -78.999 -26.5s-29 -41.167 -29 -70.5
c0 -28.667 8 -51.5 24 -68.5s44 -34.833 84 -53.5l54 -25c59.333 -26 102.666 -54.833 129.999 -86.5s41 -72.167 41 -121.5c0 -55.333 -19.667 -99.166 -59 -131.499s-90 -48.5 -152 -48.5z" />
    <glyph glyph-name="T" unicode="T" horiz-adv-x="556" 
d="M242 0v616h-209v64h490v-64h-209v-616h-72z" />
    <glyph glyph-name="U" unicode="U" horiz-adv-x="662" 
d="M331 -8c-72 0 -130.667 20.833 -176 62.5s-68 100.834 -68 177.501v448h72v-443c0 -59.333 15.167 -104.333 45.5 -135s72.5 -46 126.5 -46s96.167 15.333 126.5 46s45.5 75.667 45.5 135v443h72v-448c0 -76.667 -22.667 -135.834 -68 -177.501s-104 -62.5 -176 -62.5z
" />
    <glyph glyph-name="V" unicode="V" horiz-adv-x="656" 
d="M324 -7l-287 686.999h78l187 -461l29 -92c10 38.667 19.667 69.334 29 92.001l186 461h73l-283 -687h-12z" />
    <glyph glyph-name="W" unicode="W" horiz-adv-x="953" 
d="M260 -7l-224.999 687h77l143 -453l19 -74c7.33301 30 14.666 54.667 21.999 74l177 460h12l177 -460l22 -74c6.66699 30 13 54.667 19 74l142 453h73l-224 -687h-12l-183 484l-20 67c-6.66699 -26 -13.667 -48.333 -21 -67l-186 -484h-12z" />
    <glyph glyph-name="X" unicode="X" horiz-adv-x="635" 
d="M43 0l233 370l-196 310h82l135 -212l22 -47c6.66699 20 13.667 35.667 21 47l134 212h79l-195 -310l235 -370h-82l-173 272l-23 48c-6.66699 -20 -13.667 -36 -21 -48l-172 -272h-79z" />
    <glyph glyph-name="Y" unicode="Y" horiz-adv-x="656" 
d="M294 0l-0.00195312 213l-257 467h81l185 -338c4.66699 -8 9.33398 -17.667 14.001 -29s8.33398 -21 11.001 -29l4 -11c10 28 19.667 51 29 69l184 338h75l-252 -464v-216h-74z" />
    <glyph glyph-name="Z" unicode="Z" horiz-adv-x="581" 
d="M39 0v11l380 605h-326v64h438v-11l-379 -605h381v-64h-494z" />
    <glyph glyph-name="bracketleft" unicode="[" horiz-adv-x="300" 
d="M73 -128v850h190v-60h-120v-730h120v-60h-190z" />
    <glyph glyph-name="backslash" unicode="\" horiz-adv-x="429" 
d="M344 -128l-301 850h70l301 -850h-70z" />
    <glyph glyph-name="bracketright" unicode="]" horiz-adv-x="300" 
d="M37 -128v60h119v730h-119v60h191v-850h-191z" />
    <glyph glyph-name="asciicircum" unicode="^" horiz-adv-x="417" 
d="M68 463l136 225h9l136 -225h-58l-82 126l-83 -126h-58z" />
    <glyph glyph-name="underscore" unicode="_" horiz-adv-x="256" 
d="M-2 -128v62h260v-62h-260z" />
    <glyph glyph-name="grave" unicode="`" horiz-adv-x="500" 
d="M224 498l-93 193h80l68 -193h-55z" />
    <glyph glyph-name="a" unicode="a" horiz-adv-x="471" 
d="M331 243l0.000976562 10.001c0 74 -32.333 111 -97 111c-50.667 0 -91 -20 -121 -60l-43 39c39.333 53.333 95.666 80 168.999 80c48 0 87 -14.333 117 -43s45 -70.667 45 -126v-254h-70l3 62c-31.333 -46.667 -77 -70 -137 -70c-46 0 -82.833 10.667 -110.5 32
s-41.5 52.666 -41.5 93.999c0 40.667 14.667 71.667 44 93s67 32 113 32h129zM331.001 190.001h-124c-62.667 0 -94 -23 -94 -69c0 -48 33.333 -72 100 -72c32.667 0 60.5 8.16699 83.5 24.5s34.5 37.833 34.5 64.5v52z" />
    <glyph glyph-name="b" unicode="b" horiz-adv-x="551" 
d="M302 -8c-36 0 -67.999 8.83301 -95.999 26.5s-49.333 41.167 -64 70.5l2 -89h-69v722h69v-393c34 62.667 87 94 159 94c56.667 0 104.167 -20.5 142.5 -61.5s57.5 -92.167 57.5 -153.5c0 -62 -19.333 -113.5 -58 -154.5s-86.334 -61.5 -143.001 -61.5zM288.001 53
c43.333 0 78 14.5 104 43.5s39 66.167 39 111.5c0 44.667 -13 81.334 -39 110.001s-60.667 43 -104 43c-44 0 -79.5 -14.333 -106.5 -43s-40.5 -65.334 -40.5 -110.001c0 -45.333 13.5 -82.5 40.5 -111.5s62.5 -43.5 106.5 -43.5z" />
    <glyph glyph-name="c" unicode="c" horiz-adv-x="467" 
d="M263 -8c-60.667 0 -111.665 20.666 -152.998 61.999s-62 92.333 -62 153s20.667 111.834 62 153.501s92.333 62.5 153 62.5c68 0 122.333 -24.667 163 -74l-50 -41c-26.667 35.333 -64.334 53 -113.001 53c-43.333 0 -78 -14.5 -104 -43.5s-39 -65.833 -39 -110.5
s13 -81.5 39 -110.5s60.667 -43.5 104 -43.5c49.333 0 89 18 119 54l48 -41c-40.667 -49.333 -96.334 -74 -167.001 -74z" />
    <glyph glyph-name="d" unicode="d" horiz-adv-x="551" 
d="M249 -8c-56.667 0 -104.333 20.5 -143 61.5s-58 92.5 -58 154.5c0 61.333 19.333 112.5 58 153.5s86 61.5 142 61.5c72 0 125 -31.333 159 -94v393h69v-722h-69l2 89c-14.667 -29.333 -36 -52.833 -64 -70.5s-60 -26.5 -96 -26.5zM263.001 53c44 0 79.5 14.5 106.5 43.5
s40.5 66.167 40.5 111.5c0 44.667 -13.5 81.334 -40.5 110.001s-62.5 43 -106.5 43c-43.333 0 -78 -14.333 -104 -43s-39 -65.334 -39 -110.001c0 -45.333 13 -82.5 39 -111.5s60.667 -43.5 104 -43.5z" />
    <glyph glyph-name="e" unicode="e" horiz-adv-x="516" 
d="M118 184c4.66699 -40.667 20.3311 -73.001 46.998 -97.001s62.334 -36 107.001 -36c54.667 0 98.334 18.333 131.001 55l43 -42c-42.667 -48 -100.667 -72 -174 -72c-66.667 0 -120.667 20.5 -162 61.5s-62 92.167 -62 153.5c0 60.667 20.5 111.834 61.5 153.501
s91.833 62.5 152.5 62.5c65.333 0 117 -22.5 155 -67.5s55.667 -102.167 53 -171.5h-352zM118.997 236.999h281.001c-3.33301 37.333 -16.833 67.833 -40.5 91.5s-56.167 35.5 -97.5 35.5c-38.667 0 -70.834 -11.5 -96.501 -34.5s-41.167 -53.833 -46.5 -92.5z" />
    <glyph glyph-name="f" unicode="f" horiz-adv-x="318" 
d="M101 0l0.000976562 355h-67v59h67v188c0 44.667 10.333 78 31 100s48.667 33 84 33c46.667 0 81.667 -17 105 -51l-46 -41c-14.667 19.333 -32.334 29 -53.001 29c-34 0 -51 -23.333 -51 -70v-188h111v-59h-111v-355h-70z" />
    <glyph glyph-name="g" unicode="g" horiz-adv-x="471" 
d="M294 414l149.999 -0.00195312v-53h-81c22 -23.333 33 -51.666 33 -84.999c0 -42.667 -15 -78 -45 -106s-68.667 -42 -116 -42c-33.333 0 -61.666 6.33301 -84.999 19c-22.667 -6 -34 -20 -34 -42c0 -26 18 -40 54 -42l106 -8c116 -8.66699 174 -52.334 174 -131.001
c0 -45.333 -19.667 -81.166 -59 -107.499s-93 -39.5 -161 -39.5c-66 0 -117.833 12.167 -155.5 36.5s-56.5 57.5 -56.5 99.5c0 52 32.667 88 98 108c-38.667 12.667 -58 38.334 -58 77.001c0 35.333 19 60.666 57 75.999c-30 26 -45 60 -45 102
c0 42.667 15.5 77.834 46.5 105.501s70.5 41.5 118.5 41.5c21.333 0 41 -3 59 -9zM233.999 181.998c30.667 0 54.834 8.5 72.501 25.5s26.5 39.833 26.5 68.5c0 28 -8.83301 50.5 -26.5 67.5s-41.834 25.5 -72.501 25.5c-31.333 0 -55.833 -8.5 -73.5 -25.5
s-26.5 -39.5 -26.5 -67.5c0 -28.667 8.83301 -51.5 26.5 -68.5s42.167 -25.5 73.5 -25.5zM159.999 -0.00195312c-48.667 -14.667 -73 -41.667 -73 -81c0 -57.333 47.667 -86 143 -86c46.667 0 83.167 7.66699 109.5 23s39.5 37 39.5 65c0 23.333 -8.33301 40.5 -25 51.5
s-46.667 17.833 -90 20.5z" />
    <glyph glyph-name="h" unicode="h" horiz-adv-x="516" 
d="M74 0l0.000976562 721.999h70v-389c13.333 28 32.833 50 58.5 66s55.167 24 88.5 24c46.667 0 84.167 -15.167 112.5 -45.5s42.5 -72.166 42.5 -125.499v-252h-70v244c0 76.667 -34.333 115 -103 115c-38.667 0 -69.834 -11.667 -93.501 -35s-35.5 -55.333 -35.5 -96
v-228h-70z" />
    <glyph glyph-name="i" unicode="i" horiz-adv-x="222" 
d="M111 534c-13.333 0 -25 4.66699 -35 14s-15 21 -15 35s5 25.833 15 35.5s21.667 14.5 35 14.5s25 -4.83301 35 -14.5s15 -21.5 15 -35.5s-5 -25.667 -15 -35s-21.667 -14 -35 -14zM76 0v414h70v-414h-70z" />
    <glyph glyph-name="j" unicode="j" horiz-adv-x="222" 
d="M111 534c-13.333 0 -25 4.66699 -35 14s-15 21 -15 35s5 25.833 15 35.5s21.667 14.5 35 14.5s25 -4.83301 35 -14.5s15 -21.5 15 -35.5s-5 -25.667 -15 -35s-21.667 -14 -35 -14zM35 -222c-36.667 0 -67.333 13.667 -92 41l39 42c16.667 -15.333 32.667 -23 48 -23
c30.667 0 46 21 46 63v513h70v-512c0 -40 -10 -70.667 -30 -92s-47 -32 -81 -32z" />
    <glyph glyph-name="k" unicode="k" horiz-adv-x="463" 
d="M144 126v-125.999h-70v722h70v-463c0 -20.667 -1.66699 -40.334 -5 -59.001l197 214h81l-159 -174l184 -240h-83l-150 194z" />
    <glyph glyph-name="l" unicode="l" horiz-adv-x="228" 
d="M79 0v722h70v-722h-70z" />
    <glyph glyph-name="m" unicode="m" horiz-adv-x="757" 
d="M74 0l0.000976562 414h70l-2 -78c28 58 71.333 87 130 87c63.333 0 105 -29 125 -87c32 58 79.667 87 143 87c45.333 0 81.166 -14.167 107.499 -42.5s39.5 -66.833 39.5 -115.5v-265h-69v256c0 68.667 -30.333 103 -91 103c-34 0 -61 -11.167 -81 -33.5
s-30 -53.5 -30 -93.5v-232h-70v256c0 68.667 -30 103 -90 103c-34 0 -61.167 -11.167 -81.5 -33.5s-30.5 -53.5 -30.5 -93.5v-232h-70z" />
    <glyph glyph-name="n" unicode="n" horiz-adv-x="516" 
d="M74 0l0.00292969 413.999h70l-2 -85c13.333 29.333 33.166 52.333 59.499 69s56.166 25 89.499 25c46.667 0 84.167 -15.167 112.5 -45.5s42.5 -72.166 42.5 -125.499v-252h-70v244c0 76.667 -34.333 115 -103 115c-38.667 0 -69.834 -11.667 -93.501 -35
s-35.5 -55.333 -35.5 -96v-228h-70z" />
    <glyph glyph-name="o" unicode="o" horiz-adv-x="534" 
d="M268 -8c-62 0 -114.167 20.667 -156.5 62s-63.5 92.333 -63.5 153s21.167 111.834 63.5 153.501s94.5 62.5 156.5 62.5c61.333 0 113 -20.833 155 -62.5s63 -92.834 63 -153.501s-21 -111.667 -63 -153s-93.667 -62 -155 -62zM268 52c43.333 0 78.666 14.667 105.999 44
s41 66.333 41 111s-13.667 81.667 -41 111s-62.666 44 -105.999 44c-44 0 -79.833 -14.667 -107.5 -44s-41.5 -66.333 -41.5 -111s13.833 -81.667 41.5 -111s63.5 -44 107.5 -44z" />
    <glyph glyph-name="p" unicode="p" horiz-adv-x="551" 
d="M75 -212l0.000976562 626h69l-2 -89c33.333 65.333 87 98 161 98c56.667 0 104.167 -20.5 142.5 -61.5s57.5 -92.167 57.5 -153.5c0 -62 -19.333 -113.5 -58 -154.5s-86.334 -61.5 -143.001 -61.5c-36 0 -67.833 8.66699 -95.5 26s-48.5 40 -62.5 68v-298h-69z
M288.001 53c43.333 0 78 14.5 104 43.5s39 66.167 39 111.5c0 44.667 -13 81.334 -39 110.001s-60.667 43 -104 43c-44 0 -79.5 -14.333 -106.5 -43s-40.5 -65.334 -40.5 -110.001c0 -45.333 13.5 -82.5 40.5 -111.5s62.5 -43.5 106.5 -43.5z" />
    <glyph glyph-name="q" unicode="q" horiz-adv-x="552" 
d="M407 -212l0.000976562 298c-14 -28 -34.833 -50.667 -62.5 -68s-59.5 -26 -95.5 -26c-56.667 0 -104.334 20.5 -143.001 61.5s-58 92.5 -58 154.5c0 61.333 19.333 112.5 58 153.5s86 61.5 142 61.5c74 0 127.667 -32.667 161 -98l-2 89h70v-626h-70zM263.001 53
c44 0 79.5 14.5 106.5 43.5s40.5 66.167 40.5 111.5c0 44.667 -13.5 81.334 -40.5 110.001s-62.5 43 -106.5 43c-43.333 0 -78 -14.333 -104 -43s-39 -65.334 -39 -110.001c0 -45.333 13 -82.5 39 -111.5s60.667 -43.5 104 -43.5z" />
    <glyph glyph-name="r" unicode="r" horiz-adv-x="357" 
d="M74 0v414h70l-2 -81c24.667 59.333 65 89 121 89c28.667 0 52.667 -6.66699 72 -20l-27 -61c-15.333 10.667 -34.333 16 -57 16c-31.333 0 -57 -11.667 -77 -35s-30 -58 -30 -104v-218h-70z" />
    <glyph glyph-name="s" unicode="s" horiz-adv-x="410" 
d="M213 -8c-42.667 0 -79.167 9.00195 -109.5 27.002s-52.833 41 -67.5 69l54 31c28 -46.667 68 -70 120 -70c28 0 49.667 5.5 65 16.5s23 26.167 23 45.5c0 20.667 -7.5 35.5 -22.5 44.5s-43.5 19.5 -85.5 31.5c-40 11.333 -70.833 25.833 -92.5 43.5
s-32.5 44.167 -32.5 79.5c0 34.667 12.833 62.167 38.5 82.5s58.167 30.5 97.5 30.5c60.667 0 106.667 -22.333 138 -67l-48 -37c-22.667 31.333 -52.667 47 -90 47c-22 0 -39.5 -4.83301 -52.5 -14.5s-19.5 -22.5 -19.5 -38.5c0 -18.667 6.66699 -32.334 20 -41.001
s39.333 -18.667 78 -30c42.667 -11.333 76.167 -26.333 100.5 -45s36.5 -46 36.5 -82c0 -36.667 -12.667 -66.334 -38 -89.001s-63 -34 -113 -34z" />
    <glyph glyph-name="t" unicode="t" horiz-adv-x="336" 
d="M209 -9c-34 0 -61 10.667 -81 32s-30 55.333 -30 102v230h-64v59h64v216h69v-216h116v-59h-116v-231c0 -48 16.333 -72 49 -72c20 0 38.667 8 56 24l38 -44c-26 -27.333 -59.667 -41 -101 -41z" />
    <glyph glyph-name="u" unicode="u" horiz-adv-x="515" 
d="M225 -9c-46.667 0 -84.166 15.166 -112.499 45.499s-42.5 71.5 -42.5 123.5v254h70v-247c0 -74.667 34 -112 102 -112c39.333 0 70.666 11.833 93.999 35.5s35 55.5 35 95.5v228h70v-414h-70l2 84c-13.333 -29.333 -33 -52.166 -59 -68.499s-55.667 -24.5 -89 -24.5z" />
    <glyph glyph-name="v" unicode="v" horiz-adv-x="462" 
d="M226 -8l-201 421.999h77l110 -239c4 -8 7.83301 -18 11.5 -30s6.5 -21.667 8.5 -29l3 -12c6 28.667 13.333 52.334 22 71.001l108 239h72l-198 -422h-13z" />
    <glyph glyph-name="w" unicode="w" horiz-adv-x="683" 
d="M195 -9l-170 423.001h76l89 -228l19 -64c5.33301 24.667 12.333 46 21 64l108 234h9l110 -233c4 -8 7.83301 -17.5 11.5 -28.5s6.16699 -19.833 7.5 -26.5l3 -10c5.33301 25.333 11.666 47 18.999 65l89 227h71l-172 -423h-10l-114 249
c-3.33301 7.33301 -6.66602 16.166 -9.99902 26.499l-8 25.5l-2 9c-6 -24.667 -12.667 -45 -20 -61l-117 -249h-10z" />
    <glyph glyph-name="x" unicode="x" horiz-adv-x="470" 
d="M31 0l164 220l-142 194h83l78 -108l24 -43c5.33301 18 12 32.333 20 43l79 108h77l-140 -189l165 -225h-84l-98 136l-26 46c-8 -20 -16 -35.333 -24 -46l-99 -136h-77z" />
    <glyph glyph-name="y" unicode="y" horiz-adv-x="462" 
d="M95 -212l106 247.001l-176 379h77l117 -257c3.33301 -8 6.5 -17.833 9.5 -29.5l7.5 -29.5l2 -11c4.66699 29.333 11 52.666 19 69.999l108 257h72l-270 -626h-72z" />
    <glyph glyph-name="z" unicode="z" horiz-adv-x="417" 
d="M32 0v10l239 346h-213v58h326v-11l-241 -345h236v-58h-347z" />
    <glyph glyph-name="braceleft" unicode="{" horiz-adv-x="300" 
d="M225 -128c-88.667 0 -133 48.002 -133 144.002v151c0 25.333 -4.66699 43.166 -14 53.499s-24 15.5 -44 15.5h-33v61h33c20 0 34.667 5.16699 44 15.5s14 28.166 14 53.499v212c0 96 44.333 144 133 144h38v-60h-33c-22.667 0 -39.5 -6.33301 -50.5 -19
s-16.5 -34.667 -16.5 -66v-218c0 -52 -21.667 -82.667 -65 -92c43.333 -9.33301 65 -40.333 65 -93v-157c0 -31.333 5.5 -53.333 16.5 -66s27.833 -19 50.5 -19h33v-60h-38z" />
    <glyph glyph-name="bar" unicode="|" horiz-adv-x="237" 
d="M85 -128v850h67v-850h-67z" />
    <glyph glyph-name="braceright" unicode="}" horiz-adv-x="300" 
d="M36 -128v59.998h34c22 0 38.5 6.33301 49.5 19s16.5 34.667 16.5 66v157c0 52.667 21.667 83.667 65 93c-43.333 9.33301 -65 40 -65 92v218c0 31.333 -5.5 53.333 -16.5 66s-27.5 19 -49.5 19h-34v60h38c88.667 0 133 -48 133 -144v-212
c0 -25.333 4.83301 -43.166 14.5 -53.499s24.167 -15.5 43.5 -15.5h33v-61h-33c-19.333 0 -33.833 -5.16699 -43.5 -15.5s-14.5 -28.166 -14.5 -53.499v-151c0 -96 -44.333 -144 -133 -144h-38z" />
    <glyph glyph-name="asciitilde" unicode="~" horiz-adv-x="393" 
d="M103 224l-52.001 5.00195c1.33301 35.333 9.83301 62.666 25.5 81.999s35.834 29 60.501 29c22 0 45 -11 69 -33c20 -16.667 33.667 -25.667 41 -27c2 -0.666992 4.33301 -1 7 -1c20 0 32 19.667 36 59l52 -5c-1.33301 -35.333 -9.5 -62.5 -24.5 -81.5
s-35.167 -28.5 -60.5 -28.5c-22 0 -45 11 -69 33c-14 11.333 -23.667 18.666 -29 21.999s-12 5 -20 5c-20 0 -32 -19.667 -36 -59z" />
    <glyph glyph-name="nbspace" unicode="&#xa0;" horiz-adv-x="182" 
 />
    <glyph glyph-name="exclamdown" unicode="&#xa1;" horiz-adv-x="244" 
d="M122 687c14 0 26.333 -5.16699 37 -15.5s16 -22.833 16 -37.5c0 -15.333 -5.33301 -28.166 -16 -38.499s-23 -15.5 -37 -15.5s-26.333 5.16699 -37 15.5s-16 23.166 -16 38.499c0 14.667 5.33301 27.167 16 37.5s23 15.5 37 15.5zM149 490l12 -490h-78l12 490h54z" />
    <glyph glyph-name="cent" unicode="&#xa2;" 
d="M257 -6c-54 7.33301 -98.3359 30.833 -133.003 70.5s-52 87.167 -52 142.5s17.5 103 52.5 143s79.167 63.667 132.5 71v108h51v-107c58.667 -4 106.334 -28.333 143.001 -73l-49 -40c-23.333 30 -54.666 47.333 -93.999 52v-308c40.667 4.66699 74 22.667 100 54l48 -41
c-37.333 -44.667 -86.666 -69 -147.999 -73v-109h-51v110zM256.997 359c-34.667 -6.66699 -62.332 -23.832 -82.999 -51.499s-31 -61.167 -31 -100.5s10.167 -72.833 30.5 -100.5s48.166 -44.834 83.499 -51.501v304z" />
    <glyph glyph-name="sterling" unicode="&#xa3;" 
d="M155 260l-95.001 0.00195312v56h71c-20.667 52 -31 96 -31 132c0 48.667 16.5 89.167 49.5 121.5s76.833 48.5 131.5 48.5c82.667 0 141.334 -36.333 176.001 -109l-57 -31c-14 27.333 -29.833 47 -47.5 59s-41.5 18 -71.5 18c-34 0 -60.833 -9.83301 -80.5 -29.5
s-29.5 -46.834 -29.5 -81.501c0 -31.333 10 -74 30 -128h154v-56h-133c20.667 -59.333 31 -108.666 31 -147.999v-8c43.333 -33.333 80.333 -50 111 -50c20.667 0 37.167 3 49.5 9s25.166 16.667 38.499 32l42 -43c-16.667 -20.667 -34.667 -35.834 -54 -45.501
s-44 -14.5 -74 -14.5c-42 0 -86.333 18.667 -133 56c-24.667 -37.333 -61 -56 -109 -56c-31.333 0 -56.5 8.5 -75.5 25.5s-28.5 38.833 -28.5 65.5c0 26 9.16699 47 27.5 63s41.5 24 69.5 24c24.667 0 49.334 -7.33301 74.001 -22c-4 25.333 -16 62.666 -36 111.999z
M189.999 86.002c-27.333 24 -50.332 36 -68.999 36c-14 0 -25.167 -3.66699 -33.5 -11s-12.5 -17.333 -12.5 -30s4.33301 -22.667 13 -30s19.667 -11 33 -11c16 0 30.167 4.33301 42.5 13s21.166 19.667 26.499 33z" />
    <glyph glyph-name="currency" unicode="&#xa4;" 
d="M80 283l-60.999 0.000976562v56h72c15.333 52 42.833 93.833 82.5 125.5s85.167 47.5 136.5 47.5c82 0 144.333 -32.333 187 -97l-52 -37c-16.667 26 -35 44.667 -55 56s-46.667 17 -80 17s-62.833 -10 -88.5 -30s-44.834 -47.333 -57.501 -82h192v-56h-204
c0 -3.33301 -0.166992 -8.33301 -0.5 -15s-0.5 -12 -0.5 -16c0 -8 0.666992 -18.667 2 -32h203v-56h-191c12 -34.667 30.833 -61.834 56.5 -81.501s55.167 -29.5 88.5 -29.5c34.667 0 62.167 6.5 82.5 19.5s38.5 32.5 54.5 58.5l55 -34c-42 -70 -106 -105 -192 -105
c-50 0 -94.833 15.667 -134.5 47s-67.5 73 -83.5 125h-73v56h62c-1.33301 13.333 -2 24 -2 32c0 14 0.333008 24.333 1 31z" />
    <glyph glyph-name="yen" unicode="&#xa5;" 
d="M222 167l-38 69h-137v56h106l-117 212h79l124 -229c4.66699 -8.66699 9 -18.5 13 -29.5s6.66699 -19.833 8 -26.5l2 -10c5.33301 24 13.333 46 24 66l124 229h73l-117 -212h106v-56h-137l-38 -69h175v-56h-177v-111h-71v111h-177v56h175z" />
    <glyph glyph-name="brokenbar" unicode="&#xa6;" horiz-adv-x="200" 
d="M101 189c-14 0 -26.501 5.33301 -37.501 16s-16.5 23.667 -16.5 39s5.33301 28.166 16 38.499s23.334 15.5 38.001 15.5s27.334 -5.16699 38.001 -15.5s16 -23.166 16 -38.499s-5.33301 -28.333 -16 -39s-23.334 -16 -38.001 -16z" />
    <glyph glyph-name="section" unicode="&#xa7;" 
d="M256 -103c-44 0 -82.002 9.6709 -114.002 29.0039s-55.333 45.666 -70 78.999l56 27c26.667 -50.667 68.667 -76 126 -76c29.333 0 52.5 6.83301 69.5 20.5s25.5 31.834 25.5 54.501c0 19.333 -6.33301 35.166 -19 47.499s-33.667 24.166 -63 35.499l-89 35
c-47.333 18 -81.333 38.333 -102 61s-31 51.667 -31 87c0 49.333 27 85.666 81 108.999c-13.333 21.333 -20 45.666 -20 72.999c0 40.667 14.833 74 44.5 100s66.834 39 111.501 39c76.667 0 130 -33.667 160 -101l-57 -26c-10 22 -22.667 39 -38 51s-36.333 18 -63 18
c-27.333 0 -49.166 -7 -65.499 -21s-24.5 -33.333 -24.5 -58c0 -21.333 5.33301 -38.666 16 -51.999s29 -25.333 55 -36l98 -39c46.667 -18 80.5 -38.667 101.5 -62s31.5 -51 31.5 -83c0 -48 -26.667 -82.667 -80 -104c15.333 -20.667 23 -45.334 23 -74.001
c0 -40.667 -14.333 -73.167 -43 -97.5s-68.667 -36.5 -120 -36.5zM359.998 138.004c33.333 12 49.999 32.668 49.999 62.001c0 20.667 -6.16699 37.667 -18.5 51s-35.166 26.666 -68.499 39.999l-98 39c-29.333 11.333 -52.333 26 -69 44c-29.333 -14 -44 -37 -44 -69
c0 -22.667 6 -40.667 18 -54s34 -26.333 66 -39l90 -35c27.333 -9.33301 52 -22.333 74 -39z" />
    <glyph glyph-name="dieresis" unicode="&#xa8;" horiz-adv-x="500" 
d="M337 516c-12 0 -22.833 4.66699 -32.5 14s-14.5 20 -14.5 32c0 12.667 4.83301 23.5 14.5 32.5s20.5 13.5 32.5 13.5s22.667 -4.5 32 -13.5s14 -19.833 14 -32.5s-4.66699 -23.5 -14 -32.5s-20 -13.5 -32 -13.5zM163 516c-12 0 -22.667 4.5 -32 13.5s-14 19.833 -14 32.5
s4.66699 23.5 14 32.5s20 13.5 32 13.5c12.667 0 23.667 -4.5 33 -13.5s14 -19.833 14 -32.5s-4.66699 -23.5 -14 -32.5s-20.333 -13.5 -33 -13.5z" />
    <glyph glyph-name="copyright" unicode="&#xa9;" horiz-adv-x="598" 
d="M300 -7c-72 0 -133.5 24.833 -184.5 74.5s-76.5 111.167 -76.5 184.5c0 74 25.5 135.833 76.5 185.5s112.5 74.5 184.5 74.5c71.333 0 132.333 -24.833 183 -74.5s76 -111.5 76 -185.5c0 -73.333 -25.333 -134.833 -76 -184.5s-111.667 -74.5 -183 -74.5zM300 33
c61.333 0 112.833 20.667 154.5 62s62.5 93.666 62.5 156.999c0 64 -20.833 116.667 -62.5 158s-93.167 62 -154.5 62c-62 0 -114 -20.667 -156 -62s-63 -94 -63 -158c0 -63.333 21 -115.666 63 -156.999s94 -62 156 -62zM303 103c-42 0 -77.166 14.166 -105.499 42.499
s-42.5 63.833 -42.5 106.5s14 78.334 42 107.001s62.667 43 104 43c44.667 0 83 -17 115 -51l-41 -38c-17.333 22.667 -40.666 34 -69.999 34c-25.333 0 -46 -9 -62 -27s-24 -40.667 -24 -68c0 -26.667 8 -49 24 -67s36.667 -27 62 -27c29.333 0 53.666 12 72.999 36l41 -38
c-30.667 -35.333 -69.334 -53 -116.001 -53z" />
    <glyph glyph-name="ordfeminine" unicode="&#xaa;" horiz-adv-x="402" 
d="M284 363c0 35.333 -7 59.999 -21 73.999s-34.333 21 -61 21c-40 0 -73.667 -16.667 -101 -50l-40 35c32.667 46 81.334 69 146.001 69c42.667 0 77 -12 103 -36s39 -61 39 -111v-211h-65l1 46c-25.333 -36 -63.333 -54 -114 -54c-38.667 0 -70.334 9.33301 -95.001 28
s-37 45.667 -37 81c0 34.667 13.167 61.334 39.5 80.001s59.5 28 99.5 28h106zM284 313.999h-99c-54 0 -81 -19 -81 -57c0 -39.333 27.333 -59 82 -59c28 0 51.333 6.83301 70 20.5s28 32.167 28 55.5v40z" />
    <glyph glyph-name="guillemotleft" unicode="&#xab;" horiz-adv-x="397" 
d="M287 37l-94 159v8l94 157h72l-96 -161l96 -163h-72zM132 37l-94 159v8l94 157h72l-96 -161l96 -163h-72z" />
    <glyph glyph-name="logicalnot" unicode="&#xac;" horiz-adv-x="200" 
d="M101 189c-14 0 -26.501 5.33301 -37.501 16s-16.5 23.667 -16.5 39s5.33301 28.166 16 38.499s23.334 15.5 38.001 15.5s27.334 -5.16699 38.001 -15.5s16 -23.166 16 -38.499s-5.33301 -28.333 -16 -39s-23.334 -16 -38.001 -16z" />
    <glyph glyph-name="registered" unicode="&#xae;" horiz-adv-x="514" 
d="M255 265c-60 0 -111.167 20.5 -153.5 61.5s-63.5 91.833 -63.5 152.5c0 62 21 113.333 63 154s93.333 61 154 61c61.333 0 113.5 -20.5 156.5 -61.5s64.5 -92.167 64.5 -153.5c0 -60.667 -21.5 -111.5 -64.5 -152.5s-95.167 -61.5 -156.5 -61.5zM255 300
c52.667 0 96 16.5 130 49.5s51 76.167 51 129.5c0 54 -17 97.5 -51 130.5s-77.333 49.5 -130 49.5c-51.333 0 -93.5 -16.5 -126.5 -49.5s-49.5 -76.5 -49.5 -130.5c0 -53.333 16.5 -96.5 49.5 -129.5s75.167 -49.5 126.5 -49.5zM306 432l47 -70.001h-48l-39 59
c-2.66699 -0.666992 -7.33398 -1 -14.001 -1h-30v-58h-44v237h73c32.667 0 57.834 -8.66699 75.501 -26s26.5 -38.666 26.5 -63.999c0 -36 -15.667 -61.667 -47 -77zM222 454.999h29c38.667 0 58 17.667 58 53c0 36 -19.333 54 -58 54h-29v-107z" />
    <glyph glyph-name="macron" unicode="&#xaf;" horiz-adv-x="500" 
d="M145 518v55h210v-55h-210z" />
    <glyph glyph-name="macron" unicode="&#x2c9;" horiz-adv-x="500" 
d="M145 518v55h210v-55h-210z" />
    <glyph glyph-name="degree" unicode="&#xb0;" horiz-adv-x="350" 
d="M175 286c-32 0 -59.5 11 -82.5 33s-34.5 48.667 -34.5 80c0 32 11.5 58.833 34.5 80.5s50.5 32.5 82.5 32.5s59.5 -10.833 82.5 -32.5s34.5 -48.5 34.5 -80.5c0 -31.333 -11.5 -58 -34.5 -80s-50.5 -33 -82.5 -33zM175 332c19.333 0 34.833 6.16699 46.5 18.5
s17.5 28.5 17.5 48.5s-5.83301 36.167 -17.5 48.5s-27.167 18.5 -46.5 18.5s-35 -6.33301 -47 -19s-18 -28.667 -18 -48s6 -35.333 18 -48s27.667 -19 47 -19z" />
    <glyph glyph-name="twosuperior" unicode="&#xb2;" horiz-adv-x="200" 
d="M101 189c-14 0 -26.501 5.33301 -37.501 16s-16.5 23.667 -16.5 39s5.33301 28.166 16 38.499s23.334 15.5 38.001 15.5s27.334 -5.16699 38.001 -15.5s16 -23.166 16 -38.499s-5.33301 -28.333 -16 -39s-23.334 -16 -38.001 -16z" />
    <glyph glyph-name="threesuperior" unicode="&#xb3;" horiz-adv-x="200" 
d="M101 189c-14 0 -26.501 5.33301 -37.501 16s-16.5 23.667 -16.5 39s5.33301 28.166 16 38.499s23.334 15.5 38.001 15.5s27.334 -5.16699 38.001 -15.5s16 -23.166 16 -38.499s-5.33301 -28.333 -16 -39s-23.334 -16 -38.001 -16z" />
    <glyph glyph-name="acute" unicode="&#xb4;" horiz-adv-x="500" 
d="M221 498l68 193h80l-93 -193h-55z" />
    <glyph glyph-name="mu" unicode="&#xb5;" horiz-adv-x="200" 
d="M101 189c-14 0 -26.501 5.33301 -37.501 16s-16.5 23.667 -16.5 39s5.33301 28.166 16 38.499s23.334 15.5 38.001 15.5s27.334 -5.16699 38.001 -15.5s16 -23.166 16 -38.499s-5.33301 -28.333 -16 -39s-23.334 -16 -38.001 -16z" />
    <glyph glyph-name="mu" unicode="&#x3bc;" horiz-adv-x="200" 
d="M101 189c-14 0 -26.501 5.33301 -37.501 16s-16.5 23.667 -16.5 39s5.33301 28.166 16 38.499s23.334 15.5 38.001 15.5s27.334 -5.16699 38.001 -15.5s16 -23.166 16 -38.499s-5.33301 -28.333 -16 -39s-23.334 -16 -38.001 -16z" />
    <glyph glyph-name="paragraph" unicode="&#xb6;" horiz-adv-x="625" 
d="M312 0v304.001h-64c-60 0 -107.833 17.833 -143.5 53.5s-53.5 80.167 -53.5 133.5s17.833 98.166 53.5 134.499s83.5 54.5 143.5 54.5h284v-680h-69v618h-80v-618h-71zM249 365.001l63 0.000976562v253h-63c-37.333 0 -66.833 -11.333 -88.5 -34
s-32.5 -53.334 -32.5 -92.001s10.833 -69.5 32.5 -92.5s51.167 -34.5 88.5 -34.5z" />
    <glyph glyph-name="periodcentered" unicode="&#xb7;" horiz-adv-x="202" 
d="M101 189c-14 0 -26.501 5.33301 -37.501 16s-16.5 23.667 -16.5 39s5.33301 28.166 16 38.499s23.334 15.5 38.001 15.5s27.334 -5.16699 38.001 -15.5s16 -23.166 16 -38.499s-5.33301 -28.333 -16 -39s-23.334 -16 -38.001 -16z" />
    <glyph glyph-name="periodcentered" unicode="&#x2219;" horiz-adv-x="202" 
d="M101 189c-14 0 -26.501 5.33301 -37.501 16s-16.5 23.667 -16.5 39s5.33301 28.166 16 38.499s23.334 15.5 38.001 15.5s27.334 -5.16699 38.001 -15.5s16 -23.166 16 -38.499s-5.33301 -28.333 -16 -39s-23.334 -16 -38.001 -16z" />
    <glyph glyph-name="cedilla" unicode="&#xb8;" horiz-adv-x="500" 
d="M256 -232c-48 0 -81.667 19.667 -101 59l43 25c5.33301 -8.66699 9.66602 -15.167 12.999 -19.5s8.5 -8.33301 15.5 -12s15.5 -5.5 25.5 -5.5c12.667 0 23.334 4 32.001 12s13 19 13 33s-4.5 25.333 -13.5 34s-22.167 13 -39.5 13h-22v93h48v-53
c22.667 -3.33301 42 -13 58 -29s24 -36.667 24 -62c0 -26.667 -9.5 -48 -28.5 -64s-41.5 -24 -67.5 -24z" />
    <glyph glyph-name="onesuperior" unicode="&#xb9;" horiz-adv-x="200" 
d="M101 189c-14 0 -26.501 5.33301 -37.501 16s-16.5 23.667 -16.5 39s5.33301 28.166 16 38.499s23.334 15.5 38.001 15.5s27.334 -5.16699 38.001 -15.5s16 -23.166 16 -38.499s-5.33301 -28.333 -16 -39s-23.334 -16 -38.001 -16z" />
    <glyph glyph-name="ordmasculine" unicode="&#xba;" horiz-adv-x="454" 
d="M227 146c-51.333 0 -95 17.5 -131 52.5s-54 78.5 -54 130.5c0 51.333 18 94.666 54 129.999s79.667 53 131 53s95 -17.667 131 -53s54 -78.666 54 -129.999c0 -52 -18 -95.5 -54 -130.5s-79.667 -52.5 -131 -52.5zM227 201c35.333 0 64 12 86 36s33 54.667 33 92
s-11 67.833 -33 91.5s-50.667 35.5 -86 35.5s-63.833 -11.833 -85.5 -35.5s-32.5 -54.167 -32.5 -91.5c0 -38 10.833 -68.833 32.5 -92.5s50.167 -35.5 85.5 -35.5z" />
    <glyph glyph-name="guillemotright" unicode="&#xbb;" horiz-adv-x="397" 
d="M193 37l96 162l-96 162h72l94 -158v-8l-94 -158h-72zM38 37l96 162l-96 162h72l94 -158v-8l-94 -158h-72z" />
    <glyph glyph-name="onequarter" unicode="&#xbc;" horiz-adv-x="200" 
d="M101 189c-14 0 -26.501 5.33301 -37.501 16s-16.5 23.667 -16.5 39s5.33301 28.166 16 38.499s23.334 15.5 38.001 15.5s27.334 -5.16699 38.001 -15.5s16 -23.166 16 -38.499s-5.33301 -28.333 -16 -39s-23.334 -16 -38.001 -16z" />
    <glyph glyph-name="onehalf" unicode="&#xbd;" horiz-adv-x="200" 
d="M101 189c-14 0 -26.501 5.33301 -37.501 16s-16.5 23.667 -16.5 39s5.33301 28.166 16 38.499s23.334 15.5 38.001 15.5s27.334 -5.16699 38.001 -15.5s16 -23.166 16 -38.499s-5.33301 -28.333 -16 -39s-23.334 -16 -38.001 -16z" />
    <glyph glyph-name="threequarters" unicode="&#xbe;" horiz-adv-x="200" 
d="M101 189c-14 0 -26.501 5.33301 -37.501 16s-16.5 23.667 -16.5 39s5.33301 28.166 16 38.499s23.334 15.5 38.001 15.5s27.334 -5.16699 38.001 -15.5s16 -23.166 16 -38.499s-5.33301 -28.333 -16 -39s-23.334 -16 -38.001 -16z" />
    <glyph glyph-name="questiondown" unicode="&#xbf;" horiz-adv-x="469" 
d="M263 687c14 0 26.333 -5.16699 37 -15.5s16 -22.833 16 -37.5c0 -15.333 -5.33301 -28.166 -16 -38.499s-23 -15.5 -37 -15.5s-26.333 5.16699 -37 15.5s-16 23.166 -16 38.499c0 14.667 5.33301 27.167 16 37.5s23 15.5 37 15.5zM295 493l0.00292969 -176.001h-33
c-43.333 0 -77.5 -12.667 -102.5 -38s-37.5 -57.333 -37.5 -96c0 -39.333 11.5 -70.5 34.5 -93.5s53.167 -34.5 90.5 -34.5c33.333 0 60.666 7 81.999 21s39.666 36.333 54.999 67l58 -30c-16.667 -39.333 -41.834 -69.333 -75.501 -90s-73.5 -31 -119.5 -31
c-58.667 0 -106.167 17.5 -142.5 52.5s-54.5 81.167 -54.5 138.5c0 52.667 16.5 96.334 49.5 131.001s76.167 54 129.5 58v121h66z" />
    <glyph glyph-name="Agrave" unicode="&#xc0;" horiz-adv-x="656" 
d="M299 753l-93 193h80l68 -193h-55zM37 0l282 687h12l288 -687h-76l-46 114h-344l-45 -114h-71zM178 176h293l-120 302l-26 81c-9.33301 -32.667 -18.333 -59.667 -27 -81z" />
    <glyph glyph-name="Aacute" unicode="&#xc1;" horiz-adv-x="656" 
d="M299 753l68 193h80l-93 -193h-55zM37 0l282 687h12l288 -687h-76l-46 114h-344l-45 -114h-71zM178 176h293l-120 302l-26 81c-9.33301 -32.667 -18.333 -59.667 -27 -81z" />
    <glyph glyph-name="Acircumflex" unicode="&#xc2;" horiz-adv-x="656" 
d="M192 751l128 193h9l128 -193h-61l-71 99l-72 -99h-61zM37 0l282 687h12l288 -687h-76l-46 114h-344l-45 -114h-71zM178 176h293l-120 302l-26 81c-9.33301 -32.667 -18.333 -59.667 -27 -81z" />
    <glyph glyph-name="Atilde" unicode="&#xc3;" horiz-adv-x="656" 
d="M231 748l-52.001 4.00098c2 35.333 10.833 62.666 26.5 81.999s35.834 29 60.501 29c21.333 0 44.333 -10.667 69 -32c13.333 -12 22.833 -19.667 28.5 -23s12.167 -5 19.5 -5c20 0 32 19.333 36 58l52 -5c-2 -35.333 -10.5 -62.5 -25.5 -81.5s-35.167 -28.5 -60.5 -28.5
c-20.667 0 -43.667 11 -69 33c-13.333 12 -22.833 19.667 -28.5 23s-12.167 5 -19.5 5c-20.667 0 -33 -19.667 -37 -59zM36.999 0.000976562l282 687h12l288 -687h-76l-46 114h-344l-45 -114h-71zM177.999 176.001h293l-120 302l-26 81
c-9.33301 -32.667 -18.333 -59.667 -27 -81z" />
    <glyph glyph-name="Adieresis" unicode="&#xc4;" horiz-adv-x="656" 
d="M414 771c-12 0 -22.833 4.66699 -32.5 14s-14.5 20 -14.5 32c0 12.667 4.83301 23.5 14.5 32.5s20.5 13.5 32.5 13.5s22.667 -4.5 32 -13.5s14 -19.833 14 -32.5s-4.66699 -23.5 -14 -32.5s-20 -13.5 -32 -13.5zM240 771c-12 0 -22.667 4.5 -32 13.5s-14 19.833 -14 32.5
s4.66699 23.5 14 32.5s20 13.5 32 13.5c12.667 0 23.667 -4.5 33 -13.5s14 -19.833 14 -32.5s-4.66699 -23.5 -14 -32.5s-20.333 -13.5 -33 -13.5zM37 0l282 687h12l288 -687h-76l-46 114h-344l-45 -114h-71zM178 176h293l-120 302l-26 81
c-9.33301 -32.667 -18.333 -59.667 -27 -81z" />
    <glyph glyph-name="Aring" unicode="&#xc5;" horiz-adv-x="656" 
d="M327 727c-29.333 0 -54.166 9.83301 -74.499 29.5s-30.5 43.167 -30.5 70.5c0 28 10.167 51.833 30.5 71.5s45.166 29.5 74.499 29.5s54.166 -9.83301 74.499 -29.5s30.5 -43.5 30.5 -71.5c0 -27.333 -10.167 -50.833 -30.5 -70.5s-45.166 -29.5 -74.499 -29.5zM37 0
l282 687h12l288 -687h-76l-46 114h-344l-45 -114h-71zM327 772c15.333 0 27.833 5 37.5 15s14.5 23.333 14.5 40s-4.83301 30 -14.5 40s-22.167 15 -37.5 15s-27.833 -5 -37.5 -15s-14.5 -23.333 -14.5 -40s4.83301 -30 14.5 -40s22.167 -15 37.5 -15zM178 176h293l-120 302
l-26 81c-9.33301 -32.667 -18.333 -59.667 -27 -81z" />
    <glyph glyph-name="AE" unicode="&#xc6;" horiz-adv-x="953" 
d="M27 0l454 680h399v-64h-341v-319h304v-63h-304v-170h355v-64h-428v114h-286l-76 -114h-77zM223 178h243v308l7 84c-13.333 -29.333 -27 -54.333 -41 -75z" />
    <glyph glyph-name="Ccedilla" unicode="&#xc7;" horiz-adv-x="726" 
d="M403 -8l-0.000976562 -44.999c22.667 -3.33301 42 -13 58 -29s24 -36.667 24 -62c0 -26.667 -9.5 -48 -28.5 -64s-41.5 -24 -67.5 -24c-47.333 0 -81 19.667 -101 59l43 25c5.33301 -8.66699 9.66602 -15.167 12.999 -19.5s8.5 -8.33301 15.5 -12s15.5 -5.5 25.5 -5.5
c12.667 0 23.334 4 32.001 12s13 19 13 33s-4.5 25.333 -13.5 34s-22.167 13 -39.5 13h-22v88c-86.667 10.667 -158.5 47.667 -215.5 111s-85.5 141.333 -85.5 234c0 101.333 33.667 184.666 101 249.999s150 98 248 98c121.333 0 211.333 -44 270 -132l-55 -40
c-48 71.333 -119.667 107 -215 107c-79.333 0 -144.833 -26.833 -196.5 -80.5s-77.5 -121.167 -77.5 -202.5s25.833 -148.833 77.5 -202.5s117.167 -80.5 196.5 -80.5c96.667 0 171.334 38 224.001 114l56 -39c-30.667 -44.667 -70 -79.167 -118 -103.5
s-102 -36.5 -162 -36.5z" />
    <glyph glyph-name="Egrave" unicode="&#xc8;" horiz-adv-x="580" 
d="M281 753l-93 193h80l68 -193h-55zM93 0v680h414v-64h-342v-319h305v-63h-305v-170h356v-64h-428z" />
    <glyph glyph-name="Eacute" unicode="&#xc9;" horiz-adv-x="580" 
d="M269 753l68 193h80l-93 -193h-55zM93 0v680h414v-64h-342v-319h305v-63h-305v-170h356v-64h-428z" />
    <glyph glyph-name="Ecircumflex" unicode="&#xca;" horiz-adv-x="580" 
d="M172 751l128 193h9l128 -193h-61l-71 99l-72 -99h-61zM93 0v680h414v-64h-342v-319h305v-63h-305v-170h356v-64h-428z" />
    <glyph glyph-name="Edieresis" unicode="&#xcb;" horiz-adv-x="580" 
d="M391 771c-12 0 -22.833 4.66699 -32.5 14s-14.5 20 -14.5 32c0 12.667 4.83301 23.5 14.5 32.5s20.5 13.5 32.5 13.5s22.667 -4.5 32 -13.5s14 -19.833 14 -32.5s-4.66699 -23.5 -14 -32.5s-20 -13.5 -32 -13.5zM217 771c-12 0 -22.667 4.5 -32 13.5s-14 19.833 -14 32.5
s4.66699 23.5 14 32.5s20 13.5 32 13.5c12.667 0 23.667 -4.5 33 -13.5s14 -19.833 14 -32.5s-4.66699 -23.5 -14 -32.5s-20.333 -13.5 -33 -13.5zM93 0v680h414v-64h-342v-319h305v-63h-305v-170h356v-64h-428z" />
    <glyph glyph-name="Igrave" unicode="&#xcc;" horiz-adv-x="265" 
d="M103 753l-93 193h80l68 -193h-55zM96 0v680h73v-680h-73z" />
    <glyph glyph-name="Iacute" unicode="&#xcd;" horiz-adv-x="265" 
d="M106 753l68 193h80l-93 -193h-55zM96 0v680h73v-680h-73z" />
    <glyph glyph-name="Icircumflex" unicode="&#xce;" horiz-adv-x="265" 
d="M-1 751l128 193h9l128 -193h-61l-71 99l-72 -99h-61zM96 0v680h73v-680h-73z" />
    <glyph glyph-name="Idieresis" unicode="&#xcf;" horiz-adv-x="265" 
d="M219 771c-12 0 -22.833 4.66699 -32.5 14s-14.5 20 -14.5 32c0 12.667 4.83301 23.5 14.5 32.5s20.5 13.5 32.5 13.5s22.667 -4.5 32 -13.5s14 -19.833 14 -32.5s-4.66699 -23.5 -14 -32.5s-20 -13.5 -32 -13.5zM45 771c-12 0 -22.667 4.5 -32 13.5s-14 19.833 -14 32.5
s4.66699 23.5 14 32.5s20 13.5 32 13.5c12.667 0 23.667 -4.5 33 -13.5s14 -19.833 14 -32.5s-4.66699 -23.5 -14 -32.5s-20.333 -13.5 -33 -13.5zM96 0v680h73v-680h-73z" />
    <glyph glyph-name="Eth" unicode="&#xd0;" horiz-adv-x="680" 
d="M93 0l0.000976562 242h-79v63h79v375h173c109.333 0 196.666 -31.333 261.999 -94s98 -144.667 98 -246s-32.5 -183.333 -97.5 -246s-152.5 -94 -262.5 -94h-173zM165.001 65h96c94 0 165.667 24.833 215 74.5s74 116.5 74 200.5s-24.667 150.833 -74 200.5
s-121 74.5 -215 74.5h-96v-310h183v-63h-183v-177z" />
    <glyph glyph-name="Ntilde" unicode="&#xd1;" horiz-adv-x="713" 
d="M262 748l-52.001 4.00098c2 35.333 10.833 62.666 26.5 81.999s35.834 29 60.501 29c21.333 0 44.333 -10.667 69 -32c13.333 -12 22.833 -19.667 28.5 -23s12.167 -5 19.5 -5c20 0 32 19.333 36 58l52 -5c-2 -35.333 -10.5 -62.5 -25.5 -81.5s-35.167 -28.5 -60.5 -28.5
c-20.667 0 -43.667 11 -69 33c-13.333 12 -22.833 19.667 -28.5 23s-12.167 5 -19.5 5c-20.667 0 -33 -19.667 -37 -59zM607.999 -6.99902l-406 480l-47 63c4 -32 6 -57.667 6 -77v-459h-68v687h12l406 -480l47 -63c-3.33301 32 -5 57.667 -5 77v459h67v-687h-12z" />
    <glyph glyph-name="Ograve" unicode="&#xd2;" horiz-adv-x="807" 
d="M377 753l-93 193h80l68 -193h-55zM403 -8c-98 0 -180.667 32.667 -248 98s-101 148.666 -101 249.999s33.667 184.666 101 249.999s150 98 248 98c98.667 0 181.667 -32.667 249 -98s101 -148.666 101 -249.999s-33.667 -184.666 -101 -249.999s-150.333 -98 -249 -98z
M403 57c79.333 0 145 26.833 197 80.5s78 121.167 78 202.5s-26 148.833 -78 202.5s-117.667 80.5 -197 80.5c-78.667 0 -144 -26.833 -196 -80.5s-78 -121.167 -78 -202.5s26 -148.833 78 -202.5s117.333 -80.5 196 -80.5z" />
    <glyph glyph-name="Oacute" unicode="&#xd3;" horiz-adv-x="807" 
d="M374 753l68 193h80l-93 -193h-55zM403 -8c-98 0 -180.667 32.667 -248 98s-101 148.666 -101 249.999s33.667 184.666 101 249.999s150 98 248 98c98.667 0 181.667 -32.667 249 -98s101 -148.666 101 -249.999s-33.667 -184.666 -101 -249.999s-150.333 -98 -249 -98z
M403 57c79.333 0 145 26.833 197 80.5s78 121.167 78 202.5s-26 148.833 -78 202.5s-117.667 80.5 -197 80.5c-78.667 0 -144 -26.833 -196 -80.5s-78 -121.167 -78 -202.5s26 -148.833 78 -202.5s117.333 -80.5 196 -80.5z" />
    <glyph glyph-name="Ocircumflex" unicode="&#xd4;" horiz-adv-x="807" 
d="M270 751l128 193h9l128 -193h-61l-71 99l-72 -99h-61zM403 -8c-98 0 -180.667 32.667 -248 98s-101 148.666 -101 249.999s33.667 184.666 101 249.999s150 98 248 98c98.667 0 181.667 -32.667 249 -98s101 -148.666 101 -249.999s-33.667 -184.666 -101 -249.999
s-150.333 -98 -249 -98zM403 57c79.333 0 145 26.833 197 80.5s78 121.167 78 202.5s-26 148.833 -78 202.5s-117.667 80.5 -197 80.5c-78.667 0 -144 -26.833 -196 -80.5s-78 -121.167 -78 -202.5s26 -148.833 78 -202.5s117.333 -80.5 196 -80.5z" />
    <glyph glyph-name="Otilde" unicode="&#xd5;" horiz-adv-x="807" 
d="M309 748l-52.001 4.00098c2 35.333 10.833 62.666 26.5 81.999s35.834 29 60.501 29c21.333 0 44.333 -10.667 69 -32c13.333 -12 22.833 -19.667 28.5 -23s12.167 -5 19.5 -5c20 0 32 19.333 36 58l52 -5c-2 -35.333 -10.5 -62.5 -25.5 -81.5s-35.167 -28.5 -60.5 -28.5
c-20.667 0 -43.667 11 -69 33c-13.333 12 -22.833 19.667 -28.5 23s-12.167 5 -19.5 5c-20.667 0 -33 -19.667 -37 -59zM402.999 -7.99902c-98 0 -180.667 32.667 -248 98s-101 148.666 -101 249.999s33.667 184.666 101 249.999s150 98 248 98
c98.667 0 181.667 -32.667 249 -98s101 -148.666 101 -249.999s-33.667 -184.666 -101 -249.999s-150.333 -98 -249 -98zM402.999 57.001c79.333 0 145 26.833 197 80.5s78 121.167 78 202.5s-26 148.833 -78 202.5s-117.667 80.5 -197 80.5
c-78.667 0 -144 -26.833 -196 -80.5s-78 -121.167 -78 -202.5s26 -148.833 78 -202.5s117.333 -80.5 196 -80.5z" />
    <glyph glyph-name="Odieresis" unicode="&#xd6;" horiz-adv-x="807" 
d="M490 771c-12 0 -22.833 4.66699 -32.5 14s-14.5 20 -14.5 32c0 12.667 4.83301 23.5 14.5 32.5s20.5 13.5 32.5 13.5s22.667 -4.5 32 -13.5s14 -19.833 14 -32.5s-4.66699 -23.5 -14 -32.5s-20 -13.5 -32 -13.5zM316 771c-12 0 -22.667 4.5 -32 13.5s-14 19.833 -14 32.5
s4.66699 23.5 14 32.5s20 13.5 32 13.5c12.667 0 23.667 -4.5 33 -13.5s14 -19.833 14 -32.5s-4.66699 -23.5 -14 -32.5s-20.333 -13.5 -33 -13.5zM403 -8c-98 0 -180.667 32.667 -248 98s-101 148.666 -101 249.999s33.667 184.666 101 249.999s150 98 248 98
c98.667 0 181.667 -32.667 249 -98s101 -148.666 101 -249.999s-33.667 -184.666 -101 -249.999s-150.333 -98 -249 -98zM403 57c79.333 0 145 26.833 197 80.5s78 121.167 78 202.5s-26 148.833 -78 202.5s-117.667 80.5 -197 80.5c-78.667 0 -144 -26.833 -196 -80.5
s-78 -121.167 -78 -202.5s26 -148.833 78 -202.5s117.333 -80.5 196 -80.5z" />
    <glyph glyph-name="multiply" unicode="&#xd7;" 
d="M261 207l-122 -121l-44 44l121 121l-121 121l44 44l121 -121l122 121l44 -44l-122 -121l122 -121l-44 -44z" />
    <glyph glyph-name="Oslash" unicode="&#xd8;" horiz-adv-x="807" 
d="M674 566c52.667 -63.333 78.999 -138.666 78.999 -225.999c0 -101.333 -33.667 -184.666 -101 -249.999s-150.333 -98 -249 -98c-87.333 0 -162.666 26 -225.999 78l-80 -80l-45 44l81 80c-52.667 63.333 -79 138.666 -79 225.999c0 101.333 33.667 184.666 101 249.999
s150 98 248 98c87.333 0 163 -26.333 227 -79l80 80l44 -44zM183.999 165l66 66l128 127.5l144 143.5l58 58c-48 42 -107 63 -177 63c-78.667 0 -144 -26.833 -196 -80.5s-78 -121.167 -78 -202.5c0 -66.667 18.333 -125 55 -175zM622.999 515l-396 -396
c50 -41.333 108.667 -62 176 -62c79.333 0 145 26.833 197 80.5s78 121.167 78 202.5c0 66.667 -18.333 125 -55 175z" />
    <glyph glyph-name="Ugrave" unicode="&#xd9;" horiz-adv-x="662" 
d="M305 753l-93 193h80l68 -193h-55zM331 -8c-72 0 -130.667 20.833 -176 62.5s-68 100.834 -68 177.501v448h72v-443c0 -59.333 15.167 -104.333 45.5 -135s72.5 -46 126.5 -46s96.167 15.333 126.5 46s45.5 75.667 45.5 135v443h72v-448
c0 -76.667 -22.667 -135.834 -68 -177.501s-104 -62.5 -176 -62.5z" />
    <glyph glyph-name="Uacute" unicode="&#xda;" horiz-adv-x="662" 
d="M302 753l68 193h80l-93 -193h-55zM331 -8c-72 0 -130.667 20.833 -176 62.5s-68 100.834 -68 177.501v448h72v-443c0 -59.333 15.167 -104.333 45.5 -135s72.5 -46 126.5 -46s96.167 15.333 126.5 46s45.5 75.667 45.5 135v443h72v-448
c0 -76.667 -22.667 -135.834 -68 -177.501s-104 -62.5 -176 -62.5z" />
    <glyph glyph-name="Ucircumflex" unicode="&#xdb;" horiz-adv-x="662" 
d="M198 751l128 193h9l128 -193h-61l-71 99l-72 -99h-61zM331 -8c-72 0 -130.667 20.833 -176 62.5s-68 100.834 -68 177.501v448h72v-443c0 -59.333 15.167 -104.333 45.5 -135s72.5 -46 126.5 -46s96.167 15.333 126.5 46s45.5 75.667 45.5 135v443h72v-448
c0 -76.667 -22.667 -135.834 -68 -177.501s-104 -62.5 -176 -62.5z" />
    <glyph glyph-name="Udieresis" unicode="&#xdc;" horiz-adv-x="662" 
d="M418 771c-12 0 -22.833 4.66699 -32.5 14s-14.5 20 -14.5 32c0 12.667 4.83301 23.5 14.5 32.5s20.5 13.5 32.5 13.5s22.667 -4.5 32 -13.5s14 -19.833 14 -32.5s-4.66699 -23.5 -14 -32.5s-20 -13.5 -32 -13.5zM244 771c-12 0 -22.667 4.5 -32 13.5s-14 19.833 -14 32.5
s4.66699 23.5 14 32.5s20 13.5 32 13.5c12.667 0 23.667 -4.5 33 -13.5s14 -19.833 14 -32.5s-4.66699 -23.5 -14 -32.5s-20.333 -13.5 -33 -13.5zM331 -8c-72 0 -130.667 20.833 -176 62.5s-68 100.834 -68 177.501v448h72v-443c0 -59.333 15.167 -104.333 45.5 -135
s72.5 -46 126.5 -46s96.167 15.333 126.5 46s45.5 75.667 45.5 135v443h72v-448c0 -76.667 -22.667 -135.834 -68 -177.501s-104 -62.5 -176 -62.5z" />
    <glyph glyph-name="Yacute" unicode="&#xdd;" horiz-adv-x="656" 
d="M299 753l68 193h80l-93 -193h-55zM294 0l-0.00195312 213l-257 467h81l185 -338c4.66699 -8 9.33398 -17.667 14.001 -29s8.33398 -21 11.001 -29l4 -11c10 28 19.667 51 29 69l184 338h75l-252 -464v-216h-74z" />
    <glyph glyph-name="Thorn" unicode="&#xde;" horiz-adv-x="584" 
d="M93 0v680h72v-79h88c88 0 155.833 -23.5 203.5 -70.5s71.5 -108.833 71.5 -185.5c0 -77.333 -23.667 -139.333 -71 -186s-115.333 -70 -204 -70h-88v-89h-72zM165 153h84c136 0 204 64 204 192s-68 192 -204 192h-84v-384z" />
    <glyph glyph-name="germandbls" unicode="&#xdf;" horiz-adv-x="540" 
d="M283 -5c-29.333 0 -54.668 4.33203 -76.001 12.999l15 57c14 -6 32 -9 54 -9c46.667 0 82.334 13.833 107.001 41.5s37 65.167 37 112.5c0 50 -15.667 88.833 -47 116.5s-75.666 41.167 -132.999 40.5v58c36.667 4 65.334 17.667 86.001 41s31 54 31 92
c0 39.333 -9.83301 68.833 -29.5 88.5s-44.834 29.5 -75.501 29.5c-32 0 -58 -10.5 -78 -31.5s-30 -54.167 -30 -99.5v-545h-70v546c0 62 17 109 51 141s76.333 48 127 48c49.333 0 90.166 -15.333 122.499 -46s48.5 -73.667 48.5 -129c0 -75.333 -32 -126.666 -96 -153.999
c50 -10 90 -32.167 120 -66.5s45 -77.833 45 -130.5c0 -63.333 -18.5 -114.833 -55.5 -154.5s-88.167 -59.5 -153.5 -59.5z" />
    <glyph glyph-name="agrave" unicode="&#xe0;" horiz-adv-x="471" 
d="M213 498l-93 193h80l68 -193h-55zM331 243l0.000976562 10.001c0 74 -32.333 111 -97 111c-50.667 0 -91 -20 -121 -60l-43 39c39.333 53.333 95.666 80 168.999 80c48 0 87 -14.333 117 -43s45 -70.667 45 -126v-254h-70l3 62c-31.333 -46.667 -77 -70 -137 -70
c-46 0 -82.833 10.667 -110.5 32s-41.5 52.666 -41.5 93.999c0 40.667 14.667 71.667 44 93s67 32 113 32h129zM331.001 190.001h-124c-62.667 0 -94 -23 -94 -69c0 -48 33.333 -72 100 -72c32.667 0 60.5 8.16699 83.5 24.5s34.5 37.833 34.5 64.5v52z" />
    <glyph glyph-name="aacute" unicode="&#xe1;" horiz-adv-x="471" 
d="M203 498l68 193h80l-93 -193h-55zM331 243l0.000976562 10.001c0 74 -32.333 111 -97 111c-50.667 0 -91 -20 -121 -60l-43 39c39.333 53.333 95.666 80 168.999 80c48 0 87 -14.333 117 -43s45 -70.667 45 -126v-254h-70l3 62c-31.333 -46.667 -77 -70 -137 -70
c-46 0 -82.833 10.667 -110.5 32s-41.5 52.666 -41.5 93.999c0 40.667 14.667 71.667 44 93s67 32 113 32h129zM331.001 190.001h-124c-62.667 0 -94 -23 -94 -69c0 -48 33.333 -72 100 -72c32.667 0 60.5 8.16699 83.5 24.5s34.5 37.833 34.5 64.5v52z" />
    <glyph glyph-name="acircumflex" unicode="&#xe2;" horiz-adv-x="471" 
d="M104 496l128 193h9l128 -193h-61l-71 99l-72 -99h-61zM331 243l0.000976562 10.001c0 74 -32.333 111 -97 111c-50.667 0 -91 -20 -121 -60l-43 39c39.333 53.333 95.666 80 168.999 80c48 0 87 -14.333 117 -43s45 -70.667 45 -126v-254h-70l3 62
c-31.333 -46.667 -77 -70 -137 -70c-46 0 -82.833 10.667 -110.5 32s-41.5 52.666 -41.5 93.999c0 40.667 14.667 71.667 44 93s67 32 113 32h129zM331.001 190.001h-124c-62.667 0 -94 -23 -94 -69c0 -48 33.333 -72 100 -72c32.667 0 60.5 8.16699 83.5 24.5
s34.5 37.833 34.5 64.5v52z" />
    <glyph glyph-name="atilde" unicode="&#xe3;" horiz-adv-x="471" 
d="M137 493l-52.001 4.00098c2 35.333 10.833 62.666 26.5 81.999s35.834 29 60.501 29c21.333 0 44.333 -10.667 69 -32c13.333 -12 22.833 -19.667 28.5 -23s12.167 -5 19.5 -5c20 0 32 19.333 36 58l52 -5c-2 -35.333 -10.5 -62.5 -25.5 -81.5s-35.167 -28.5 -60.5 -28.5
c-20.667 0 -43.667 11 -69 33c-13.333 12 -22.833 19.667 -28.5 23s-12.167 5 -19.5 5c-20.667 0 -33 -19.667 -37 -59zM330.999 243.001l0.000976562 10.001c0 74 -32.333 111 -97 111c-50.667 0 -91 -20 -121 -60l-43 39c39.333 53.333 95.666 80 168.999 80
c48 0 87 -14.333 117 -43s45 -70.667 45 -126v-254h-70l3 62c-31.333 -46.667 -77 -70 -137 -70c-46 0 -82.833 10.667 -110.5 32s-41.5 52.666 -41.5 93.999c0 40.667 14.667 71.667 44 93s67 32 113 32h129zM331 190.002h-124c-62.667 0 -94 -23 -94 -69
c0 -48 33.333 -72 100 -72c32.667 0 60.5 8.16699 83.5 24.5s34.5 37.833 34.5 64.5v52z" />
    <glyph glyph-name="adieresis" unicode="&#xe4;" horiz-adv-x="471" 
d="M324 516c-12 0 -22.833 4.66699 -32.5 14s-14.5 20 -14.5 32c0 12.667 4.83301 23.5 14.5 32.5s20.5 13.5 32.5 13.5s22.667 -4.5 32 -13.5s14 -19.833 14 -32.5s-4.66699 -23.5 -14 -32.5s-20 -13.5 -32 -13.5zM150 516c-12 0 -22.667 4.5 -32 13.5s-14 19.833 -14 32.5
s4.66699 23.5 14 32.5s20 13.5 32 13.5c12.667 0 23.667 -4.5 33 -13.5s14 -19.833 14 -32.5s-4.66699 -23.5 -14 -32.5s-20.333 -13.5 -33 -13.5zM331 243l0.000976562 10.001c0 74 -32.333 111 -97 111c-50.667 0 -91 -20 -121 -60l-43 39
c39.333 53.333 95.666 80 168.999 80c48 0 87 -14.333 117 -43s45 -70.667 45 -126v-254h-70l3 62c-31.333 -46.667 -77 -70 -137 -70c-46 0 -82.833 10.667 -110.5 32s-41.5 52.666 -41.5 93.999c0 40.667 14.667 71.667 44 93s67 32 113 32h129zM331.001 190.001h-124
c-62.667 0 -94 -23 -94 -69c0 -48 33.333 -72 100 -72c32.667 0 60.5 8.16699 83.5 24.5s34.5 37.833 34.5 64.5v52z" />
    <glyph glyph-name="aring" unicode="&#xe5;" horiz-adv-x="471" 
d="M235 484c-29.333 0 -54.166 9.83301 -74.499 29.5s-30.5 43.167 -30.5 70.5c0 28 10.167 51.833 30.5 71.5s45.166 29.5 74.499 29.5s54.166 -9.83301 74.499 -29.5s30.5 -43.5 30.5 -71.5c0 -27.333 -10.167 -50.833 -30.5 -70.5s-45.166 -29.5 -74.499 -29.5zM331 243
l0.000976562 10.001c0 74 -32.333 111 -97 111c-50.667 0 -91 -20 -121 -60l-43 39c39.333 53.333 95.666 80 168.999 80c48 0 87 -14.333 117 -43s45 -70.667 45 -126v-254h-70l3 62c-31.333 -46.667 -77 -70 -137 -70c-46 0 -82.833 10.667 -110.5 32
s-41.5 52.666 -41.5 93.999c0 40.667 14.667 71.667 44 93s67 32 113 32h129zM235.001 529.001c15.333 0 27.833 5 37.5 15s14.5 23.333 14.5 40s-4.83301 30 -14.5 40s-22.167 15 -37.5 15s-27.833 -5 -37.5 -15s-14.5 -23.333 -14.5 -40s4.83301 -30 14.5 -40
s22.167 -15 37.5 -15zM331.001 190.001h-124c-62.667 0 -94 -23 -94 -69c0 -48 33.333 -72 100 -72c32.667 0 60.5 8.16699 83.5 24.5s34.5 37.833 34.5 64.5v52z" />
    <glyph glyph-name="ae" unicode="&#xe6;" horiz-adv-x="799" 
d="M331 240l0.00292969 11.999c0 74.667 -32.333 112 -97 112c-50.667 0 -91 -20 -121 -60l-43 39c39.333 53.333 95.666 80 168.999 80c69.333 0 115 -31.333 137 -94c18 28 41.667 50.667 71 68s61.666 26 96.999 26c65.333 0 117 -22.167 155 -66.5s56 -100.5 54 -168.5
h-353c4 -40.667 19.5 -73.667 46.5 -99s62.833 -38 107.5 -38c54 0 98 18.333 132 55l42 -42c-42.667 -48 -100.334 -72 -173.001 -72c-84 0 -144.667 32.333 -182 97c-10.667 -31.333 -31.5 -55.333 -62.5 -72s-65.833 -25 -104.5 -25c-48.667 0 -87.667 10.5 -117 31.5
s-44 52.167 -44 93.5c0 40.667 14.667 71.334 44 92.001s67 31 113 31h129zM402.003 239.999h279.998c-3.33301 35.333 -16.666 64.833 -39.999 88.5s-55.666 35.5 -96.999 35.5c-38 0 -69.833 -11.5 -95.5 -34.5s-41.5 -52.833 -47.5 -89.5zM331.001 187.999h-124
c-62.667 0 -94 -22.667 -94 -68c0 -47.333 33.333 -71 100 -71c32.667 0 60.5 8.16699 83.5 24.5s34.5 37.833 34.5 64.5v50z" />
    <glyph glyph-name="ccedilla" unicode="&#xe7;" horiz-adv-x="467" 
d="M217 -3c-50 10 -90.666 34.499 -121.999 73.499s-47 84.5 -47 136.5c0 60.667 20.667 111.834 62 153.501s92.333 62.5 153 62.5c68 0 122.333 -24.667 163 -74l-50 -41c-26.667 35.333 -64.334 53 -113.001 53c-43.333 0 -78 -14.5 -104 -43.5s-39 -65.833 -39 -110.5
s13 -81.5 39 -110.5s60.667 -43.5 104 -43.5c49.333 0 89 18 119 54l48 -41c-40.667 -49.333 -95.667 -74 -165 -74v-45c22.667 -3.33301 42 -13 58 -29s24 -36.667 24 -62c0 -26.667 -9.5 -48 -28.5 -64s-41.5 -24 -67.5 -24c-47.333 0 -81 19.667 -101 59l43 25
c5.33301 -8.66699 9.66602 -15.167 12.999 -19.5s8.5 -8.33301 15.5 -12s15.5 -5.5 25.5 -5.5c12.667 0 23.334 4 32.001 12s13 19 13 33s-4.5 25.333 -13.5 34s-22.167 13 -39.5 13h-22v90z" />
    <glyph glyph-name="egrave" unicode="&#xe8;" horiz-adv-x="516" 
d="M235 498l-93 193h80l68 -193h-55zM118 184c4.66699 -40.667 20.3311 -73.001 46.998 -97.001s62.334 -36 107.001 -36c54.667 0 98.334 18.333 131.001 55l43 -42c-42.667 -48 -100.667 -72 -174 -72c-66.667 0 -120.667 20.5 -162 61.5s-62 92.167 -62 153.5
c0 60.667 20.5 111.834 61.5 153.501s91.833 62.5 152.5 62.5c65.333 0 117 -22.5 155 -67.5s55.667 -102.167 53 -171.5h-352zM118.997 236.999h281.001c-3.33301 37.333 -16.833 67.833 -40.5 91.5s-56.167 35.5 -97.5 35.5c-38.667 0 -70.834 -11.5 -96.501 -34.5
s-41.167 -53.833 -46.5 -92.5z" />
    <glyph glyph-name="eacute" unicode="&#xe9;" horiz-adv-x="516" 
d="M229 498l68 193h80l-93 -193h-55zM118 184c4.66699 -40.667 20.3311 -73.001 46.998 -97.001s62.334 -36 107.001 -36c54.667 0 98.334 18.333 131.001 55l43 -42c-42.667 -48 -100.667 -72 -174 -72c-66.667 0 -120.667 20.5 -162 61.5s-62 92.167 -62 153.5
c0 60.667 20.5 111.834 61.5 153.501s91.833 62.5 152.5 62.5c65.333 0 117 -22.5 155 -67.5s55.667 -102.167 53 -171.5h-352zM118.997 236.999h281.001c-3.33301 37.333 -16.833 67.833 -40.5 91.5s-56.167 35.5 -97.5 35.5c-38.667 0 -70.834 -11.5 -96.501 -34.5
s-41.167 -53.833 -46.5 -92.5z" />
    <glyph glyph-name="ecircumflex" unicode="&#xea;" horiz-adv-x="516" 
d="M125 496l128 193h9l128 -193h-61l-71 99l-72 -99h-61zM118 184c4.66699 -40.667 20.3311 -73.001 46.998 -97.001s62.334 -36 107.001 -36c54.667 0 98.334 18.333 131.001 55l43 -42c-42.667 -48 -100.667 -72 -174 -72c-66.667 0 -120.667 20.5 -162 61.5
s-62 92.167 -62 153.5c0 60.667 20.5 111.834 61.5 153.501s91.833 62.5 152.5 62.5c65.333 0 117 -22.5 155 -67.5s55.667 -102.167 53 -171.5h-352zM118.997 236.999h281.001c-3.33301 37.333 -16.833 67.833 -40.5 91.5s-56.167 35.5 -97.5 35.5
c-38.667 0 -70.834 -11.5 -96.501 -34.5s-41.167 -53.833 -46.5 -92.5z" />
    <glyph glyph-name="edieresis" unicode="&#xeb;" horiz-adv-x="516" 
d="M345 516c-12 0 -22.833 4.66699 -32.5 14s-14.5 20 -14.5 32c0 12.667 4.83301 23.5 14.5 32.5s20.5 13.5 32.5 13.5s22.667 -4.5 32 -13.5s14 -19.833 14 -32.5s-4.66699 -23.5 -14 -32.5s-20 -13.5 -32 -13.5zM171 516c-12 0 -22.667 4.5 -32 13.5s-14 19.833 -14 32.5
s4.66699 23.5 14 32.5s20 13.5 32 13.5c12.667 0 23.667 -4.5 33 -13.5s14 -19.833 14 -32.5s-4.66699 -23.5 -14 -32.5s-20.333 -13.5 -33 -13.5zM118 184c4.66699 -40.667 20.3311 -73.001 46.998 -97.001s62.334 -36 107.001 -36c54.667 0 98.334 18.333 131.001 55
l43 -42c-42.667 -48 -100.667 -72 -174 -72c-66.667 0 -120.667 20.5 -162 61.5s-62 92.167 -62 153.5c0 60.667 20.5 111.834 61.5 153.501s91.833 62.5 152.5 62.5c65.333 0 117 -22.5 155 -67.5s55.667 -102.167 53 -171.5h-352zM118.997 236.999h281.001
c-3.33301 37.333 -16.833 67.833 -40.5 91.5s-56.167 35.5 -97.5 35.5c-38.667 0 -70.834 -11.5 -96.501 -34.5s-41.167 -53.833 -46.5 -92.5z" />
    <glyph glyph-name="igrave" unicode="&#xec;" horiz-adv-x="222" 
d="M83 498l-93 193h80l68 -193h-55zM76 0v414h70v-414h-70z" />
    <glyph glyph-name="iacute" unicode="&#xed;" horiz-adv-x="222" 
d="M81 498l68 193h80l-93 -193h-55zM76 0v414h70v-414h-70z" />
    <glyph glyph-name="icircumflex" unicode="&#xee;" horiz-adv-x="222" 
d="M-22 496l128 193h9l128 -193h-61l-71 99l-72 -99h-61zM76 0v414h70v-414h-70z" />
    <glyph glyph-name="idieresis" unicode="&#xef;" horiz-adv-x="222" 
d="M198 516c-12 0 -22.833 4.66699 -32.5 14s-14.5 20 -14.5 32c0 12.667 4.83301 23.5 14.5 32.5s20.5 13.5 32.5 13.5s22.667 -4.5 32 -13.5s14 -19.833 14 -32.5s-4.66699 -23.5 -14 -32.5s-20 -13.5 -32 -13.5zM24 516c-12 0 -22.667 4.5 -32 13.5s-14 19.833 -14 32.5
s4.66699 23.5 14 32.5s20 13.5 32 13.5c12.667 0 23.667 -4.5 33 -13.5s14 -19.833 14 -32.5s-4.66699 -23.5 -14 -32.5s-20.333 -13.5 -33 -13.5zM76 0v414h70v-414h-70z" />
    <glyph glyph-name="eth" unicode="&#xf0;" horiz-adv-x="534" 
d="M276 575l-67 -65.001l-35 35l70 68c-26.667 30.667 -54.667 58 -84 82l39 43c29.333 -23.333 59 -50.333 89 -81l67 66l37 -36l-70 -67c109.333 -127.333 164 -261.333 164 -402c0 -64.667 -20.833 -118.5 -62.5 -161.5s-93.5 -64.5 -155.5 -64.5
s-114.167 20.667 -156.5 62s-63.5 92.333 -63.5 153s20.833 111.834 62.5 153.501s91.5 62.5 149.5 62.5c57.333 0 102.333 -21.667 135 -65c-19.333 72.667 -59 145 -119 217zM268 51.999c43.333 0 78.666 15 105.999 45s41 68 41 114c0 44 -13.667 80.167 -41 108.5
s-62.666 42.5 -105.999 42.5c-44 0 -79.833 -14.667 -107.5 -44s-41.5 -66.333 -41.5 -111s13.833 -81.667 41.5 -111s63.5 -44 107.5 -44z" />
    <glyph glyph-name="ntilde" unicode="&#xf1;" horiz-adv-x="516" 
d="M161 493l-52.001 4.00098c2 35.333 10.833 62.666 26.5 81.999s35.834 29 60.501 29c21.333 0 44.333 -10.667 69 -32c13.333 -12 22.833 -19.667 28.5 -23s12.167 -5 19.5 -5c20 0 32 19.333 36 58l52 -5c-2 -35.333 -10.5 -62.5 -25.5 -81.5s-35.167 -28.5 -60.5 -28.5
c-20.667 0 -43.667 11 -69 33c-13.333 12 -22.833 19.667 -28.5 23s-12.167 5 -19.5 5c-20.667 0 -33 -19.667 -37 -59zM73.999 0.000976562l0.00292969 413.999h70l-2 -85c13.333 29.333 33.166 52.333 59.499 69s56.166 25 89.499 25c46.667 0 84.167 -15.167 112.5 -45.5
s42.5 -72.166 42.5 -125.499v-252h-70v244c0 76.667 -34.333 115 -103 115c-38.667 0 -69.834 -11.667 -93.501 -35s-35.5 -55.333 -35.5 -96v-228h-70z" />
    <glyph glyph-name="ograve" unicode="&#xf2;" horiz-adv-x="534" 
d="M240 498l-93 193h80l68 -193h-55zM268 -8c-62 0 -114.167 20.667 -156.5 62s-63.5 92.333 -63.5 153s21.167 111.834 63.5 153.501s94.5 62.5 156.5 62.5c61.333 0 113 -20.833 155 -62.5s63 -92.834 63 -153.501s-21 -111.667 -63 -153s-93.667 -62 -155 -62zM268 52
c43.333 0 78.666 14.667 105.999 44s41 66.333 41 111s-13.667 81.667 -41 111s-62.666 44 -105.999 44c-44 0 -79.833 -14.667 -107.5 -44s-41.5 -66.333 -41.5 -111s13.833 -81.667 41.5 -111s63.5 -44 107.5 -44z" />
    <glyph glyph-name="oacute" unicode="&#xf3;" horiz-adv-x="534" 
d="M239 498l68 193h80l-93 -193h-55zM268 -8c-62 0 -114.167 20.667 -156.5 62s-63.5 92.333 -63.5 153s21.167 111.834 63.5 153.501s94.5 62.5 156.5 62.5c61.333 0 113 -20.833 155 -62.5s63 -92.834 63 -153.501s-21 -111.667 -63 -153s-93.667 -62 -155 -62zM268 52
c43.333 0 78.666 14.667 105.999 44s41 66.333 41 111s-13.667 81.667 -41 111s-62.666 44 -105.999 44c-44 0 -79.833 -14.667 -107.5 -44s-41.5 -66.333 -41.5 -111s13.833 -81.667 41.5 -111s63.5 -44 107.5 -44z" />
    <glyph glyph-name="ocircumflex" unicode="&#xf4;" horiz-adv-x="534" 
d="M134 496l128 193h9l128 -193h-61l-71 99l-72 -99h-61zM268 -8c-62 0 -114.167 20.667 -156.5 62s-63.5 92.333 -63.5 153s21.167 111.834 63.5 153.501s94.5 62.5 156.5 62.5c61.333 0 113 -20.833 155 -62.5s63 -92.834 63 -153.501s-21 -111.667 -63 -153
s-93.667 -62 -155 -62zM268 52c43.333 0 78.666 14.667 105.999 44s41 66.333 41 111s-13.667 81.667 -41 111s-62.666 44 -105.999 44c-44 0 -79.833 -14.667 -107.5 -44s-41.5 -66.333 -41.5 -111s13.833 -81.667 41.5 -111s63.5 -44 107.5 -44z" />
    <glyph glyph-name="otilde" unicode="&#xf5;" horiz-adv-x="534" 
d="M173 493l-52.001 4.00098c2 35.333 10.833 62.666 26.5 81.999s35.834 29 60.501 29c21.333 0 44.333 -10.667 69 -32c13.333 -12 22.833 -19.667 28.5 -23s12.167 -5 19.5 -5c20 0 32 19.333 36 58l52 -5c-2 -35.333 -10.5 -62.5 -25.5 -81.5s-35.167 -28.5 -60.5 -28.5
c-20.667 0 -43.667 11 -69 33c-13.333 12 -22.833 19.667 -28.5 23s-12.167 5 -19.5 5c-20.667 0 -33 -19.667 -37 -59zM267.999 -7.99902c-62 0 -114.167 20.667 -156.5 62s-63.5 92.333 -63.5 153s21.167 111.834 63.5 153.501s94.5 62.5 156.5 62.5
c61.333 0 113 -20.833 155 -62.5s63 -92.834 63 -153.501s-21 -111.667 -63 -153s-93.667 -62 -155 -62zM267.999 52.001c43.333 0 78.666 14.667 105.999 44s41 66.333 41 111s-13.667 81.667 -41 111s-62.666 44 -105.999 44c-44 0 -79.833 -14.667 -107.5 -44
s-41.5 -66.333 -41.5 -111s13.833 -81.667 41.5 -111s63.5 -44 107.5 -44z" />
    <glyph glyph-name="odieresis" unicode="&#xf6;" horiz-adv-x="534" 
d="M354 516c-12 0 -22.833 4.66699 -32.5 14s-14.5 20 -14.5 32c0 12.667 4.83301 23.5 14.5 32.5s20.5 13.5 32.5 13.5s22.667 -4.5 32 -13.5s14 -19.833 14 -32.5s-4.66699 -23.5 -14 -32.5s-20 -13.5 -32 -13.5zM180 516c-12 0 -22.667 4.5 -32 13.5s-14 19.833 -14 32.5
s4.66699 23.5 14 32.5s20 13.5 32 13.5c12.667 0 23.667 -4.5 33 -13.5s14 -19.833 14 -32.5s-4.66699 -23.5 -14 -32.5s-20.333 -13.5 -33 -13.5zM268 -8c-62 0 -114.167 20.667 -156.5 62s-63.5 92.333 -63.5 153s21.167 111.834 63.5 153.501s94.5 62.5 156.5 62.5
c61.333 0 113 -20.833 155 -62.5s63 -92.834 63 -153.501s-21 -111.667 -63 -153s-93.667 -62 -155 -62zM268 52c43.333 0 78.666 14.667 105.999 44s41 66.333 41 111s-13.667 81.667 -41 111s-62.666 44 -105.999 44c-44 0 -79.833 -14.667 -107.5 -44
s-41.5 -66.333 -41.5 -111s13.833 -81.667 41.5 -111s63.5 -44 107.5 -44z" />
    <glyph glyph-name="divide" unicode="&#xf7;" 
d="M259 357c-14 0 -26 5 -36 15s-15 22 -15 36c0 14.667 5 27 15 37s22 15 36 15s26.167 -5 36.5 -15s15.5 -22.333 15.5 -37c0 -14 -5.16699 -26 -15.5 -36s-22.5 -15 -36.5 -15zM85 221v62h349v-62h-349zM259 44c-14 0 -26 5 -36 15s-15 22 -15 36c0 14.667 5 27 15 37
s22 15 36 15s26.167 -5 36.5 -15s15.5 -22.333 15.5 -37c0 -14 -5.16699 -26 -15.5 -36s-22.5 -15 -36.5 -15z" />
    <glyph glyph-name="oslash" unicode="&#xf8;" horiz-adv-x="534" 
d="M444 336c28 -38.667 42 -81.668 42 -129.001c0 -60.667 -21 -111.667 -63 -153s-93.667 -62 -155 -62c-54 0 -101.333 16.667 -142 50l-58 -54l-35 37l58 53c-28.667 38 -43 81 -43 129c0 60.667 21.167 111.834 63.5 153.501s94.5 62.5 156.5 62.5
c53.333 0 100 -16.667 140 -50l57 52l35 -37zM138 121.999l225 207.999c-26 22 -57.667 33 -95 33c-44.667 0 -81 -14.667 -109 -44s-42 -66.666 -42 -111.999c0 -30 7 -58.333 21 -85zM396 290.998l-224.999 -206.999c27.333 -22 59.666 -33 96.999 -33
c44 0 79.833 14.667 107.5 44s41.5 66.666 41.5 111.999c0 32.667 -7 60.667 -21 84z" />
    <glyph glyph-name="ugrave" unicode="&#xf9;" horiz-adv-x="515" 
d="M231 498l-93 193h80l68 -193h-55zM225 -9c-46.667 0 -84.166 15.166 -112.499 45.499s-42.5 71.5 -42.5 123.5v254h70v-247c0 -74.667 34 -112 102 -112c39.333 0 70.666 11.833 93.999 35.5s35 55.5 35 95.5v228h70v-414h-70l2 84
c-13.333 -29.333 -33 -52.166 -59 -68.499s-55.667 -24.5 -89 -24.5z" />
    <glyph glyph-name="uacute" unicode="&#xfa;" horiz-adv-x="515" 
d="M228 498l68 193h80l-93 -193h-55zM225 -9c-46.667 0 -84.166 15.166 -112.499 45.499s-42.5 71.5 -42.5 123.5v254h70v-247c0 -74.667 34 -112 102 -112c39.333 0 70.666 11.833 93.999 35.5s35 55.5 35 95.5v228h70v-414h-70l2 84
c-13.333 -29.333 -33 -52.166 -59 -68.499s-55.667 -24.5 -89 -24.5z" />
    <glyph glyph-name="ucircumflex" unicode="&#xfb;" horiz-adv-x="515" 
d="M124 496l128 193h9l128 -193h-61l-71 99l-72 -99h-61zM225 -9c-46.667 0 -84.166 15.166 -112.499 45.499s-42.5 71.5 -42.5 123.5v254h70v-247c0 -74.667 34 -112 102 -112c39.333 0 70.666 11.833 93.999 35.5s35 55.5 35 95.5v228h70v-414h-70l2 84
c-13.333 -29.333 -33 -52.166 -59 -68.499s-55.667 -24.5 -89 -24.5z" />
    <glyph glyph-name="udieresis" unicode="&#xfc;" horiz-adv-x="515" 
d="M344 516c-12 0 -22.833 4.66699 -32.5 14s-14.5 20 -14.5 32c0 12.667 4.83301 23.5 14.5 32.5s20.5 13.5 32.5 13.5s22.667 -4.5 32 -13.5s14 -19.833 14 -32.5s-4.66699 -23.5 -14 -32.5s-20 -13.5 -32 -13.5zM170 516c-12 0 -22.667 4.5 -32 13.5s-14 19.833 -14 32.5
s4.66699 23.5 14 32.5s20 13.5 32 13.5c12.667 0 23.667 -4.5 33 -13.5s14 -19.833 14 -32.5s-4.66699 -23.5 -14 -32.5s-20.333 -13.5 -33 -13.5zM225 -9c-46.667 0 -84.166 15.166 -112.499 45.499s-42.5 71.5 -42.5 123.5v254h70v-247c0 -74.667 34 -112 102 -112
c39.333 0 70.666 11.833 93.999 35.5s35 55.5 35 95.5v228h70v-414h-70l2 84c-13.333 -29.333 -33 -52.166 -59 -68.499s-55.667 -24.5 -89 -24.5z" />
    <glyph glyph-name="yacute" unicode="&#xfd;" horiz-adv-x="462" 
d="M205 498l68 193h80l-93 -193h-55zM95 -212l106 247.001l-176 379h77l117 -257c3.33301 -8 6.5 -17.833 9.5 -29.5l7.5 -29.5l2 -11c4.66699 29.333 11 52.666 19 69.999l108 257h72l-270 -626h-72z" />
    <glyph glyph-name="thorn" unicode="&#xfe;" horiz-adv-x="552" 
d="M76 -212v934h70v-393c33.333 62.667 86.666 94 159.999 94c56.667 0 103.834 -20.5 141.501 -61.5s56.5 -92.167 56.5 -153.5c0 -62 -19 -113.5 -57 -154.5s-85.333 -61.5 -142 -61.5c-36 0 -68 8.66699 -96 26s-49 40 -63 68v-298h-70zM289 53
c43.333 0 78 14.5 104 43.5s39 66.167 39 111.5c0 44.667 -13 81.334 -39 110.001s-60.667 43 -104 43c-44 0 -79.5 -14.333 -106.5 -43s-40.5 -65.334 -40.5 -110.001c0 -45.333 13.5 -82.5 40.5 -111.5s62.5 -43.5 106.5 -43.5z" />
    <glyph glyph-name="ydieresis" unicode="&#xff;" horiz-adv-x="462" 
d="M317 516c-12 0 -22.833 4.66699 -32.5 14s-14.5 20 -14.5 32c0 12.667 4.83301 23.5 14.5 32.5s20.5 13.5 32.5 13.5s22.667 -4.5 32 -13.5s14 -19.833 14 -32.5s-4.66699 -23.5 -14 -32.5s-20 -13.5 -32 -13.5zM143 516c-12 0 -22.667 4.5 -32 13.5s-14 19.833 -14 32.5
s4.66699 23.5 14 32.5s20 13.5 32 13.5c12.667 0 23.667 -4.5 33 -13.5s14 -19.833 14 -32.5s-4.66699 -23.5 -14 -32.5s-20.333 -13.5 -33 -13.5zM95 -212l106 247.001l-176 379h77l117 -257c3.33301 -8 6.5 -17.833 9.5 -29.5l7.5 -29.5l2 -11
c4.66699 29.333 11 52.666 19 69.999l108 257h72l-270 -626h-72z" />
    <glyph glyph-name="dotlessi" unicode="&#x131;" horiz-adv-x="222" 
d="M76 0v414h70v-414h-70z" />
    <glyph glyph-name="Lslash" unicode="&#x141;" horiz-adv-x="531" 
d="M96 0v199l-75 -29v65l75 29v416h73v-389l199 78v-65l-199 -79v-161h321v-64h-394z" />
    <glyph glyph-name="lslash" unicode="&#x142;" horiz-adv-x="267" 
d="M99 0v241l-85 -51v69l85 52v411h70v-371l88 54v-69l-88 -54v-282h-70z" />
    <glyph glyph-name="OE" unicode="&#x152;" horiz-adv-x="987" 
d="M412 0c-109.333 0 -196.333 31.333 -261 94s-97 144.667 -97 246c0 102 32.167 184.167 96.5 246.5s151.5 93.5 261.5 93.5h502v-64h-341v-319h304v-63h-304v-170h355v-64h-516zM418 65h83v550h-83c-94 0 -165.667 -24.833 -215 -74.5s-74 -116.5 -74 -200.5
s24.667 -150.833 74 -200.5s121 -74.5 215 -74.5z" />
    <glyph glyph-name="oe" unicode="&#x153;" horiz-adv-x="881" 
d="M482 184c4.66699 -40.667 20.3301 -73.001 46.9971 -97.001s62.334 -36 107.001 -36c54.667 0 98.334 18.333 131.001 55l43 -42c-42.667 -48 -100.334 -72 -173.001 -72c-45.333 0 -84.166 10.333 -116.499 31s-56.166 48.667 -71.499 84
c-15.333 -34.667 -39 -62.5 -71 -83.5s-68.667 -31.5 -110 -31.5c-62 0 -114.167 20.667 -156.5 62s-63.5 92.333 -63.5 153s21.167 111.834 63.5 153.501s94.5 62.5 156.5 62.5c42 0 78.833 -10.5 110.5 -31.5s55.167 -49.167 70.5 -84.5
c14.667 35.333 37.667 63.5 69 84.5s67.333 31.5 108 31.5c65.333 0 117 -22.5 155 -67.5s55.667 -102.167 53 -171.5h-352zM482.996 236.999h281.001c-3.33301 37.333 -16.833 67.833 -40.5 91.5s-56.167 35.5 -97.5 35.5c-38.667 0 -70.834 -11.5 -96.501 -34.5
s-41.167 -53.833 -46.5 -92.5zM267.997 51.999c43.333 0 78.666 14.667 105.999 44s41 66.333 41 111s-13.667 81.667 -41 111s-62.666 44 -105.999 44c-44 0 -79.833 -14.667 -107.5 -44s-41.5 -66.333 -41.5 -111s13.833 -81.667 41.5 -111s63.5 -44 107.5 -44z" />
    <glyph glyph-name="Scaron" unicode="&#x160;" horiz-adv-x="531" 
d="M246 743l-128 193h61l71 -99l72 99h61l-128 -193h-9zM266 -8c-112 0 -191.001 45.999 -237.001 137.999l60 32c18.667 -32.667 41.5 -58.5 68.5 -77.5s62.5 -28.5 106.5 -28.5c40.667 0 74.334 10.5 101.001 31.5s40 49.167 40 84.5c0 32.667 -10 59.5 -30 80.5
s-52.667 41.5 -98 61.5l-54 25c-52 23.333 -90 48.833 -114 76.5s-36 64.167 -36 109.5c0 48.667 16.833 88 50.5 118s76.5 45 128.5 45c82 0 143.333 -34 184 -102l-58 -36c-30.667 49.333 -72.667 74 -126 74c-33.333 0 -59.666 -8.83301 -78.999 -26.5
s-29 -41.167 -29 -70.5c0 -28.667 8 -51.5 24 -68.5s44 -34.833 84 -53.5l54 -25c59.333 -26 102.666 -54.833 129.999 -86.5s41 -72.167 41 -121.5c0 -55.333 -19.667 -99.166 -59 -131.499s-90 -48.5 -152 -48.5z" />
    <glyph glyph-name="scaron" unicode="&#x161;" horiz-adv-x="410" 
d="M193 488l-128 193h61l71 -99l72 99h61l-128 -193h-9zM213 -8c-42.667 0 -79.167 9.00195 -109.5 27.002s-52.833 41 -67.5 69l54 31c28 -46.667 68 -70 120 -70c28 0 49.667 5.5 65 16.5s23 26.167 23 45.5c0 20.667 -7.5 35.5 -22.5 44.5s-43.5 19.5 -85.5 31.5
c-40 11.333 -70.833 25.833 -92.5 43.5s-32.5 44.167 -32.5 79.5c0 34.667 12.833 62.167 38.5 82.5s58.167 30.5 97.5 30.5c60.667 0 106.667 -22.333 138 -67l-48 -37c-22.667 31.333 -52.667 47 -90 47c-22 0 -39.5 -4.83301 -52.5 -14.5s-19.5 -22.5 -19.5 -38.5
c0 -18.667 6.66699 -32.334 20 -41.001s39.333 -18.667 78 -30c42.667 -11.333 76.167 -26.333 100.5 -45s36.5 -46 36.5 -82c0 -36.667 -12.667 -66.334 -38 -89.001s-63 -34 -113 -34z" />
    <glyph glyph-name="Ydieresis" unicode="&#x178;" horiz-adv-x="656" 
d="M414 771c-12 0 -22.833 4.66699 -32.5 14s-14.5 20 -14.5 32c0 12.667 4.83301 23.5 14.5 32.5s20.5 13.5 32.5 13.5s22.667 -4.5 32 -13.5s14 -19.833 14 -32.5s-4.66699 -23.5 -14 -32.5s-20 -13.5 -32 -13.5zM240 771c-12 0 -22.667 4.5 -32 13.5s-14 19.833 -14 32.5
s4.66699 23.5 14 32.5s20 13.5 32 13.5c12.667 0 23.667 -4.5 33 -13.5s14 -19.833 14 -32.5s-4.66699 -23.5 -14 -32.5s-20.333 -13.5 -33 -13.5zM294 0l-0.00195312 213l-257 467h81l185 -338c4.66699 -8 9.33398 -17.667 14.001 -29s8.33398 -21 11.001 -29l4 -11
c10 28 19.667 51 29 69l184 338h75l-252 -464v-216h-74z" />
    <glyph glyph-name="Zcaron" unicode="&#x17d;" horiz-adv-x="581" 
d="M302 743l-128 193h61l71 -99l72 99h61l-128 -193h-9zM39 0v11l380 605h-326v64h438v-11l-379 -605h381v-64h-494z" />
    <glyph glyph-name="zcaron" unicode="&#x17e;" horiz-adv-x="417" 
d="M220 488l-128 193h61l71 -99l72 99h61l-128 -193h-9zM32 0v10l239 346h-213v58h326v-11l-241 -345h236v-58h-347z" />
    <glyph glyph-name="florin" unicode="&#x192;" 
d="M183 203h-97.998v57h104l23 203c5.33301 51.333 20.666 90 45.999 116s57.333 39 96 39c57.333 0 99.333 -24.333 126 -73l-49 -34c-8.66699 15.333 -18.334 27 -29.001 35s-25.667 12 -45 12c-44 0 -69.667 -31.333 -77 -94l-23 -204h135v-57h-141l-47 -415h-68z" />
    <glyph glyph-name="circumflex" unicode="&#x2c6;" horiz-adv-x="500" 
d="M117 496l128 193h9l128 -193h-61l-71 99l-72 -99h-61z" />
    <glyph glyph-name="caron" unicode="&#x2c7;" horiz-adv-x="500" 
d="M246 488l-128 193h61l71 -99l72 99h61l-128 -193h-9z" />
    <glyph glyph-name="breve" unicode="&#x2d8;" horiz-adv-x="500" 
d="M250 489c-37.333 0 -67.1699 10.667 -89.5029 32s-36.166 49.333 -41.499 84l56 10c10.667 -47.333 35.667 -71 75 -71s64.333 23.667 75 71l56 -10c-5.33301 -34.667 -19.166 -62.667 -41.499 -84s-52.166 -32 -89.499 -32z" />
    <glyph glyph-name="dotaccent" unicode="&#x2d9;" horiz-adv-x="500" 
d="M250 516c-12.667 0 -23.667 4.33301 -33 13s-14 19.667 -14 33s4.66699 24.5 14 33.5s20.333 13.5 33 13.5s23.667 -4.5 33 -13.5s14 -20.167 14 -33.5s-4.66699 -24.333 -14 -33s-20.333 -13 -33 -13z" />
    <glyph glyph-name="ring" unicode="&#x2da;" horiz-adv-x="500" 
d="M250 484c-29.333 0 -54.166 9.83301 -74.499 29.5s-30.5 43.167 -30.5 70.5c0 28 10.167 51.833 30.5 71.5s45.166 29.5 74.499 29.5s54.166 -9.83301 74.499 -29.5s30.5 -43.5 30.5 -71.5c0 -27.333 -10.167 -50.833 -30.5 -70.5s-45.166 -29.5 -74.499 -29.5zM250 529
c15.333 0 27.833 5 37.5 15s14.5 23.333 14.5 40s-4.83301 30 -14.5 40s-22.167 15 -37.5 15s-27.833 -5 -37.5 -15s-14.5 -23.333 -14.5 -40s4.83301 -30 14.5 -40s22.167 -15 37.5 -15z" />
    <glyph glyph-name="ogonek" unicode="&#x2db;" horiz-adv-x="500" 
d="M238 -232c-26 0 -47.999 7.66602 -65.999 22.999s-27 37 -27 65c0 30.667 13.667 64.334 41 101.001l32 43h51l-36 -59c-20.667 -33.333 -31 -61 -31 -83c0 -13.333 3.66699 -23.5 11 -30.5s16.666 -10.5 27.999 -10.5c20 0 37 11.667 51 35l44 -25
c-20 -39.333 -52.667 -59 -98 -59z" />
    <glyph glyph-name="tilde" unicode="&#x2dc;" horiz-adv-x="500" 
d="M156 493l-52.001 4.00098c2 35.333 10.833 62.666 26.5 81.999s35.834 29 60.501 29c21.333 0 44.333 -10.667 69 -32c13.333 -12 22.833 -19.667 28.5 -23s12.167 -5 19.5 -5c20 0 32 19.333 36 58l52 -5c-2 -35.333 -10.5 -62.5 -25.5 -81.5s-35.167 -28.5 -60.5 -28.5
c-20.667 0 -43.667 11 -69 33c-13.333 12 -22.833 19.667 -28.5 23s-12.167 5 -19.5 5c-20.667 0 -33 -19.667 -37 -59z" />
    <glyph glyph-name="hungarumlaut" unicode="&#x2dd;" horiz-adv-x="500" 
d="M289 498l68 193h76l-89 -193h-55zM151 498l67 193h76l-88 -193h-55z" />
    <glyph glyph-name="Delta" unicode="&#x394;" horiz-adv-x="200" 
d="M101 189c-14 0 -26.501 5.33301 -37.501 16s-16.5 23.667 -16.5 39s5.33301 28.166 16 38.499s23.334 15.5 38.001 15.5s27.334 -5.16699 38.001 -15.5s16 -23.166 16 -38.499s-5.33301 -28.333 -16 -39s-23.334 -16 -38.001 -16z" />
    <glyph glyph-name="Delta" unicode="&#x2206;" horiz-adv-x="200" 
d="M101 189c-14 0 -26.501 5.33301 -37.501 16s-16.5 23.667 -16.5 39s5.33301 28.166 16 38.499s23.334 15.5 38.001 15.5s27.334 -5.16699 38.001 -15.5s16 -23.166 16 -38.499s-5.33301 -28.333 -16 -39s-23.334 -16 -38.001 -16z" />
    <glyph glyph-name="Omega" unicode="&#x3a9;" horiz-adv-x="200" 
d="M101 189c-14 0 -26.501 5.33301 -37.501 16s-16.5 23.667 -16.5 39s5.33301 28.166 16 38.499s23.334 15.5 38.001 15.5s27.334 -5.16699 38.001 -15.5s16 -23.166 16 -38.499s-5.33301 -28.333 -16 -39s-23.334 -16 -38.001 -16z" />
    <glyph glyph-name="Omega" unicode="&#x2126;" horiz-adv-x="200" 
d="M101 189c-14 0 -26.501 5.33301 -37.501 16s-16.5 23.667 -16.5 39s5.33301 28.166 16 38.499s23.334 15.5 38.001 15.5s27.334 -5.16699 38.001 -15.5s16 -23.166 16 -38.499s-5.33301 -28.333 -16 -39s-23.334 -16 -38.001 -16z" />
    <glyph glyph-name="pi" unicode="&#x3c0;" horiz-adv-x="200" 
d="M101 189c-14 0 -26.501 5.33301 -37.501 16s-16.5 23.667 -16.5 39s5.33301 28.166 16 38.499s23.334 15.5 38.001 15.5s27.334 -5.16699 38.001 -15.5s16 -23.166 16 -38.499s-5.33301 -28.333 -16 -39s-23.334 -16 -38.001 -16z" />
    <glyph glyph-name="endash" unicode="&#x2013;" horiz-adv-x="394" 
d="M35 163v61h323v-61h-323z" />
    <glyph glyph-name="emdash" unicode="&#x2014;" horiz-adv-x="623" 
d="M35 163v61h553v-61h-553z" />
    <glyph glyph-name="quoteleft" unicode="&#x2018;" horiz-adv-x="199" 
d="M100 475c-14 0 -26.334 5.16699 -37.001 15.5s-16 22.5 -16 36.5c0 11.333 4.33301 25 13 41l55 112h38l-34 -104c8.66699 -3.33301 16.334 -9.33301 23.001 -18s10 -18.667 10 -30c0 -14.667 -5.16699 -27.167 -15.5 -37.5s-22.5 -15.5 -36.5 -15.5z" />
    <glyph glyph-name="quoteright" unicode="&#x2019;" horiz-adv-x="199" 
d="M46 482l33.999 104.001c-9.33301 3.33301 -17.166 9.33301 -23.499 18s-9.5 18.667 -9.5 30c0 14.667 5.16699 27.167 15.5 37.5s22.5 15.5 36.5 15.5s26.333 -5.16699 37 -15.5s16 -22.5 16 -36.5c0 -8.66699 -4.33301 -22.334 -13 -41.001l-56 -112h-37z" />
    <glyph glyph-name="quotesinglbase" unicode="&#x201a;" horiz-adv-x="199" 
d="M46 -103l33.999 104.998c-9.33301 2.66699 -17.166 8.33398 -23.499 17.001s-9.5 19 -9.5 31c0 14 5.16699 26.167 15.5 36.5s22.5 15.5 36.5 15.5s26.333 -5.16699 37 -15.5s16 -22.5 16 -36.5c0 -9.33301 -4.33301 -22.666 -13 -39.999l-56 -113h-37z" />
    <glyph glyph-name="quotedblleft" unicode="&#x201c;" horiz-adv-x="357" 
d="M258 475c-14 0 -26.332 5.16602 -36.999 15.499s-16 22.5 -16 36.5c0 8.66699 4.33301 22.334 13 41.001l56 112h37l-34 -104c9.33301 -3.33301 17.166 -9.33301 23.499 -18s9.5 -18.667 9.5 -30c0 -14.667 -5.16699 -27.167 -15.5 -37.5s-22.5 -15.5 -36.5 -15.5z
M100.001 474.999c-14 0 -26.334 5.16699 -37.001 15.5s-16 22.5 -16 36.5c0 11.333 4.33301 25 13 41l55 112h38l-34 -104c8.66699 -3.33301 16.334 -9.33301 23.001 -18s10 -18.667 10 -30c0 -14.667 -5.16699 -27.167 -15.5 -37.5s-22.5 -15.5 -36.5 -15.5z" />
    <glyph glyph-name="quotedblright" unicode="&#x201d;" horiz-adv-x="357" 
d="M204 482l34.001 104c-8.66699 3.33301 -16.334 9.33301 -23.001 18s-10 18.667 -10 30c0 14.667 5.16699 27.167 15.5 37.5s22.5 15.5 36.5 15.5s26.333 -5.16699 37 -15.5s16 -22.5 16 -36.5c0 -11.333 -4.33301 -25 -13 -41l-55 -112h-38zM46.001 482l33.999 104.001
c-9.33301 3.33301 -17.166 9.33301 -23.499 18s-9.5 18.667 -9.5 30c0 14.667 5.16699 27.167 15.5 37.5s22.5 15.5 36.5 15.5s26.333 -5.16699 37 -15.5s16 -22.5 16 -36.5c0 -8.66699 -4.33301 -22.334 -13 -41.001l-56 -112h-37z" />
    <glyph glyph-name="quotedblbase" unicode="&#x201e;" horiz-adv-x="357" 
d="M204 -103l34.001 104.999c-8.66699 2.66699 -16.334 8.5 -23.001 17.5s-10 19.167 -10 30.5c0 14 5.16699 26.167 15.5 36.5s22.5 15.5 36.5 15.5s26.333 -5.16699 37 -15.5s16 -22.5 16 -36.5c0 -11.333 -4.33301 -24.666 -13 -39.999l-55 -113h-38zM46.001 -103.001
l33.999 104.998c-9.33301 2.66699 -17.166 8.33398 -23.499 17.001s-9.5 19 -9.5 31c0 14 5.16699 26.167 15.5 36.5s22.5 15.5 36.5 15.5s26.333 -5.16699 37 -15.5s16 -22.5 16 -36.5c0 -9.33301 -4.33301 -22.666 -13 -39.999l-56 -113h-37z" />
    <glyph glyph-name="dagger" unicode="&#x2020;" horiz-adv-x="337" 
d="M136 280v238h-93v58h93v104h65v-104h93v-58h-93v-238h-65z" />
    <glyph glyph-name="daggerdbl" unicode="&#x2021;" horiz-adv-x="337" 
d="M136 280v105h-93v54h93v82h-93v55h93v104h65v-104h93v-55h-93v-82h93v-54h-93v-105h-65z" />
    <glyph glyph-name="bullet" unicode="&#x2022;" horiz-adv-x="279" 
d="M139 168c-25.333 0 -47.333 9.16699 -66 27.5s-28 40.5 -28 66.5c0 26.667 9.16699 49.167 27.5 67.5s40.5 27.5 66.5 27.5s48.333 -9.16699 67 -27.5s28 -40.833 28 -67.5c0 -26 -9.33301 -48.167 -28 -66.5s-41 -27.5 -67 -27.5z" />
    <glyph glyph-name="ellipsis" unicode="&#x2026;" horiz-adv-x="616" 
d="M515 -7c-14 0 -26.501 5.33301 -37.501 16s-16.5 23.667 -16.5 39s5.33301 28.166 16 38.499s23.334 15.5 38.001 15.5s27.334 -5.16699 38.001 -15.5s16 -23.166 16 -38.499s-5.33301 -28.333 -16 -39s-23.334 -16 -38.001 -16zM307.999 -7
c-14 0 -26.501 5.33301 -37.501 16s-16.5 23.667 -16.5 39s5.33301 28.166 16 38.499s23.334 15.5 38.001 15.5s27.334 -5.16699 38.001 -15.5s16 -23.166 16 -38.499s-5.33301 -28.333 -16 -39s-23.334 -16 -38.001 -16zM100.998 -7c-14 0 -26.501 5.33301 -37.501 16
s-16.5 23.667 -16.5 39s5.33301 28.166 16 38.499s23.334 15.5 38.001 15.5s27.334 -5.16699 38.001 -15.5s16 -23.166 16 -38.499s-5.33301 -28.333 -16 -39s-23.334 -16 -38.001 -16z" />
    <glyph glyph-name="perthousand" unicode="&#x2030;" horiz-adv-x="1100" 
d="M185 218c-39.333 0 -73.166 14 -101.499 42s-42.5 63 -42.5 105s14.167 77 42.5 105s62.166 42 101.499 42s73 -14 101 -42s42 -63 42 -105s-14 -77 -42 -105s-61.667 -42 -101 -42zM191 0l315 504h70l-315 -504h-70zM915 -8c-39.333 0 -73 13.833 -101 41.5
s-42 62.5 -42 104.5s14 77 42 105s61.667 42 101 42s73 -14 101 -42s42 -63 42 -105s-14 -76.833 -42 -104.5s-61.667 -41.5 -101 -41.5zM583 -8c-39.333 0 -73 13.833 -101 41.5s-42 62.5 -42 104.5s14 77 42 105s61.667 42 101 42s73 -14 101 -42s42 -63 42 -105
s-14 -76.833 -42 -104.5s-61.667 -41.5 -101 -41.5zM185 272c24.667 0 45 8.66699 61 26s24 39.666 24 66.999s-8 49.666 -24 66.999s-36.333 26 -61 26c-24 0 -44.167 -8.66699 -60.5 -26s-24.5 -39.666 -24.5 -66.999s8.16699 -49.666 24.5 -66.999s36.5 -26 60.5 -26z
M915 45c24 0 44 8.66699 60 26s24 39.666 24 66.999c0 28 -8 50.5 -24 67.5s-36 25.5 -60 25.5s-44 -8.5 -60 -25.5s-24 -39.5 -24 -67.5c0 -27.333 8 -49.666 24 -66.999s36 -26 60 -26zM583 45c24 0 44 8.66699 60 26s24 39.666 24 66.999c0 28 -8 50.5 -24 67.5
s-36 25.5 -60 25.5s-44 -8.5 -60 -25.5s-24 -39.5 -24 -67.5c0 -27.333 8 -49.666 24 -66.999s36 -26 60 -26z" />
    <glyph glyph-name="guilsinglleft" unicode="&#x2039;" horiz-adv-x="242" 
d="M132 37l-94 159v8l94 157h72l-96 -161l96 -163h-72z" />
    <glyph glyph-name="guilsinglright" unicode="&#x203a;" horiz-adv-x="242" 
d="M38 37l96 162l-96 162h72l94 -158v-8l-94 -158h-72z" />
    <glyph glyph-name="fraction" unicode="&#x2044;" horiz-adv-x="351" 
d="M-17 0l315 504h70l-315 -504h-70z" />
    <glyph glyph-name="fraction" unicode="&#x2215;" horiz-adv-x="351" 
d="M-17 0l315 504h70l-315 -504h-70z" />
    <glyph glyph-name="Euro" unicode="&#x20ac;" 
d="M80 283l-60.999 0.000976562v56h72c15.333 52 42.833 93.833 82.5 125.5s85.167 47.5 136.5 47.5c82 0 144.333 -32.333 187 -97l-52 -37c-16.667 26 -35 44.667 -55 56s-46.667 17 -80 17s-62.833 -10 -88.5 -30s-44.834 -47.333 -57.501 -82h192v-56h-204
c0 -3.33301 -0.166992 -8.33301 -0.5 -15s-0.5 -12 -0.5 -16c0 -8 0.666992 -18.667 2 -32h203v-56h-191c12 -34.667 30.833 -61.834 56.5 -81.501s55.167 -29.5 88.5 -29.5c34.667 0 62.167 6.5 82.5 19.5s38.5 32.5 54.5 58.5l55 -34c-42 -70 -106 -105 -192 -105
c-50 0 -94.833 15.667 -134.5 47s-67.5 73 -83.5 125h-73v56h62c-1.33301 13.333 -2 24 -2 32c0 14 0.333008 24.333 1 31z" />
    <glyph glyph-name="trademark" unicode="&#x2122;" horiz-adv-x="725" 
d="M346 383v302h9l144 -161l143 161h9v-302h-54v187l-93 -111h-10l-94 111v-187h-54zM138 383v251h-90v46h234v-46h-90v-251h-54z" />
    <glyph glyph-name="partialdiff" unicode="&#x2202;" horiz-adv-x="200" 
d="M101 189c-14 0 -26.501 5.33301 -37.501 16s-16.5 23.667 -16.5 39s5.33301 28.166 16 38.499s23.334 15.5 38.001 15.5s27.334 -5.16699 38.001 -15.5s16 -23.166 16 -38.499s-5.33301 -28.333 -16 -39s-23.334 -16 -38.001 -16z" />
    <glyph glyph-name="product" unicode="&#x220f;" horiz-adv-x="200" 
d="M101 189c-14 0 -26.501 5.33301 -37.501 16s-16.5 23.667 -16.5 39s5.33301 28.166 16 38.499s23.334 15.5 38.001 15.5s27.334 -5.16699 38.001 -15.5s16 -23.166 16 -38.499s-5.33301 -28.333 -16 -39s-23.334 -16 -38.001 -16z" />
    <glyph glyph-name="summation" unicode="&#x2211;" horiz-adv-x="806" 
d="M440 1c18.667 -14.667 33.3311 -25.833 43.998 -33.5s25.167 -15 43.5 -22s37.5 -10.5 57.5 -10.5c39.333 0 72.666 15 99.999 45l49 -44c-37.333 -44 -86.666 -66 -147.999 -66c-26 0 -52.167 5.16699 -78.5 15.5s-46.166 20.166 -59.499 29.499s-32 23.333 -56 42
c-18.667 14 -34 24.833 -46 32.5s-27.333 15.167 -46 22.5s-37 11 -55 11c-49.333 0 -89.666 -24.333 -120.999 -73l-49 40c26 40.667 61.667 67.667 107 81c-40.667 30 -72.334 68.167 -95.001 114.5s-34 97.833 -34 154.5c0 101.333 33.667 184.666 101 249.999
s150 98 248 98c98.667 0 181.667 -32.667 249 -98s101 -148.666 101 -249.999c0 -93.333 -29.667 -171.166 -89 -233.499s-133.666 -97.5 -222.999 -105.5zM401.997 59.001c79.333 0 145 26.667 197 80s78 120.333 78 201c0 81.333 -26 148.833 -78 202.5
s-117.667 80.5 -197 80.5c-78.667 0 -144 -26.833 -196 -80.5s-78 -121.167 -78 -202.5c0 -80.667 26 -147.667 78 -201s117.333 -80 196 -80z" />
    <glyph glyph-name="minus" unicode="&#x2212;" 
d="M86 221v62h348v-62h-348z" />
    <glyph glyph-name="radical" unicode="&#x221a;" horiz-adv-x="200" 
d="M101 189c-14 0 -26.501 5.33301 -37.501 16s-16.5 23.667 -16.5 39s5.33301 28.166 16 38.499s23.334 15.5 38.001 15.5s27.334 -5.16699 38.001 -15.5s16 -23.166 16 -38.499s-5.33301 -28.333 -16 -39s-23.334 -16 -38.001 -16z" />
    <glyph glyph-name="integral" unicode="&#x222b;" horiz-adv-x="200" 
d="M101 189c-14 0 -26.501 5.33301 -37.501 16s-16.5 23.667 -16.5 39s5.33301 28.166 16 38.499s23.334 15.5 38.001 15.5s27.334 -5.16699 38.001 -15.5s16 -23.166 16 -38.499s-5.33301 -28.333 -16 -39s-23.334 -16 -38.001 -16z" />
    <glyph glyph-name="approxequal" unicode="&#x2248;" horiz-adv-x="200" 
d="M101 189c-14 0 -26.501 5.33301 -37.501 16s-16.5 23.667 -16.5 39s5.33301 28.166 16 38.499s23.334 15.5 38.001 15.5s27.334 -5.16699 38.001 -15.5s16 -23.166 16 -38.499s-5.33301 -28.333 -16 -39s-23.334 -16 -38.001 -16z" />
    <glyph glyph-name="lessequal" unicode="&#x2264;" horiz-adv-x="200" 
d="M101 189c-14 0 -26.501 5.33301 -37.501 16s-16.5 23.667 -16.5 39s5.33301 28.166 16 38.499s23.334 15.5 38.001 15.5s27.334 -5.16699 38.001 -15.5s16 -23.166 16 -38.499s-5.33301 -28.333 -16 -39s-23.334 -16 -38.001 -16z" />
    <glyph glyph-name="greaterequal" unicode="&#x2265;" horiz-adv-x="200" 
d="M101 189c-14 0 -26.501 5.33301 -37.501 16s-16.5 23.667 -16.5 39s5.33301 28.166 16 38.499s23.334 15.5 38.001 15.5s27.334 -5.16699 38.001 -15.5s16 -23.166 16 -38.499s-5.33301 -28.333 -16 -39s-23.334 -16 -38.001 -16z" />
    <glyph glyph-name="lozenge" unicode="&#x25ca;" horiz-adv-x="200" 
d="M101 189c-14 0 -26.501 5.33301 -37.501 16s-16.5 23.667 -16.5 39s5.33301 28.166 16 38.499s23.334 15.5 38.001 15.5s27.334 -5.16699 38.001 -15.5s16 -23.166 16 -38.499s-5.33301 -28.333 -16 -39s-23.334 -16 -38.001 -16z" />
    <glyph glyph-name=".null" horiz-adv-x="0" 
 />
    <glyph glyph-name="nonmarkingreturn" horiz-adv-x="333" 
 />
    <glyph glyph-name="plusminus" horiz-adv-x="763" 
d="M101 0l0.000976562 355h-67v59h67v168c0 44.667 10.167 78 30.5 100s48.166 33 83.499 33c45.333 0 79.333 -14.667 102 -44l-45 -44c-13.333 16.667 -30 25 -50 25c-34 0 -51 -23.333 -51 -70v-168h186v152c0 53.333 15.833 94.833 47.5 124.5s70.5 44.5 116.5 44.5
s84.5 -14 115.5 -42s46.5 -69 46.5 -123v-570h-70v565c0 71.333 -30.667 107 -92 107c-28.667 0 -51.5 -8.83301 -68.5 -26.5s-25.5 -44.5 -25.5 -80.5v-151h106v-59h-106v-355h-70v355h-186v-355h-70z" />
    <glyph glyph-name="apple" horiz-adv-x="202" 
d="M101 189c-14 0 -26.501 5.33301 -37.501 16s-16.5 23.667 -16.5 39s5.33301 28.166 16 38.499s23.334 15.5 38.001 15.5s27.334 -5.16699 38.001 -15.5s16 -23.166 16 -38.499s-5.33301 -28.333 -16 -39s-23.334 -16 -38.001 -16z" />
    <glyph glyph-name="infinity" horiz-adv-x="759" 
d="M648 534c-13.333 0 -25 4.66699 -35 14s-15 21 -15 35s5 25.833 15 35.5s21.667 14.5 35 14.5s25 -4.83301 35 -14.5s15 -21.5 15 -35.5s-5 -25.667 -15 -35s-21.667 -14 -35 -14zM101 0l0.000976562 355h-67v59h67v168c0 44.667 10.167 78 30.5 100s48.166 33 83.499 33
c45.333 0 79.333 -14.667 102 -44l-45 -44c-13.333 16.667 -30 25 -50 25c-34 0 -51 -23.333 -51 -70v-168h186v188c0 44.667 10.333 78 31 100s49 33 85 33c42.667 0 76 -15 100 -45l-44 -42c-14.667 16 -31.667 24 -51 24c-34 0 -51 -23.333 -51 -70v-188h256v-414h-70
v355h-186v-355h-70v355h-186v-355h-70z" />
    <glyph glyph-name="notequal" horiz-adv-x="572" 
d="M101 0l0.00195312 355h-67v59h67v168c0 44.667 10.167 78 30.5 100s48.166 33 83.499 33c45.333 0 79.333 -14.667 102 -44l-45 -44c-13.333 16.667 -30 25 -50 25c-34 0 -51 -23.333 -51 -70v-168h186v188c0 44.667 10.333 78 31 100s48.667 33 84 33
c46.667 0 81.667 -17 105 -51l-46 -41c-14.667 19.333 -32.334 29 -53.001 29c-34 0 -51 -23.333 -51 -70v-188h111v-59h-111v-355h-70v355h-186v-355h-70z" />
    </font>
</defs>
</svg>
